<svg width="58" height="16" viewBox="0 0 58 16" fill="none" xmlns="http://www.w3.org/2000/svg">
<mask id="path-1-outside-1_8_2" maskUnits="userSpaceOnUse" x="-0.273584" y="-0.800003" width="58" height="17" fill="black">
<rect fill="white" x="-0.273584" y="-0.800003" width="58" height="17"/>
<path d="M5.77569 15.276C4.85103 15.276 4.02136 15.048 3.28669 14.592C2.55203 14.1233 1.96936 13.4963 1.53869 12.711C1.12069 11.913 0.911692 11.0137 0.911692 10.013C0.911692 9.01233 1.13969 8.113 1.59569 7.315C2.06436 6.517 2.69136 5.89 3.47669 5.434C4.27469 4.96533 5.16769 4.731 6.15569 4.731C7.14369 4.731 8.03036 4.96533 8.81569 5.434C9.60103 5.89 10.2217 6.517 10.6777 7.315C11.1464 8.113 11.3807 9.01233 11.3807 10.013H10.6397C10.6397 11.0137 10.4244 11.913 9.99369 12.711C9.57569 13.4963 8.99936 14.1233 8.26469 14.592C7.53003 15.048 6.70036 15.276 5.77569 15.276ZM6.15569 13.566C6.80169 13.566 7.37803 13.414 7.88469 13.11C8.39136 12.7933 8.79036 12.369 9.08169 11.837C9.37303 11.2923 9.51869 10.6843 9.51869 10.013C9.51869 9.329 9.37303 8.721 9.08169 8.189C8.79036 7.64433 8.39136 7.22 7.88469 6.916C7.37803 6.59933 6.80169 6.441 6.15569 6.441C5.52236 6.441 4.94603 6.59933 4.42669 6.916C3.92003 7.22 3.51469 7.64433 3.21069 8.189C2.91936 8.721 2.77369 9.329 2.77369 10.013C2.77369 10.6843 2.91936 11.2923 3.21069 11.837C3.51469 12.369 3.92003 12.7933 4.42669 13.11C4.94603 13.414 5.52236 13.566 6.15569 13.566ZM10.4117 15.219C10.133 15.219 9.89869 15.1303 9.70869 14.953C9.53136 14.763 9.44269 14.5287 9.44269 14.25V11.343L9.80369 9.329L11.3807 10.013V14.25C11.3807 14.5287 11.2857 14.763 11.0957 14.953C10.9184 15.1303 10.6904 15.219 10.4117 15.219ZM18.16 15.295C17.286 15.295 16.5006 15.1113 15.804 14.744C15.12 14.364 14.5753 13.813 14.17 13.091C13.7773 12.369 13.581 11.4823 13.581 10.431V5.757C13.581 5.47833 13.6696 5.25033 13.847 5.073C14.037 4.883 14.2713 4.788 14.55 4.788C14.8286 4.788 15.0566 4.883 15.234 5.073C15.424 5.25033 15.519 5.47833 15.519 5.757V10.431C15.519 11.1403 15.652 11.7293 15.918 12.198C16.184 12.654 16.545 12.996 17.001 13.224C17.457 13.4393 17.97 13.547 18.54 13.547C19.0846 13.547 19.566 13.4393 19.984 13.224C20.4146 13.0087 20.7566 12.7173 21.01 12.35C21.2633 11.9827 21.39 11.571 21.39 11.115H22.587C22.587 11.9003 22.3906 12.6097 21.998 13.243C21.618 13.8763 21.0923 14.3767 20.421 14.744C19.7623 15.1113 19.0086 15.295 18.16 15.295ZM22.359 15.2C22.0803 15.2 21.846 15.1113 21.656 14.934C21.4786 14.744 21.39 14.5097 21.39 14.231V5.757C21.39 5.46566 21.4786 5.23133 21.656 5.054C21.846 4.87666 22.0803 4.788 22.359 4.788C22.6503 4.788 22.8846 4.87666 23.062 5.054C23.2393 5.23133 23.328 5.46566 23.328 5.757V14.231C23.328 14.5097 23.2393 14.744 23.062 14.934C22.8846 15.1113 22.6503 15.2 22.359 15.2ZM27.1972 8.702C27.1972 7.942 27.3808 7.26433 27.7482 6.669C28.1282 6.061 28.6348 5.57966 29.2682 5.225C29.9015 4.87033 30.5982 4.693 31.3582 4.693C32.1182 4.693 32.6818 4.81966 33.0492 5.073C33.4292 5.31366 33.5748 5.605 33.4862 5.947C33.4482 6.12433 33.3722 6.26366 33.2582 6.365C33.1568 6.45366 33.0365 6.51066 32.8972 6.536C32.7578 6.56133 32.6058 6.555 32.4412 6.517C31.6305 6.35233 30.9022 6.33966 30.2562 6.479C29.6102 6.61833 29.0972 6.878 28.7172 7.258C28.3498 7.638 28.1662 8.11933 28.1662 8.702H27.1972ZM27.2162 15.2C26.9122 15.2 26.6778 15.124 26.5132 14.972C26.3485 14.8073 26.2662 14.5667 26.2662 14.25V5.757C26.2662 5.453 26.3485 5.21866 26.5132 5.054C26.6778 4.88933 26.9122 4.807 27.2162 4.807C27.5328 4.807 27.7672 4.88933 27.9192 5.054C28.0838 5.206 28.1662 5.44033 28.1662 5.757V14.25C28.1662 14.554 28.0838 14.7883 27.9192 14.953C27.7672 15.1177 27.5328 15.2 27.2162 15.2ZM38.9826 15.276C37.9946 15.276 37.1016 15.048 36.3036 14.592C35.5183 14.1233 34.8913 13.49 34.4226 12.692C33.9666 11.894 33.7386 10.9947 33.7386 9.994C33.7386 8.99333 33.9476 8.10033 34.3656 7.315C34.7963 6.517 35.379 5.89 36.1136 5.434C36.8483 4.96533 37.678 4.731 38.6026 4.731C39.35 4.731 40.0403 4.88933 40.6736 5.206C41.307 5.51 41.839 5.928 42.2696 6.46V1.33C42.2696 1.03866 42.3583 0.80433 42.5356 0.626997C42.7256 0.449663 42.96 0.360997 43.2386 0.360997C43.53 0.360997 43.7643 0.449663 43.9416 0.626997C44.119 0.80433 44.2076 1.03866 44.2076 1.33V9.994C44.2076 10.9947 43.9733 11.894 43.5046 12.692C43.0486 13.49 42.428 14.1233 41.6426 14.592C40.8573 15.048 39.9706 15.276 38.9826 15.276ZM38.9826 13.566C39.6286 13.566 40.205 13.414 40.7116 13.11C41.2183 12.7933 41.6173 12.3627 41.9086 11.818C42.2 11.2733 42.3456 10.6653 42.3456 9.994C42.3456 9.31 42.2 8.702 41.9086 8.17C41.6173 7.638 41.2183 7.22 40.7116 6.916C40.205 6.59933 39.6286 6.441 38.9826 6.441C38.3493 6.441 37.773 6.59933 37.2536 6.916C36.747 7.22 36.3416 7.638 36.0376 8.17C35.7463 8.702 35.6006 9.31 35.6006 9.994C35.6006 10.6653 35.7463 11.2733 36.0376 11.818C36.3416 12.3627 36.747 12.7933 37.2536 13.11C37.773 13.414 38.3493 13.566 38.9826 13.566ZM51.487 15.276C50.5624 15.276 49.7327 15.048 48.998 14.592C48.2634 14.1233 47.6807 13.4963 47.25 12.711C46.832 11.913 46.623 11.0137 46.623 10.013C46.623 9.01233 46.851 8.113 47.307 7.315C47.7757 6.517 48.4027 5.89 49.188 5.434C49.986 4.96533 50.879 4.731 51.867 4.731C52.855 4.731 53.7417 4.96533 54.527 5.434C55.3124 5.89 55.933 6.517 56.389 7.315C56.8577 8.113 57.092 9.01233 57.092 10.013H56.351C56.351 11.0137 56.1357 11.913 55.705 12.711C55.287 13.4963 54.7107 14.1233 53.976 14.592C53.2414 15.048 52.4117 15.276 51.487 15.276ZM51.867 13.566C52.513 13.566 53.0894 13.414 53.596 13.11C54.1027 12.7933 54.5017 12.369 54.793 11.837C55.0844 11.2923 55.23 10.6843 55.23 10.013C55.23 9.329 55.0844 8.721 54.793 8.189C54.5017 7.64433 54.1027 7.22 53.596 6.916C53.0894 6.59933 52.513 6.441 51.867 6.441C51.2337 6.441 50.6574 6.59933 50.138 6.916C49.6314 7.22 49.226 7.64433 48.922 8.189C48.6307 8.721 48.485 9.329 48.485 10.013C48.485 10.6843 48.6307 11.2923 48.922 11.837C49.226 12.369 49.6314 12.7933 50.138 13.11C50.6574 13.414 51.2337 13.566 51.867 13.566ZM56.123 15.219C55.8444 15.219 55.61 15.1303 55.42 14.953C55.2427 14.763 55.154 14.5287 55.154 14.25V11.343L55.515 9.329L57.092 10.013V14.25C57.092 14.5287 56.997 14.763 56.807 14.953C56.6297 15.1303 56.4017 15.219 56.123 15.219Z"/>
</mask>
<path d="M5.77569 15.276C4.85103 15.276 4.02136 15.048 3.28669 14.592C2.55203 14.1233 1.96936 13.4963 1.53869 12.711C1.12069 11.913 0.911692 11.0137 0.911692 10.013C0.911692 9.01233 1.13969 8.113 1.59569 7.315C2.06436 6.517 2.69136 5.89 3.47669 5.434C4.27469 4.96533 5.16769 4.731 6.15569 4.731C7.14369 4.731 8.03036 4.96533 8.81569 5.434C9.60103 5.89 10.2217 6.517 10.6777 7.315C11.1464 8.113 11.3807 9.01233 11.3807 10.013H10.6397C10.6397 11.0137 10.4244 11.913 9.99369 12.711C9.57569 13.4963 8.99936 14.1233 8.26469 14.592C7.53003 15.048 6.70036 15.276 5.77569 15.276ZM6.15569 13.566C6.80169 13.566 7.37803 13.414 7.88469 13.11C8.39136 12.7933 8.79036 12.369 9.08169 11.837C9.37303 11.2923 9.51869 10.6843 9.51869 10.013C9.51869 9.329 9.37303 8.721 9.08169 8.189C8.79036 7.64433 8.39136 7.22 7.88469 6.916C7.37803 6.59933 6.80169 6.441 6.15569 6.441C5.52236 6.441 4.94603 6.59933 4.42669 6.916C3.92003 7.22 3.51469 7.64433 3.21069 8.189C2.91936 8.721 2.77369 9.329 2.77369 10.013C2.77369 10.6843 2.91936 11.2923 3.21069 11.837C3.51469 12.369 3.92003 12.7933 4.42669 13.11C4.94603 13.414 5.52236 13.566 6.15569 13.566ZM10.4117 15.219C10.133 15.219 9.89869 15.1303 9.70869 14.953C9.53136 14.763 9.44269 14.5287 9.44269 14.25V11.343L9.80369 9.329L11.3807 10.013V14.25C11.3807 14.5287 11.2857 14.763 11.0957 14.953C10.9184 15.1303 10.6904 15.219 10.4117 15.219ZM18.16 15.295C17.286 15.295 16.5006 15.1113 15.804 14.744C15.12 14.364 14.5753 13.813 14.17 13.091C13.7773 12.369 13.581 11.4823 13.581 10.431V5.757C13.581 5.47833 13.6696 5.25033 13.847 5.073C14.037 4.883 14.2713 4.788 14.55 4.788C14.8286 4.788 15.0566 4.883 15.234 5.073C15.424 5.25033 15.519 5.47833 15.519 5.757V10.431C15.519 11.1403 15.652 11.7293 15.918 12.198C16.184 12.654 16.545 12.996 17.001 13.224C17.457 13.4393 17.97 13.547 18.54 13.547C19.0846 13.547 19.566 13.4393 19.984 13.224C20.4146 13.0087 20.7566 12.7173 21.01 12.35C21.2633 11.9827 21.39 11.571 21.39 11.115H22.587C22.587 11.9003 22.3906 12.6097 21.998 13.243C21.618 13.8763 21.0923 14.3767 20.421 14.744C19.7623 15.1113 19.0086 15.295 18.16 15.295ZM22.359 15.2C22.0803 15.2 21.846 15.1113 21.656 14.934C21.4786 14.744 21.39 14.5097 21.39 14.231V5.757C21.39 5.46566 21.4786 5.23133 21.656 5.054C21.846 4.87666 22.0803 4.788 22.359 4.788C22.6503 4.788 22.8846 4.87666 23.062 5.054C23.2393 5.23133 23.328 5.46566 23.328 5.757V14.231C23.328 14.5097 23.2393 14.744 23.062 14.934C22.8846 15.1113 22.6503 15.2 22.359 15.2ZM27.1972 8.702C27.1972 7.942 27.3808 7.26433 27.7482 6.669C28.1282 6.061 28.6348 5.57966 29.2682 5.225C29.9015 4.87033 30.5982 4.693 31.3582 4.693C32.1182 4.693 32.6818 4.81966 33.0492 5.073C33.4292 5.31366 33.5748 5.605 33.4862 5.947C33.4482 6.12433 33.3722 6.26366 33.2582 6.365C33.1568 6.45366 33.0365 6.51066 32.8972 6.536C32.7578 6.56133 32.6058 6.555 32.4412 6.517C31.6305 6.35233 30.9022 6.33966 30.2562 6.479C29.6102 6.61833 29.0972 6.878 28.7172 7.258C28.3498 7.638 28.1662 8.11933 28.1662 8.702H27.1972ZM27.2162 15.2C26.9122 15.2 26.6778 15.124 26.5132 14.972C26.3485 14.8073 26.2662 14.5667 26.2662 14.25V5.757C26.2662 5.453 26.3485 5.21866 26.5132 5.054C26.6778 4.88933 26.9122 4.807 27.2162 4.807C27.5328 4.807 27.7672 4.88933 27.9192 5.054C28.0838 5.206 28.1662 5.44033 28.1662 5.757V14.25C28.1662 14.554 28.0838 14.7883 27.9192 14.953C27.7672 15.1177 27.5328 15.2 27.2162 15.2ZM38.9826 15.276C37.9946 15.276 37.1016 15.048 36.3036 14.592C35.5183 14.1233 34.8913 13.49 34.4226 12.692C33.9666 11.894 33.7386 10.9947 33.7386 9.994C33.7386 8.99333 33.9476 8.10033 34.3656 7.315C34.7963 6.517 35.379 5.89 36.1136 5.434C36.8483 4.96533 37.678 4.731 38.6026 4.731C39.35 4.731 40.0403 4.88933 40.6736 5.206C41.307 5.51 41.839 5.928 42.2696 6.46V1.33C42.2696 1.03866 42.3583 0.80433 42.5356 0.626997C42.7256 0.449663 42.96 0.360997 43.2386 0.360997C43.53 0.360997 43.7643 0.449663 43.9416 0.626997C44.119 0.80433 44.2076 1.03866 44.2076 1.33V9.994C44.2076 10.9947 43.9733 11.894 43.5046 12.692C43.0486 13.49 42.428 14.1233 41.6426 14.592C40.8573 15.048 39.9706 15.276 38.9826 15.276ZM38.9826 13.566C39.6286 13.566 40.205 13.414 40.7116 13.11C41.2183 12.7933 41.6173 12.3627 41.9086 11.818C42.2 11.2733 42.3456 10.6653 42.3456 9.994C42.3456 9.31 42.2 8.702 41.9086 8.17C41.6173 7.638 41.2183 7.22 40.7116 6.916C40.205 6.59933 39.6286 6.441 38.9826 6.441C38.3493 6.441 37.773 6.59933 37.2536 6.916C36.747 7.22 36.3416 7.638 36.0376 8.17C35.7463 8.702 35.6006 9.31 35.6006 9.994C35.6006 10.6653 35.7463 11.2733 36.0376 11.818C36.3416 12.3627 36.747 12.7933 37.2536 13.11C37.773 13.414 38.3493 13.566 38.9826 13.566ZM51.487 15.276C50.5624 15.276 49.7327 15.048 48.998 14.592C48.2634 14.1233 47.6807 13.4963 47.25 12.711C46.832 11.913 46.623 11.0137 46.623 10.013C46.623 9.01233 46.851 8.113 47.307 7.315C47.7757 6.517 48.4027 5.89 49.188 5.434C49.986 4.96533 50.879 4.731 51.867 4.731C52.855 4.731 53.7417 4.96533 54.527 5.434C55.3124 5.89 55.933 6.517 56.389 7.315C56.8577 8.113 57.092 9.01233 57.092 10.013H56.351C56.351 11.0137 56.1357 11.913 55.705 12.711C55.287 13.4963 54.7107 14.1233 53.976 14.592C53.2414 15.048 52.4117 15.276 51.487 15.276ZM51.867 13.566C52.513 13.566 53.0894 13.414 53.596 13.11C54.1027 12.7933 54.5017 12.369 54.793 11.837C55.0844 11.2923 55.23 10.6843 55.23 10.013C55.23 9.329 55.0844 8.721 54.793 8.189C54.5017 7.64433 54.1027 7.22 53.596 6.916C53.0894 6.59933 52.513 6.441 51.867 6.441C51.2337 6.441 50.6574 6.59933 50.138 6.916C49.6314 7.22 49.226 7.64433 48.922 8.189C48.6307 8.721 48.485 9.329 48.485 10.013C48.485 10.6843 48.6307 11.2923 48.922 11.837C49.226 12.369 49.6314 12.7933 50.138 13.11C50.6574 13.414 51.2337 13.566 51.867 13.566ZM56.123 15.219C55.8444 15.219 55.61 15.1303 55.42 14.953C55.2427 14.763 55.154 14.5287 55.154 14.25V11.343L55.515 9.329L57.092 10.013V14.25C57.092 14.5287 56.997 14.763 56.807 14.953C56.6297 15.1303 56.4017 15.219 56.123 15.219Z" fill="white"/>
<path d="M3.28669 14.592L3.17912 14.7606L3.18122 14.7619L3.28669 14.592ZM1.53869 12.711L1.36149 12.8038L1.36333 12.8072L1.53869 12.711ZM1.59569 7.315L1.42322 7.21371L1.42204 7.21577L1.59569 7.315ZM3.47669 5.434L3.57712 5.60696L3.57798 5.60645L3.47669 5.434ZM8.81569 5.434L8.71319 5.60575L8.71527 5.60695L8.81569 5.434ZM10.6777 7.315L10.504 7.41423L10.5052 7.41628L10.6777 7.315ZM11.3807 10.013V10.213H11.5807V10.013H11.3807ZM10.6397 10.013V9.813H10.4397V10.013H10.6397ZM9.99369 12.711L9.81769 12.616L9.81714 12.617L9.99369 12.711ZM8.26469 14.592L8.37017 14.7619L8.37226 14.7606L8.26469 14.592ZM7.88469 13.11L7.98761 13.2815L7.99069 13.2796L7.88469 13.11ZM9.08169 11.837L9.25712 11.9331L9.25805 11.9313L9.08169 11.837ZM9.08169 8.189L8.90533 8.28333L8.90627 8.28506L9.08169 8.189ZM7.88469 6.916L7.77868 7.08562L7.78179 7.0875L7.88469 6.916ZM4.42669 6.916L4.52959 7.0875L4.53081 7.08676L4.42669 6.916ZM3.21069 8.189L3.03605 8.09152L3.03527 8.09293L3.21069 8.189ZM3.21069 11.837L3.03427 11.9314L3.03704 11.9362L3.21069 11.837ZM4.42669 13.11L4.32065 13.2797L4.32566 13.2826L4.42669 13.11ZM9.70869 14.953L9.56213 15.0898L9.57223 15.0992L9.70869 14.953ZM9.44269 11.343L9.24583 11.3077L9.24269 11.3252V11.343H9.44269ZM9.80369 9.329L9.88328 9.14551L9.65142 9.04495L9.60683 9.29371L9.80369 9.329ZM11.3807 10.013H11.5807V9.88174L11.4603 9.82951L11.3807 10.013ZM11.0957 14.953L11.2371 15.0944L11.2371 15.0944L11.0957 14.953ZM5.77569 15.076C4.8856 15.076 4.09295 14.857 3.39216 14.4221L3.18122 14.7619C3.94977 15.239 4.81645 15.476 5.77569 15.476V15.076ZM3.39426 14.4234C2.68872 13.9733 2.12903 13.3716 1.71405 12.6148L1.36333 12.8072C1.80968 13.6211 2.41533 14.2734 3.17913 14.7606L3.39426 14.4234ZM1.71586 12.6182C1.31446 11.8519 1.11169 10.985 1.11169 10.013H0.711692C0.711692 11.0423 0.926925 11.9741 1.36153 12.8038L1.71586 12.6182ZM1.11169 10.013C1.11169 9.04396 1.33212 8.17936 1.76934 7.41422L1.42204 7.21577C0.947264 8.04663 0.711692 8.9807 0.711692 10.013H1.11169ZM1.76815 7.41628C2.21973 6.64738 2.82216 6.04532 3.57712 5.60695L3.37627 5.26104C2.56056 5.73467 1.90899 6.38661 1.42324 7.21371L1.76815 7.41628ZM3.57798 5.60645C4.34319 5.15705 5.20081 4.931 6.15569 4.931V4.531C5.13458 4.531 4.2062 4.77361 3.37541 5.26154L3.57798 5.60645ZM6.15569 4.931C7.11061 4.931 7.96134 5.15705 8.7132 5.60574L8.91818 5.26225C8.09938 4.77361 7.17678 4.531 6.15569 4.531V4.931ZM8.71527 5.60695C9.46974 6.04503 10.0653 6.64643 10.504 7.41422L10.8513 7.21577C10.3781 6.38756 9.73231 5.73496 8.91612 5.26104L8.71527 5.60695ZM10.5052 7.41628C10.9544 8.18109 11.1807 9.04495 11.1807 10.013H11.5807C11.5807 8.97971 11.3383 8.0449 10.8502 7.21371L10.5052 7.41628ZM11.3807 9.813H10.6397V10.213H11.3807V9.813ZM10.4397 10.013C10.4397 10.984 10.231 11.8501 9.81769 12.616L10.1697 12.806C10.6177 11.9759 10.8397 11.0433 10.8397 10.013H10.4397ZM9.81714 12.617C9.41497 13.3726 8.86213 13.9736 8.15713 14.4234L8.37226 14.7606C9.13659 14.273 9.73641 13.62 10.1702 12.805L9.81714 12.617ZM8.15922 14.4221C7.45844 14.857 6.66578 15.076 5.77569 15.076V15.476C6.73494 15.476 7.60162 15.239 8.37017 14.7619L8.15922 14.4221ZM6.15569 13.766C6.83445 13.766 7.44698 13.6059 7.98759 13.2815L7.78179 12.9385C7.30907 13.2221 6.76894 13.366 6.15569 13.366V13.766ZM7.99069 13.2796C8.52687 12.9445 8.94958 12.4946 9.25711 11.9331L8.90627 11.7409C8.63114 12.2434 8.25584 12.6422 7.77869 12.9404L7.99069 13.2796ZM9.25805 11.9313C9.56623 11.3552 9.71869 10.7143 9.71869 10.013H9.31869C9.31869 10.6543 9.17982 11.2295 8.90534 11.7427L9.25805 11.9313ZM9.71869 10.013C9.71869 9.29977 9.56654 8.65798 9.25711 8.09293L8.90627 8.28506C9.17951 8.78401 9.31869 9.35822 9.31869 10.013H9.71869ZM9.25805 8.09467C8.95047 7.51962 8.52671 7.06797 7.98759 6.7445L7.78179 7.0875C8.25601 7.37202 8.63025 7.76904 8.90534 8.28333L9.25805 8.09467ZM7.99069 6.7464C7.44966 6.40825 6.83601 6.241 6.15569 6.241V6.641C6.76737 6.641 7.30639 6.79041 7.77869 7.0856L7.99069 6.7464ZM6.15569 6.241C5.48721 6.241 4.87459 6.40864 4.32257 6.74524L4.53081 7.08676C5.01746 6.79002 5.55751 6.641 6.15569 6.641V6.241ZM4.32379 6.7445C3.78547 7.06749 3.3561 7.5181 3.03605 8.09152L3.38533 8.28647C3.67328 7.77056 4.05458 7.3725 4.52959 7.0875L4.32379 6.7445ZM3.03527 8.09293C2.72584 8.65798 2.57369 9.29977 2.57369 10.013H2.97369C2.97369 9.35822 3.11287 8.78401 3.38611 8.28506L3.03527 8.09293ZM2.57369 10.013C2.57369 10.7143 2.72616 11.3552 3.03434 11.9313L3.38705 11.7427C3.11256 11.2295 2.97369 10.6543 2.97369 10.013H2.57369ZM3.03704 11.9362C3.357 12.4961 3.78528 12.945 4.32069 13.2796L4.53269 12.9404C4.05478 12.6417 3.67239 12.2418 3.38434 11.7378L3.03704 11.9362ZM4.32566 13.2826C4.87727 13.6055 5.48878 13.766 6.15569 13.766V13.366C5.55593 13.366 5.01478 13.2225 4.52773 12.9374L4.32566 13.2826ZM10.4117 15.019C10.1797 15.019 9.99529 14.9469 9.84516 14.8068L9.57223 15.0992C9.80209 15.3137 10.0864 15.419 10.4117 15.419V15.019ZM9.8549 14.8165C9.71478 14.6664 9.64269 14.482 9.64269 14.25H9.24269C9.24269 14.5753 9.34794 14.8596 9.56248 15.0895L9.8549 14.8165ZM9.64269 14.25V11.343H9.24269V14.25H9.64269ZM9.63956 11.3783L10.0006 9.36428L9.60683 9.29371L9.24583 11.3077L9.63956 11.3783ZM9.72411 9.51248L11.3011 10.1965L11.4603 9.82951L9.88328 9.14551L9.72411 9.51248ZM11.1807 10.013V14.25H11.5807V10.013H11.1807ZM11.1807 14.25C11.1807 14.4778 11.1052 14.6606 10.9543 14.8116L11.2371 15.0944C11.4661 14.8654 11.5807 14.5795 11.5807 14.25H11.1807ZM10.9543 14.8116C10.8188 14.9471 10.6438 15.019 10.4117 15.019V15.419C10.7369 15.419 11.0179 15.3136 11.2371 15.0944L10.9543 14.8116ZM15.804 14.744L15.7068 14.9189L15.7107 14.9209L15.804 14.744ZM14.17 13.091L13.9943 13.1866L13.9956 13.1889L14.17 13.091ZM13.847 5.073L13.7056 4.93157L13.7056 4.93157L13.847 5.073ZM15.234 5.073L15.0874 5.20978L15.0975 5.21921L15.234 5.073ZM15.918 12.198L15.744 12.2967L15.7452 12.2988L15.918 12.198ZM17.001 13.224L16.9115 13.4029L16.9156 13.4048L17.001 13.224ZM19.984 13.224L19.8945 13.0451L19.8924 13.0462L19.984 13.224ZM21.01 12.35L21.1746 12.4635L21.1746 12.4635L21.01 12.35ZM21.39 11.115V10.915H21.19V11.115H21.39ZM22.587 11.115H22.787V10.915H22.587V11.115ZM21.998 13.243L21.828 13.1376L21.8265 13.1401L21.998 13.243ZM20.421 14.744L20.325 14.5685L20.3236 14.5693L20.421 14.744ZM21.656 14.934L21.5094 15.0708L21.5195 15.0802L21.656 14.934ZM21.656 5.054L21.5194 4.9077L21.5146 4.91257L21.656 5.054ZM23.062 14.934L23.2035 15.0755L23.2082 15.0705L23.062 14.934ZM18.16 15.095C17.3149 15.095 16.5621 14.9176 15.8973 14.5671L15.7107 14.9209C16.4392 15.305 17.2571 15.495 18.16 15.495V15.095ZM15.9011 14.5692C15.2514 14.2082 14.7327 13.6848 14.3444 12.9931L13.9956 13.1889C14.418 13.9412 14.9886 14.5198 15.7069 14.9188L15.9011 14.5692ZM14.3457 12.9954C13.9728 12.3098 13.781 11.458 13.781 10.431H13.381C13.381 11.5066 13.5818 12.4282 13.9943 13.1866L14.3457 12.9954ZM13.781 10.431V5.757H13.381V10.431H13.781ZM13.781 5.757C13.781 5.52491 13.8529 5.34991 13.9884 5.21442L13.7056 4.93157C13.4864 5.15075 13.381 5.43175 13.381 5.757H13.781ZM13.9884 5.21442C14.1394 5.06345 14.3222 4.988 14.55 4.988V4.588C14.2205 4.588 13.9346 4.70254 13.7056 4.93157L13.9884 5.21442ZM14.55 4.988C14.7777 4.988 14.9512 5.06315 15.0878 5.20946L15.3802 4.93653C15.1621 4.70284 14.8796 4.588 14.55 4.588V4.988ZM15.0975 5.21921C15.2438 5.35576 15.319 5.52929 15.319 5.757H15.719C15.719 5.42737 15.6041 5.1449 15.3704 4.92678L15.0975 5.21921ZM15.319 5.757V10.431H15.719V5.757H15.319ZM15.319 10.431C15.319 11.1643 15.4564 11.7899 15.744 12.2967L16.0919 12.0993C15.8476 11.6688 15.719 11.1163 15.719 10.431H15.319ZM15.7452 12.2988C16.0301 12.7871 16.4195 13.1569 16.9115 13.4029L17.0904 13.0451C16.6705 12.8351 16.3379 12.5209 16.0907 12.0972L15.7452 12.2988ZM16.9156 13.4048C17.4016 13.6343 17.9443 13.747 18.54 13.747V13.347C17.9957 13.347 17.5124 13.2443 17.0864 13.0431L16.9156 13.4048ZM18.54 13.747C19.1115 13.747 19.6251 13.6339 20.0756 13.4018L19.8924 13.0462C19.5069 13.2448 19.0578 13.347 18.54 13.347V13.747ZM20.0734 13.4029C20.5318 13.1737 20.9006 12.8608 21.1746 12.4635L20.8453 12.2365C20.6127 12.5738 20.2975 12.8436 19.8945 13.0451L20.0734 13.4029ZM21.1746 12.4635C21.4515 12.062 21.59 11.6106 21.59 11.115H21.19C21.19 11.5314 21.0751 11.9033 20.8453 12.2365L21.1746 12.4635ZM21.39 11.315H22.587V10.915H21.39V11.315ZM22.387 11.115C22.387 11.8652 22.2 12.5377 21.828 13.1376L22.168 13.3484C22.5813 12.6817 22.787 11.9355 22.787 11.115H22.387ZM21.8265 13.1401C21.4654 13.7418 20.9663 14.2176 20.325 14.5685L20.517 14.9194C21.2183 14.5357 21.7705 14.0108 22.1695 13.3459L21.8265 13.1401ZM20.3236 14.5693C19.6983 14.9181 18.9789 15.095 18.16 15.095V15.495C19.0384 15.495 19.8264 15.3046 20.5184 14.9187L20.3236 14.5693ZM22.359 15C22.127 15 21.9426 14.9279 21.7924 14.7878L21.5195 15.0802C21.7494 15.2947 22.0337 15.4 22.359 15.4V15ZM21.8022 14.7975C21.6621 14.6474 21.59 14.463 21.59 14.231H21.19C21.19 14.5563 21.2952 14.8406 21.5098 15.0705L21.8022 14.7975ZM21.59 14.231V5.757H21.19V14.231H21.59ZM21.59 5.757C21.59 5.50943 21.6637 5.32916 21.7974 5.19542L21.5146 4.91257C21.2936 5.1335 21.19 5.42189 21.19 5.757H21.59ZM21.7924 5.20021C21.9426 5.06008 22.127 4.988 22.359 4.988V4.588C22.0337 4.588 21.7494 4.69325 21.5195 4.90778L21.7924 5.20021ZM22.359 4.988C22.6065 4.988 22.7868 5.06168 22.9206 5.19542L23.2034 4.91257C22.9825 4.69165 22.6941 4.588 22.359 4.588V4.988ZM22.9206 5.19542C23.0543 5.32916 23.128 5.50943 23.128 5.757H23.528C23.528 5.42189 23.4243 5.1335 23.2034 4.91257L22.9206 5.19542ZM23.128 5.757V14.231H23.528V5.757H23.128ZM23.128 14.231C23.128 14.463 23.0559 14.6474 22.9158 14.7975L23.2082 15.0705C23.4227 14.8406 23.528 14.5563 23.528 14.231H23.128ZM22.9206 14.7926C22.7868 14.9263 22.6065 15 22.359 15V15.4C22.6941 15.4 22.9825 15.2963 23.2034 15.0754L22.9206 14.7926ZM27.1972 8.702H26.9972V8.902H27.1972V8.702ZM27.7482 6.669L27.5786 6.56299L27.5779 6.56397L27.7482 6.669ZM29.2682 5.225L29.1704 5.0505L29.1704 5.0505L29.2682 5.225ZM33.0492 5.073L32.9355 5.23777L32.9421 5.24196L33.0492 5.073ZM33.4862 5.947L33.2924 5.89676L33.2906 5.90509L33.4862 5.947ZM33.2582 6.365L33.3899 6.51552L33.391 6.51448L33.2582 6.365ZM32.8972 6.536L32.8614 6.33922L32.8614 6.33922L32.8972 6.536ZM32.4412 6.517L32.4861 6.32205L32.481 6.321L32.4412 6.517ZM28.7172 7.258L28.5757 7.11656L28.5734 7.11899L28.7172 7.258ZM28.1662 8.702V8.902H28.3662V8.702H28.1662ZM26.5132 14.972L26.3716 15.1135L26.3775 15.119L26.5132 14.972ZM26.5132 5.054L26.6546 5.19542L26.6546 5.19542L26.5132 5.054ZM27.9192 5.054L27.7722 5.18965L27.7776 5.19553L27.7835 5.20096L27.9192 5.054ZM27.9192 14.953L27.7776 14.8115L27.7722 14.8173L27.9192 14.953ZM27.3972 8.702C27.3972 7.97576 27.5722 7.33507 27.9184 6.77402L27.5779 6.56397C27.1895 7.19359 26.9972 7.90823 26.9972 8.702H27.3972ZM27.9178 6.775C28.2797 6.19588 28.7615 5.73795 29.3659 5.3995L29.1704 5.0505C28.5081 5.42138 27.9766 5.92612 27.5786 6.563L27.9178 6.775ZM29.3659 5.3995C29.9679 5.06235 30.6307 4.893 31.3582 4.893V4.493C30.5656 4.493 29.835 4.67831 29.1704 5.0505L29.3659 5.3995ZM31.3582 4.893C32.1031 4.893 32.6178 5.01847 32.9356 5.23764L33.1627 4.90835C32.7458 4.62085 32.1332 4.493 31.3582 4.493V4.893ZM32.9421 5.24196C33.1126 5.34993 33.213 5.45845 33.2645 5.56144C33.3138 5.66007 33.3259 5.76831 33.2926 5.8968L33.6798 5.99719C33.7351 5.78368 33.7186 5.57526 33.6223 5.38255C33.5281 5.19421 33.3657 5.03673 33.1562 4.90403L32.9421 5.24196ZM33.2906 5.90509C33.2598 6.0489 33.2018 6.1475 33.1253 6.21551L33.391 6.51448C33.5425 6.37983 33.6365 6.19976 33.6817 5.9889L33.2906 5.90509ZM33.1265 6.21448C33.0538 6.27809 32.9671 6.32001 32.8614 6.33922L32.9329 6.73277C33.1059 6.70132 33.2599 6.62924 33.3899 6.51551L33.1265 6.21448ZM32.8614 6.33922C32.7535 6.35884 32.6293 6.35516 32.4861 6.32212L32.3962 6.71187C32.5823 6.75483 32.7622 6.76382 32.9329 6.73277L32.8614 6.33922ZM32.481 6.321C31.6498 6.15217 30.8929 6.13707 30.214 6.28349L30.2983 6.6745C30.9114 6.54226 31.6111 6.55249 32.4013 6.71299L32.481 6.321ZM30.214 6.28349C29.5391 6.42907 28.9886 6.70372 28.5757 7.11658L28.8586 7.39942C29.2057 7.05227 29.6812 6.80759 30.2983 6.6745L30.214 6.28349ZM28.5734 7.11899C28.1661 7.54026 27.9662 8.07326 27.9662 8.702H28.3662C28.3662 8.1654 28.5335 7.73573 28.861 7.397L28.5734 7.11899ZM28.1662 8.502H27.1972V8.902H28.1662V8.502ZM27.2162 15C26.9442 15 26.765 14.9323 26.6488 14.825L26.3775 15.119C26.5906 15.3157 26.8801 15.4 27.2162 15.4V15ZM26.6546 14.8306C26.5393 14.7153 26.4662 14.5332 26.4662 14.25H26.0662C26.0662 14.6001 26.1577 14.8994 26.3717 15.1134L26.6546 14.8306ZM26.4662 14.25V5.757H26.0662V14.25H26.4662ZM26.4662 5.757C26.4662 5.48918 26.5379 5.31213 26.6546 5.19542L26.3717 4.91257C26.1591 5.12519 26.0662 5.41682 26.0662 5.757H26.4662ZM26.6546 5.19542C26.7713 5.0787 26.9483 5.007 27.2162 5.007V4.607C26.876 4.607 26.5843 4.69996 26.3717 4.91257L26.6546 5.19542ZM27.2162 5.007C27.5006 5.007 27.6715 5.08062 27.7722 5.18965L28.0661 4.91834C27.8628 4.69804 27.565 4.607 27.2162 4.607V5.007ZM27.7835 5.20096C27.8925 5.3016 27.9662 5.47253 27.9662 5.757H28.3662C28.3662 5.40813 28.2751 5.11039 28.0548 4.90704L27.7835 5.20096ZM27.9662 5.757V14.25H28.3662V5.757H27.9662ZM27.9662 14.25C27.9662 14.5178 27.8944 14.6949 27.7777 14.8116L28.0606 15.0944C28.2732 14.8818 28.3662 14.5902 28.3662 14.25H27.9662ZM27.7722 14.8173C27.6715 14.9264 27.5006 15 27.2162 15V15.4C27.565 15.4 27.8628 15.309 28.0661 15.0887L27.7722 14.8173ZM36.3036 14.592L36.2011 14.7638L36.2044 14.7656L36.3036 14.592ZM34.4226 12.692L34.249 12.7912L34.2502 12.7933L34.4226 12.692ZM34.3656 7.315L34.1896 7.22001L34.1891 7.22103L34.3656 7.315ZM36.1136 5.434L36.2191 5.60394L36.2212 5.60261L36.1136 5.434ZM40.6736 5.206L40.5842 5.38491L40.5871 5.3863L40.6736 5.206ZM42.2696 6.46L42.1142 6.58584L42.4696 7.02492V6.46H42.2696ZM42.5356 0.626997L42.3991 0.480699L42.3942 0.485575L42.5356 0.626997ZM43.5046 12.692L43.3322 12.5907L43.331 12.5928L43.5046 12.692ZM41.6426 14.592L41.7431 14.765L41.7451 14.7637L41.6426 14.592ZM40.7116 13.11L40.8146 13.2815L40.8176 13.2796L40.7116 13.11ZM41.9086 11.818L41.7323 11.7237L41.7323 11.7237L41.9086 11.818ZM41.9086 8.17L41.7332 8.26606L41.7332 8.26606L41.9086 8.17ZM40.7116 6.916L40.6056 7.08562L40.6087 7.0875L40.7116 6.916ZM37.2536 6.916L37.3565 7.0875L37.3578 7.08676L37.2536 6.916ZM36.0376 8.17L35.864 8.07075L35.8622 8.07393L36.0376 8.17ZM36.0376 11.818L35.8613 11.9123L35.863 11.9155L36.0376 11.818ZM37.2536 13.11L37.1476 13.2797L37.1526 13.2826L37.2536 13.11ZM38.9826 15.076C38.0268 15.076 37.1684 14.8558 36.4029 14.4183L36.2044 14.7656C37.0349 15.2402 37.9625 15.476 38.9826 15.476V15.076ZM36.4061 14.4203C35.65 13.969 35.047 13.3601 34.5951 12.5907L34.2502 12.7933C34.7357 13.6199 35.3866 14.2776 36.2012 14.7637L36.4061 14.4203ZM34.5963 12.5928C34.1591 11.8276 33.9386 10.963 33.9386 9.994H33.5386C33.5386 11.0263 33.7742 11.9604 34.249 12.7912L34.5963 12.5928ZM33.9386 9.994C33.9386 9.02196 34.1414 8.16192 34.5422 7.40897L34.1891 7.22103C33.7539 8.03874 33.5386 8.9647 33.5386 9.994H33.9386ZM34.5416 7.40998C34.9566 6.64113 35.5156 6.04061 36.2191 5.60393L36.0082 5.26407C35.2424 5.73938 34.636 6.39286 34.1896 7.22001L34.5416 7.40998ZM36.2212 5.60261C36.9217 5.15571 37.7137 4.931 38.6026 4.931V4.531C37.6423 4.531 36.7749 4.77495 36.0061 5.26538L36.2212 5.60261ZM38.6026 4.931C39.3207 4.931 39.9802 5.08287 40.5842 5.38488L40.7631 5.02711C40.1004 4.69579 39.3793 4.531 38.6026 4.531V4.931ZM40.5871 5.3863C41.1944 5.67782 41.7027 6.07749 42.1142 6.58584L42.4251 6.33416C41.9753 5.7785 41.4195 5.34217 40.7602 5.02569L40.5871 5.3863ZM42.4696 6.46V1.33H42.0696V6.46H42.4696ZM42.4696 1.33C42.4696 1.08243 42.5433 0.90216 42.6771 0.768418L42.3942 0.485575C42.1733 0.706499 42.0696 0.994892 42.0696 1.33H42.4696ZM42.6721 0.773208C42.8222 0.633079 43.0066 0.560997 43.2386 0.560997V0.160997C42.9133 0.160997 42.629 0.266248 42.3992 0.480786L42.6721 0.773208ZM43.2386 0.560997C43.4862 0.560997 43.6665 0.634675 43.8002 0.768418L44.0831 0.485575C43.8621 0.264651 43.5737 0.160997 43.2386 0.160997V0.560997ZM43.8002 0.768418C43.934 0.90216 44.0076 1.08243 44.0076 1.33H44.4076C44.4076 0.994892 44.304 0.706499 44.0831 0.485575L43.8002 0.768418ZM44.0076 1.33V9.994H44.4076V1.33H44.0076ZM44.0076 9.994C44.0076 10.962 43.7814 11.8259 43.3322 12.5907L43.6771 12.7933C44.1653 11.9621 44.4076 11.0273 44.4076 9.994H44.0076ZM43.331 12.5928C42.892 13.361 42.2958 13.9693 41.5402 14.4203L41.7451 14.7637C42.5602 14.2773 43.2053 13.619 43.6783 12.7912L43.331 12.5928ZM41.5422 14.419C40.79 14.8558 39.9386 15.076 38.9826 15.076V15.476C40.0027 15.476 40.9246 15.2402 41.7431 14.765L41.5422 14.419ZM38.9826 13.766C39.6614 13.766 40.2739 13.6059 40.8145 13.2815L40.6087 12.9385C40.136 13.2221 39.5959 13.366 38.9826 13.366V13.766ZM40.8176 13.2796C41.355 12.9438 41.7778 12.4867 42.085 11.9123L41.7323 11.7237C41.4568 12.2386 41.0817 12.6429 40.6056 12.9404L40.8176 13.2796ZM42.085 11.9123C42.3932 11.3362 42.5456 10.6953 42.5456 9.994H42.1456C42.1456 10.6353 42.0068 11.2105 41.7323 11.7237L42.085 11.9123ZM42.5456 9.994C42.5456 9.28077 42.3935 8.63898 42.0841 8.07393L41.7332 8.26606C42.0065 8.76501 42.1456 9.33922 42.1456 9.994H42.5456ZM42.0841 8.07393C41.7762 7.51166 41.3525 7.06726 40.8145 6.7445L40.6087 7.0875C41.0841 7.37273 41.4585 7.76433 41.7332 8.26606L42.0841 8.07393ZM40.8176 6.7464C40.2766 6.40825 39.663 6.241 38.9826 6.241V6.641C39.5943 6.641 40.1333 6.79041 40.6056 7.0856L40.8176 6.7464ZM38.9826 6.241C38.3142 6.241 37.7015 6.40864 37.1495 6.74524L37.3578 7.08676C37.8444 6.79002 38.3845 6.641 38.9826 6.641V6.241ZM37.1507 6.7445C36.6136 7.0668 36.1843 7.51016 35.864 8.07077L36.2113 8.26922C36.4989 7.76583 36.8804 7.3732 37.3565 7.0875L37.1507 6.7445ZM35.8622 8.07393C35.5528 8.63898 35.4006 9.28077 35.4006 9.994H35.8006C35.8006 9.33922 35.9398 8.76501 36.2131 8.26606L35.8622 8.07393ZM35.4006 9.994C35.4006 10.6953 35.5531 11.3362 35.8613 11.9123L36.214 11.7237C35.9395 11.2105 35.8006 10.6353 35.8006 9.994H35.4006ZM35.863 11.9155C36.1827 12.4882 36.6111 12.9443 37.1476 13.2796L37.3596 12.9404C36.8828 12.6424 36.5006 12.2371 36.2123 11.7205L35.863 11.9155ZM37.1526 13.2826C37.7042 13.6055 38.3157 13.766 38.9826 13.766V13.366C38.3829 13.366 37.8417 13.2225 37.3547 12.9374L37.1526 13.2826ZM48.998 14.592L48.8904 14.7606L48.8925 14.7619L48.998 14.592ZM47.25 12.711L47.0728 12.8038L47.0747 12.8072L47.25 12.711ZM47.307 7.315L47.1346 7.21371L47.1334 7.21577L47.307 7.315ZM49.188 5.434L49.2884 5.60696L49.2893 5.60645L49.188 5.434ZM54.527 5.434L54.4245 5.60575L54.4266 5.60695L54.527 5.434ZM56.389 7.315L56.2154 7.41423L56.2166 7.41628L56.389 7.315ZM57.092 10.013V10.213H57.292V10.013H57.092ZM56.351 10.013V9.813H56.151V10.013H56.351ZM55.705 12.711L55.529 12.616L55.5285 12.617L55.705 12.711ZM53.976 14.592L54.0815 14.7619L54.0836 14.7606L53.976 14.592ZM53.596 13.11L53.6989 13.2815L53.702 13.2796L53.596 13.11ZM54.793 11.837L54.9684 11.9331L54.9694 11.9313L54.793 11.837ZM54.793 8.189L54.6167 8.28333L54.6176 8.28506L54.793 8.189ZM53.596 6.916L53.49 7.08562L53.4931 7.0875L53.596 6.916ZM50.138 6.916L50.2409 7.0875L50.2421 7.08676L50.138 6.916ZM48.922 8.189L48.7474 8.09152L48.7466 8.09293L48.922 8.189ZM48.922 11.837L48.7456 11.9314L48.7484 11.9362L48.922 11.837ZM50.138 13.11L50.032 13.2797L50.037 13.2826L50.138 13.11ZM55.42 14.953L55.2735 15.0898L55.2836 15.0992L55.42 14.953ZM55.154 11.343L54.9572 11.3077L54.954 11.3252V11.343H55.154ZM55.515 9.329L55.5946 9.14551L55.3627 9.04495L55.3182 9.29371L55.515 9.329ZM57.092 10.013H57.292V9.88174L57.1716 9.82951L57.092 10.013ZM56.807 14.953L56.9484 15.0944L56.9484 15.0944L56.807 14.953ZM51.487 15.076C50.5969 15.076 49.8043 14.857 49.1035 14.4221L48.8925 14.7619C49.6611 15.239 50.5278 15.476 51.487 15.476V15.076ZM49.1056 14.4234C48.4001 13.9733 47.8404 13.3716 47.4254 12.6148L47.0747 12.8072C47.521 13.6211 48.1267 14.2734 48.8905 14.7606L49.1056 14.4234ZM47.4272 12.6182C47.0258 11.8519 46.823 10.985 46.823 10.013H46.423C46.423 11.0423 46.6383 11.9741 47.0729 12.8038L47.4272 12.6182ZM46.823 10.013C46.823 9.04396 47.0434 8.17936 47.4807 7.41422L47.1334 7.21577C46.6586 8.04663 46.423 8.9807 46.423 10.013H46.823ZM47.4795 7.41628C47.9311 6.64738 48.5335 6.04532 49.2884 5.60695L49.0876 5.26104C48.2719 5.73467 47.6203 6.38661 47.1346 7.21371L47.4795 7.41628ZM49.2893 5.60645C50.0545 5.15705 50.9121 4.931 51.867 4.931V4.531C50.8459 4.531 49.9175 4.77361 49.0867 5.26154L49.2893 5.60645ZM51.867 4.931C52.8219 4.931 53.6727 5.15705 54.4245 5.60574L54.6295 5.26225C53.8107 4.77361 52.8881 4.531 51.867 4.531V4.931ZM54.4266 5.60695C55.1811 6.04503 55.7766 6.64643 56.2154 7.41422L56.5627 7.21577C56.0894 6.38756 55.4436 5.73496 54.6274 5.26104L54.4266 5.60695ZM56.2166 7.41628C56.6657 8.18109 56.892 9.04495 56.892 10.013H57.292C57.292 8.97971 57.0496 8.0449 56.5615 7.21371L56.2166 7.41628ZM57.092 9.813H56.351V10.213H57.092V9.813ZM56.151 10.013C56.151 10.984 55.9423 11.8501 55.529 12.616L55.881 12.806C56.329 11.9759 56.551 11.0433 56.551 10.013H56.151ZM55.5285 12.617C55.1263 13.3726 54.5735 13.9736 53.8685 14.4234L54.0836 14.7606C54.8479 14.273 55.4477 13.62 55.8816 12.805L55.5285 12.617ZM53.8705 14.4221C53.1698 14.857 52.3771 15.076 51.487 15.076V15.476C52.4463 15.476 53.3129 15.239 54.0815 14.7619L53.8705 14.4221ZM51.867 13.766C52.5458 13.766 53.1583 13.6059 53.6989 13.2815L53.4931 12.9385C53.0204 13.2221 52.4803 13.366 51.867 13.366V13.766ZM53.702 13.2796C54.2382 12.9445 54.6609 12.4946 54.9684 11.9331L54.6176 11.7409C54.3425 12.2434 53.9672 12.6422 53.49 12.9404L53.702 13.2796ZM54.9694 11.9313C55.2776 11.3552 55.43 10.7143 55.43 10.013H55.03C55.03 10.6543 54.8912 11.2295 54.6167 11.7427L54.9694 11.9313ZM55.43 10.013C55.43 9.29977 55.2779 8.65798 54.9684 8.09293L54.6176 8.28506C54.8908 8.78401 55.03 9.35822 55.03 10.013H55.43ZM54.9694 8.09467C54.6618 7.51962 54.238 7.06797 53.6989 6.7445L53.4931 7.0875C53.9673 7.37202 54.3416 7.76904 54.6167 8.28333L54.9694 8.09467ZM53.702 6.7464C53.161 6.40825 52.5473 6.241 51.867 6.241V6.641C52.4787 6.641 53.0177 6.79041 53.49 7.0856L53.702 6.7464ZM51.867 6.241C51.1985 6.241 50.5859 6.40864 50.0339 6.74524L50.2421 7.08676C50.7288 6.79002 51.2688 6.641 51.867 6.641V6.241ZM50.0351 6.7445C49.4968 7.06749 49.0674 7.5181 48.7474 8.09152L49.0967 8.28647C49.3846 7.77056 49.7659 7.3725 50.2409 7.0875L50.0351 6.7445ZM48.7466 8.09293C48.4372 8.65798 48.285 9.29977 48.285 10.013H48.685C48.685 9.35822 48.8242 8.78401 49.0974 8.28506L48.7466 8.09293ZM48.285 10.013C48.285 10.7143 48.4375 11.3552 48.7457 11.9313L49.0984 11.7427C48.8239 11.2295 48.685 10.6543 48.685 10.013H48.285ZM48.7484 11.9362C49.0683 12.4961 49.4966 12.945 50.032 13.2796L50.244 12.9404C49.7661 12.6417 49.3837 12.2418 49.0957 11.7378L48.7484 11.9362ZM50.037 13.2826C50.5886 13.6055 51.2001 13.766 51.867 13.766V13.366C51.2673 13.366 50.7261 13.2225 50.2391 12.9374L50.037 13.2826ZM56.123 15.019C55.891 15.019 55.7066 14.9469 55.5565 14.8068L55.2836 15.0992C55.5134 15.3137 55.7977 15.419 56.123 15.419V15.019ZM55.5662 14.8165C55.4261 14.6664 55.354 14.482 55.354 14.25H54.954C54.954 14.5753 55.0593 14.8596 55.2738 15.0895L55.5662 14.8165ZM55.354 14.25V11.343H54.954V14.25H55.354ZM55.3509 11.3783L55.7119 9.36428L55.3182 9.29371L54.9572 11.3077L55.3509 11.3783ZM55.4354 9.51248L57.0124 10.1965L57.1716 9.82951L55.5946 9.14551L55.4354 9.51248ZM56.892 10.013V14.25H57.292V10.013H56.892ZM56.892 14.25C56.892 14.4778 56.8166 14.6606 56.6656 14.8116L56.9484 15.0944C57.1775 14.8654 57.292 14.5795 57.292 14.25H56.892ZM56.6656 14.8116C56.5301 14.9471 56.3551 15.019 56.123 15.019V15.419C56.4483 15.419 56.7293 15.3136 56.9484 15.0944L56.6656 14.8116Z" fill="white" mask="url(#path-1-outside-1_8_2)"/>
</svg>
