<svg width="158" height="28" viewBox="0 0 158 28" fill="none" xmlns="http://www.w3.org/2000/svg">
<path d="M15.9587 14.6958C17.303 12.2346 16.4139 9.12028 13.9729 7.73972C11.5319 6.35916 8.46331 7.23519 7.11907 9.69638L2.43397 18.2744C1.08973 20.7356 1.97883 23.85 4.41984 25.2305C6.86084 26.6111 9.92939 25.7351 11.2736 23.2739L15.9587 14.6958Z" fill="#111111"/>
<path d="M33.5803 9.45585C34.9245 6.99465 34.0354 3.88029 31.5944 2.49973C29.1534 1.11917 26.0849 1.9952 24.7406 4.45639L17.3261 18.0318C15.9818 20.493 16.8709 23.6074 19.3119 24.9879C21.7529 26.3685 24.8215 25.4925 26.1657 23.0313L33.5803 9.45585Z" fill="#111111"/>
<path opacity="0.5" d="M42.426 23.2755C43.7702 20.8143 42.8811 17.7 40.4401 16.3194C37.9991 14.9389 34.9306 15.8149 33.5863 18.2761L33.5413 18.3586C32.197 20.8198 33.0861 23.9341 35.5271 25.3147C37.9681 26.6953 41.0367 25.8192 42.3809 23.358L42.426 23.2755Z" fill="#111111"/>
<mask id="path-4-outside-1_1_14" maskUnits="userSpaceOnUse" x="51" y="6" width="106" height="17" fill="black">
<rect fill="white" x="51" y="6" width="106" height="17"/>
<path d="M56.9511 22.076C55.9631 22.076 55.0701 21.848 54.2721 21.392C53.4868 20.9233 52.8598 20.29 52.3911 19.492C51.9351 18.694 51.7071 17.7947 51.7071 16.794C51.7071 15.7933 51.9161 14.9003 52.3341 14.115C52.7648 13.317 53.3474 12.69 54.0821 12.234C54.8168 11.7653 55.6464 11.531 56.5711 11.531C57.3184 11.531 58.0088 11.6893 58.6421 12.006C59.2754 12.31 59.8074 12.728 60.2381 13.26V8.13C60.2381 7.83867 60.3268 7.60433 60.5041 7.427C60.6941 7.24967 60.9284 7.161 61.2071 7.161C61.4984 7.161 61.7328 7.24967 61.9101 7.427C62.0874 7.60433 62.1761 7.83867 62.1761 8.13V16.794C62.1761 17.7947 61.9418 18.694 61.4731 19.492C61.0171 20.29 60.3964 20.9233 59.6111 21.392C58.8258 21.848 57.9391 22.076 56.9511 22.076ZM56.9511 20.366C57.5971 20.366 58.1734 20.214 58.6801 19.91C59.1868 19.5933 59.5858 19.1627 59.8771 18.618C60.1684 18.0733 60.3141 17.4653 60.3141 16.794C60.3141 16.11 60.1684 15.502 59.8771 14.97C59.5858 14.438 59.1868 14.02 58.6801 13.716C58.1734 13.3993 57.5971 13.241 56.9511 13.241C56.3178 13.241 55.7414 13.3993 55.2221 13.716C54.7154 14.02 54.3101 14.438 54.0061 14.97C53.7148 15.502 53.5691 16.11 53.5691 16.794C53.5691 17.4653 53.7148 18.0733 54.0061 18.618C54.3101 19.1627 54.7154 19.5933 55.2221 19.91C55.7414 20.214 56.3178 20.366 56.9511 20.366ZM69.4555 22.076C68.5308 22.076 67.7011 21.848 66.9665 21.392C66.2318 20.9233 65.6491 20.2963 65.2185 19.511C64.8005 18.713 64.5915 17.8137 64.5915 16.813C64.5915 15.8123 64.8195 14.913 65.2755 14.115C65.7441 13.317 66.3711 12.69 67.1565 12.234C67.9545 11.7653 68.8475 11.531 69.8355 11.531C70.8235 11.531 71.7101 11.7653 72.4955 12.234C73.2808 12.69 73.9015 13.317 74.3575 14.115C74.8261 14.913 75.0605 15.8123 75.0605 16.813H74.3195C74.3195 17.8137 74.1041 18.713 73.6735 19.511C73.2555 20.2963 72.6791 20.9233 71.9445 21.392C71.2098 21.848 70.3801 22.076 69.4555 22.076ZM69.8355 20.366C70.4815 20.366 71.0578 20.214 71.5645 19.91C72.0711 19.5933 72.4701 19.169 72.7615 18.637C73.0528 18.0923 73.1985 17.4843 73.1985 16.813C73.1985 16.129 73.0528 15.521 72.7615 14.989C72.4701 14.4443 72.0711 14.02 71.5645 13.716C71.0578 13.3993 70.4815 13.241 69.8355 13.241C69.2021 13.241 68.6258 13.3993 68.1065 13.716C67.5998 14.02 67.1945 14.4443 66.8905 14.989C66.5991 15.521 66.4535 16.129 66.4535 16.813C66.4535 17.4843 66.5991 18.0923 66.8905 18.637C67.1945 19.169 67.5998 19.5933 68.1065 19.91C68.6258 20.214 69.2021 20.366 69.8355 20.366ZM74.0915 22.019C73.8128 22.019 73.5785 21.9303 73.3885 21.753C73.2111 21.563 73.1225 21.3287 73.1225 21.05V18.143L73.4835 16.129L75.0605 16.813V21.05C75.0605 21.3287 74.9655 21.563 74.7755 21.753C74.5981 21.9303 74.3701 22.019 74.0915 22.019ZM81.2508 22.076C80.3641 22.076 79.5408 21.943 78.7808 21.677C78.0334 21.3983 77.4508 21.05 77.0328 20.632C76.8428 20.4293 76.7604 20.2013 76.7858 19.948C76.8238 19.682 76.9504 19.4667 77.1658 19.302C77.4191 19.0993 77.6661 19.017 77.9068 19.055C78.1601 19.0803 78.3754 19.188 78.5528 19.378C78.7681 19.6187 79.1101 19.8467 79.5788 20.062C80.0601 20.2647 80.5921 20.366 81.1748 20.366C81.9094 20.366 82.4668 20.2457 82.8468 20.005C83.2394 19.7643 83.4421 19.454 83.4548 19.074C83.4674 18.694 83.2838 18.3647 82.9038 18.086C82.5364 17.8073 81.8588 17.5793 80.8708 17.402C79.5914 17.1487 78.6604 16.7687 78.0778 16.262C77.5078 15.7553 77.2228 15.1347 77.2228 14.4C77.2228 13.754 77.4128 13.222 77.7928 12.804C78.1728 12.3733 78.6604 12.0567 79.2558 11.854C79.8511 11.6387 80.4718 11.531 81.1178 11.531C81.9538 11.531 82.6948 11.664 83.3408 11.93C83.9868 12.196 84.4998 12.5633 84.8798 13.032C85.0571 13.2347 85.1394 13.45 85.1268 13.678C85.1141 13.8933 85.0064 14.077 84.8038 14.229C84.6011 14.3683 84.3604 14.4127 84.0818 14.362C83.8031 14.3113 83.5688 14.1973 83.3788 14.02C83.0621 13.716 82.7201 13.507 82.3528 13.393C81.9854 13.279 81.5611 13.222 81.0798 13.222C80.5224 13.222 80.0474 13.317 79.6548 13.507C79.2748 13.697 79.0848 13.9757 79.0848 14.343C79.0848 14.571 79.1418 14.78 79.2558 14.97C79.3824 15.1473 79.6231 15.312 79.9778 15.464C80.3324 15.6033 80.8518 15.7427 81.5358 15.882C82.4858 16.072 83.2331 16.3127 83.7778 16.604C84.3351 16.8953 84.7341 17.2373 84.9748 17.63C85.2154 18.01 85.3358 18.4533 85.3358 18.96C85.3358 19.5427 85.1774 20.0683 84.8608 20.537C84.5568 21.0057 84.1008 21.3793 83.4928 21.658C82.8974 21.9367 82.1501 22.076 81.2508 22.076ZM88.2802 18.219C88.0015 18.219 87.7672 18.1303 87.5772 17.953C87.3998 17.763 87.3112 17.5287 87.3112 17.25V8.13C87.3112 7.83867 87.3998 7.60433 87.5772 7.427C87.7672 7.24967 88.0015 7.161 88.2802 7.161C88.5715 7.161 88.8058 7.24967 88.9832 7.427C89.1605 7.60433 89.2492 7.83867 89.2492 8.13V17.25C89.2492 17.5287 89.1605 17.763 88.9832 17.953C88.8058 18.1303 88.5715 18.219 88.2802 18.219ZM96.0892 22.019C95.8105 22.019 95.5762 21.9303 95.3862 21.753C95.2088 21.563 95.1202 21.3287 95.1202 21.05V16.376C95.1202 15.654 94.9872 15.065 94.7212 14.609C94.4552 14.153 94.0942 13.8173 93.6382 13.602C93.1948 13.374 92.6818 13.26 92.0992 13.26C91.5672 13.26 91.0858 13.3677 90.6552 13.583C90.2245 13.7983 89.8825 14.0897 89.6292 14.457C89.3758 14.8117 89.2492 15.2233 89.2492 15.692H88.0522C88.0522 14.894 88.2422 14.1847 88.6222 13.564C89.0148 12.9307 89.5468 12.4303 90.2182 12.063C90.8895 11.6957 91.6432 11.512 92.4792 11.512C93.3532 11.512 94.1322 11.702 94.8162 12.082C95.5128 12.4493 96.0575 12.994 96.4502 13.716C96.8555 14.438 97.0582 15.3247 97.0582 16.376V21.05C97.0582 21.3287 96.9632 21.563 96.7732 21.753C96.5958 21.9303 96.3678 22.019 96.0892 22.019ZM88.2802 22.019C88.0015 22.019 87.7672 21.9303 87.5772 21.753C87.3998 21.563 87.3112 21.3287 87.3112 21.05V12.576C87.3112 12.2847 87.3998 12.0503 87.5772 11.873C87.7672 11.6957 88.0015 11.607 88.2802 11.607C88.5715 11.607 88.8058 11.6957 88.9832 11.873C89.1605 12.0503 89.2492 12.2847 89.2492 12.576V21.05C89.2492 21.3287 89.1605 21.563 88.9832 21.753C88.8058 21.9303 88.5715 22.019 88.2802 22.019ZM100.927 22C100.686 22 100.471 21.9113 100.281 21.734C100.091 21.5567 99.9959 21.3223 99.9959 21.031V11.664C99.9959 10.752 100.173 9.96033 100.528 9.289C100.895 8.61767 101.402 8.09833 102.048 7.731C102.694 7.351 103.441 7.161 104.29 7.161C104.569 7.161 104.797 7.24333 104.974 7.408C105.164 7.57267 105.259 7.78167 105.259 8.035C105.259 8.27567 105.164 8.48467 104.974 8.662C104.797 8.82667 104.569 8.909 104.29 8.909C103.821 8.909 103.41 9.01667 103.055 9.232C102.7 9.44733 102.422 9.745 102.219 10.125C102.029 10.505 101.934 10.9547 101.934 11.474V21.031C101.934 21.3223 101.845 21.5567 101.668 21.734C101.491 21.9113 101.244 22 100.927 22ZM99.1789 13.621C98.9129 13.621 98.6976 13.545 98.5329 13.393C98.3682 13.241 98.2859 13.051 98.2859 12.823C98.2859 12.5697 98.3682 12.367 98.5329 12.215C98.6976 12.063 98.9129 11.987 99.1789 11.987H103.872C104.138 11.987 104.353 12.063 104.518 12.215C104.683 12.367 104.765 12.5697 104.765 12.823C104.765 13.051 104.683 13.241 104.518 13.393C104.353 13.545 104.138 13.621 103.872 13.621H99.1789ZM110.677 22.095C109.803 22.095 109.018 21.9113 108.321 21.544C107.637 21.164 107.093 20.613 106.687 19.891C106.295 19.169 106.098 18.2823 106.098 17.231V12.557C106.098 12.2783 106.187 12.0503 106.364 11.873C106.554 11.683 106.789 11.588 107.067 11.588C107.346 11.588 107.574 11.683 107.751 11.873C107.941 12.0503 108.036 12.2783 108.036 12.557V17.231C108.036 17.9403 108.169 18.5293 108.435 18.998C108.701 19.454 109.062 19.796 109.518 20.024C109.974 20.2393 110.487 20.347 111.057 20.347C111.602 20.347 112.083 20.2393 112.501 20.024C112.932 19.8087 113.274 19.5173 113.527 19.15C113.781 18.7827 113.907 18.371 113.907 17.915H115.104C115.104 18.7003 114.908 19.4097 114.515 20.043C114.135 20.6763 113.61 21.1767 112.938 21.544C112.28 21.9113 111.526 22.095 110.677 22.095ZM114.876 22C114.598 22 114.363 21.9113 114.173 21.734C113.996 21.544 113.907 21.3097 113.907 21.031V12.557C113.907 12.2657 113.996 12.0313 114.173 11.854C114.363 11.6767 114.598 11.588 114.876 11.588C115.168 11.588 115.402 11.6767 115.579 11.854C115.757 12.0313 115.845 12.2657 115.845 12.557V21.031C115.845 21.3097 115.757 21.544 115.579 21.734C115.402 21.9113 115.168 22 114.876 22ZM122.565 22.076C121.678 22.076 120.855 21.943 120.095 21.677C119.347 21.3983 118.765 21.05 118.347 20.632C118.157 20.4293 118.074 20.2013 118.1 19.948C118.138 19.682 118.264 19.4667 118.48 19.302C118.733 19.0993 118.98 19.017 119.221 19.055C119.474 19.0803 119.689 19.188 119.867 19.378C120.082 19.6187 120.424 19.8467 120.893 20.062C121.374 20.2647 121.906 20.366 122.489 20.366C123.223 20.366 123.781 20.2457 124.161 20.005C124.553 19.7643 124.756 19.454 124.769 19.074C124.781 18.694 124.598 18.3647 124.218 18.086C123.85 17.8073 123.173 17.5793 122.185 17.402C120.905 17.1487 119.974 16.7687 119.392 16.262C118.822 15.7553 118.537 15.1347 118.537 14.4C118.537 13.754 118.727 13.222 119.107 12.804C119.487 12.3733 119.974 12.0567 120.57 11.854C121.165 11.6387 121.786 11.531 122.432 11.531C123.268 11.531 124.009 11.664 124.655 11.93C125.301 12.196 125.814 12.5633 126.194 13.032C126.371 13.2347 126.453 13.45 126.441 13.678C126.428 13.8933 126.32 14.077 126.118 14.229C125.915 14.3683 125.674 14.4127 125.396 14.362C125.117 14.3113 124.883 14.1973 124.693 14.02C124.376 13.716 124.034 13.507 123.667 13.393C123.299 13.279 122.875 13.222 122.394 13.222C121.836 13.222 121.361 13.317 120.969 13.507C120.589 13.697 120.399 13.9757 120.399 14.343C120.399 14.571 120.456 14.78 120.57 14.97C120.696 15.1473 120.937 15.312 121.292 15.464C121.646 15.6033 122.166 15.7427 122.85 15.882C123.8 16.072 124.547 16.3127 125.092 16.604C125.649 16.8953 126.048 17.2373 126.289 17.63C126.529 18.01 126.65 18.4533 126.65 18.96C126.65 19.5427 126.491 20.0683 126.175 20.537C125.871 21.0057 125.415 21.3793 124.807 21.658C124.211 21.9367 123.464 22.076 122.565 22.076ZM129.784 22C129.505 22 129.271 21.9113 129.081 21.734C128.904 21.544 128.815 21.3097 128.815 21.031V12.576C128.815 12.2847 128.904 12.0503 129.081 11.873C129.271 11.6957 129.505 11.607 129.784 11.607C130.075 11.607 130.31 11.6957 130.487 11.873C130.664 12.0503 130.753 12.2847 130.753 12.576V21.031C130.753 21.3097 130.664 21.544 130.487 21.734C130.31 21.9113 130.075 22 129.784 22ZM129.784 9.916C129.442 9.916 129.144 9.79567 128.891 9.555C128.65 9.30167 128.53 9.004 128.53 8.662C128.53 8.32 128.65 8.02867 128.891 7.788C129.144 7.53467 129.442 7.408 129.784 7.408C130.126 7.408 130.417 7.53467 130.658 7.788C130.911 8.02867 131.038 8.32 131.038 8.662C131.038 9.004 130.911 9.30167 130.658 9.555C130.417 9.79567 130.126 9.916 129.784 9.916ZM138.595 22.076C137.569 22.076 136.664 21.8543 135.878 21.411C135.093 20.955 134.472 20.3343 134.016 19.549C133.573 18.751 133.351 17.839 133.351 16.813C133.351 15.7743 133.573 14.8623 134.016 14.077C134.472 13.279 135.093 12.6583 135.878 12.215C136.664 11.759 137.569 11.531 138.595 11.531C139.609 11.531 140.508 11.759 141.293 12.215C142.079 12.6583 142.693 13.279 143.136 14.077C143.592 14.8623 143.82 15.7743 143.82 16.813C143.82 17.839 143.599 18.751 143.155 19.549C142.712 20.3343 142.098 20.955 141.312 21.411C140.527 21.8543 139.621 22.076 138.595 22.076ZM138.595 20.366C139.254 20.366 139.837 20.214 140.343 19.91C140.85 19.606 141.243 19.188 141.521 18.656C141.813 18.124 141.958 17.5097 141.958 16.813C141.958 16.1163 141.813 15.502 141.521 14.97C141.243 14.4253 140.85 14.001 140.343 13.697C139.837 13.393 139.254 13.241 138.595 13.241C137.937 13.241 137.354 13.393 136.847 13.697C136.341 14.001 135.942 14.4253 135.65 14.97C135.359 15.502 135.213 16.1163 135.213 16.813C135.213 17.5097 135.359 18.124 135.65 18.656C135.942 19.188 136.341 19.606 136.847 19.91C137.354 20.214 137.937 20.366 138.595 20.366ZM155.008 22.019C154.729 22.019 154.495 21.9303 154.305 21.753C154.127 21.563 154.039 21.3287 154.039 21.05V16.376C154.039 15.654 153.906 15.065 153.64 14.609C153.374 14.153 153.013 13.8173 152.557 13.602C152.113 13.374 151.6 13.26 151.018 13.26C150.486 13.26 150.004 13.3677 149.574 13.583C149.143 13.7983 148.801 14.0897 148.548 14.457C148.294 14.8117 148.168 15.2233 148.168 15.692H146.971C146.971 14.894 147.161 14.1847 147.541 13.564C147.933 12.9307 148.465 12.4303 149.137 12.063C149.808 11.6957 150.562 11.512 151.398 11.512C152.272 11.512 153.051 11.702 153.735 12.082C154.431 12.4493 154.976 12.994 155.369 13.716C155.774 14.438 155.977 15.3247 155.977 16.376V21.05C155.977 21.3287 155.882 21.563 155.692 21.753C155.514 21.9303 155.286 22.019 155.008 22.019ZM147.199 22.019C146.92 22.019 146.686 21.9303 146.496 21.753C146.318 21.563 146.23 21.3287 146.23 21.05V12.576C146.23 12.2847 146.318 12.0503 146.496 11.873C146.686 11.6957 146.92 11.607 147.199 11.607C147.49 11.607 147.724 11.6957 147.902 11.873C148.079 12.0503 148.168 12.2847 148.168 12.576V21.05C148.168 21.3287 148.079 21.563 147.902 21.753C147.724 21.9303 147.49 22.019 147.199 22.019Z"/>
</mask>
<path d="M56.9511 22.076C55.9631 22.076 55.0701 21.848 54.2721 21.392C53.4868 20.9233 52.8598 20.29 52.3911 19.492C51.9351 18.694 51.7071 17.7947 51.7071 16.794C51.7071 15.7933 51.9161 14.9003 52.3341 14.115C52.7648 13.317 53.3474 12.69 54.0821 12.234C54.8168 11.7653 55.6464 11.531 56.5711 11.531C57.3184 11.531 58.0088 11.6893 58.6421 12.006C59.2754 12.31 59.8074 12.728 60.2381 13.26V8.13C60.2381 7.83867 60.3268 7.60433 60.5041 7.427C60.6941 7.24967 60.9284 7.161 61.2071 7.161C61.4984 7.161 61.7328 7.24967 61.9101 7.427C62.0874 7.60433 62.1761 7.83867 62.1761 8.13V16.794C62.1761 17.7947 61.9418 18.694 61.4731 19.492C61.0171 20.29 60.3964 20.9233 59.6111 21.392C58.8258 21.848 57.9391 22.076 56.9511 22.076ZM56.9511 20.366C57.5971 20.366 58.1734 20.214 58.6801 19.91C59.1868 19.5933 59.5858 19.1627 59.8771 18.618C60.1684 18.0733 60.3141 17.4653 60.3141 16.794C60.3141 16.11 60.1684 15.502 59.8771 14.97C59.5858 14.438 59.1868 14.02 58.6801 13.716C58.1734 13.3993 57.5971 13.241 56.9511 13.241C56.3178 13.241 55.7414 13.3993 55.2221 13.716C54.7154 14.02 54.3101 14.438 54.0061 14.97C53.7148 15.502 53.5691 16.11 53.5691 16.794C53.5691 17.4653 53.7148 18.0733 54.0061 18.618C54.3101 19.1627 54.7154 19.5933 55.2221 19.91C55.7414 20.214 56.3178 20.366 56.9511 20.366ZM69.4555 22.076C68.5308 22.076 67.7011 21.848 66.9665 21.392C66.2318 20.9233 65.6491 20.2963 65.2185 19.511C64.8005 18.713 64.5915 17.8137 64.5915 16.813C64.5915 15.8123 64.8195 14.913 65.2755 14.115C65.7441 13.317 66.3711 12.69 67.1565 12.234C67.9545 11.7653 68.8475 11.531 69.8355 11.531C70.8235 11.531 71.7101 11.7653 72.4955 12.234C73.2808 12.69 73.9015 13.317 74.3575 14.115C74.8261 14.913 75.0605 15.8123 75.0605 16.813H74.3195C74.3195 17.8137 74.1041 18.713 73.6735 19.511C73.2555 20.2963 72.6791 20.9233 71.9445 21.392C71.2098 21.848 70.3801 22.076 69.4555 22.076ZM69.8355 20.366C70.4815 20.366 71.0578 20.214 71.5645 19.91C72.0711 19.5933 72.4701 19.169 72.7615 18.637C73.0528 18.0923 73.1985 17.4843 73.1985 16.813C73.1985 16.129 73.0528 15.521 72.7615 14.989C72.4701 14.4443 72.0711 14.02 71.5645 13.716C71.0578 13.3993 70.4815 13.241 69.8355 13.241C69.2021 13.241 68.6258 13.3993 68.1065 13.716C67.5998 14.02 67.1945 14.4443 66.8905 14.989C66.5991 15.521 66.4535 16.129 66.4535 16.813C66.4535 17.4843 66.5991 18.0923 66.8905 18.637C67.1945 19.169 67.5998 19.5933 68.1065 19.91C68.6258 20.214 69.2021 20.366 69.8355 20.366ZM74.0915 22.019C73.8128 22.019 73.5785 21.9303 73.3885 21.753C73.2111 21.563 73.1225 21.3287 73.1225 21.05V18.143L73.4835 16.129L75.0605 16.813V21.05C75.0605 21.3287 74.9655 21.563 74.7755 21.753C74.5981 21.9303 74.3701 22.019 74.0915 22.019ZM81.2508 22.076C80.3641 22.076 79.5408 21.943 78.7808 21.677C78.0334 21.3983 77.4508 21.05 77.0328 20.632C76.8428 20.4293 76.7604 20.2013 76.7858 19.948C76.8238 19.682 76.9504 19.4667 77.1658 19.302C77.4191 19.0993 77.6661 19.017 77.9068 19.055C78.1601 19.0803 78.3754 19.188 78.5528 19.378C78.7681 19.6187 79.1101 19.8467 79.5788 20.062C80.0601 20.2647 80.5921 20.366 81.1748 20.366C81.9094 20.366 82.4668 20.2457 82.8468 20.005C83.2394 19.7643 83.4421 19.454 83.4548 19.074C83.4674 18.694 83.2838 18.3647 82.9038 18.086C82.5364 17.8073 81.8588 17.5793 80.8708 17.402C79.5914 17.1487 78.6604 16.7687 78.0778 16.262C77.5078 15.7553 77.2228 15.1347 77.2228 14.4C77.2228 13.754 77.4128 13.222 77.7928 12.804C78.1728 12.3733 78.6604 12.0567 79.2558 11.854C79.8511 11.6387 80.4718 11.531 81.1178 11.531C81.9538 11.531 82.6948 11.664 83.3408 11.93C83.9868 12.196 84.4998 12.5633 84.8798 13.032C85.0571 13.2347 85.1394 13.45 85.1268 13.678C85.1141 13.8933 85.0064 14.077 84.8038 14.229C84.6011 14.3683 84.3604 14.4127 84.0818 14.362C83.8031 14.3113 83.5688 14.1973 83.3788 14.02C83.0621 13.716 82.7201 13.507 82.3528 13.393C81.9854 13.279 81.5611 13.222 81.0798 13.222C80.5224 13.222 80.0474 13.317 79.6548 13.507C79.2748 13.697 79.0848 13.9757 79.0848 14.343C79.0848 14.571 79.1418 14.78 79.2558 14.97C79.3824 15.1473 79.6231 15.312 79.9778 15.464C80.3324 15.6033 80.8518 15.7427 81.5358 15.882C82.4858 16.072 83.2331 16.3127 83.7778 16.604C84.3351 16.8953 84.7341 17.2373 84.9748 17.63C85.2154 18.01 85.3358 18.4533 85.3358 18.96C85.3358 19.5427 85.1774 20.0683 84.8608 20.537C84.5568 21.0057 84.1008 21.3793 83.4928 21.658C82.8974 21.9367 82.1501 22.076 81.2508 22.076ZM88.2802 18.219C88.0015 18.219 87.7672 18.1303 87.5772 17.953C87.3998 17.763 87.3112 17.5287 87.3112 17.25V8.13C87.3112 7.83867 87.3998 7.60433 87.5772 7.427C87.7672 7.24967 88.0015 7.161 88.2802 7.161C88.5715 7.161 88.8058 7.24967 88.9832 7.427C89.1605 7.60433 89.2492 7.83867 89.2492 8.13V17.25C89.2492 17.5287 89.1605 17.763 88.9832 17.953C88.8058 18.1303 88.5715 18.219 88.2802 18.219ZM96.0892 22.019C95.8105 22.019 95.5762 21.9303 95.3862 21.753C95.2088 21.563 95.1202 21.3287 95.1202 21.05V16.376C95.1202 15.654 94.9872 15.065 94.7212 14.609C94.4552 14.153 94.0942 13.8173 93.6382 13.602C93.1948 13.374 92.6818 13.26 92.0992 13.26C91.5672 13.26 91.0858 13.3677 90.6552 13.583C90.2245 13.7983 89.8825 14.0897 89.6292 14.457C89.3758 14.8117 89.2492 15.2233 89.2492 15.692H88.0522C88.0522 14.894 88.2422 14.1847 88.6222 13.564C89.0148 12.9307 89.5468 12.4303 90.2182 12.063C90.8895 11.6957 91.6432 11.512 92.4792 11.512C93.3532 11.512 94.1322 11.702 94.8162 12.082C95.5128 12.4493 96.0575 12.994 96.4502 13.716C96.8555 14.438 97.0582 15.3247 97.0582 16.376V21.05C97.0582 21.3287 96.9632 21.563 96.7732 21.753C96.5958 21.9303 96.3678 22.019 96.0892 22.019ZM88.2802 22.019C88.0015 22.019 87.7672 21.9303 87.5772 21.753C87.3998 21.563 87.3112 21.3287 87.3112 21.05V12.576C87.3112 12.2847 87.3998 12.0503 87.5772 11.873C87.7672 11.6957 88.0015 11.607 88.2802 11.607C88.5715 11.607 88.8058 11.6957 88.9832 11.873C89.1605 12.0503 89.2492 12.2847 89.2492 12.576V21.05C89.2492 21.3287 89.1605 21.563 88.9832 21.753C88.8058 21.9303 88.5715 22.019 88.2802 22.019ZM100.927 22C100.686 22 100.471 21.9113 100.281 21.734C100.091 21.5567 99.9959 21.3223 99.9959 21.031V11.664C99.9959 10.752 100.173 9.96033 100.528 9.289C100.895 8.61767 101.402 8.09833 102.048 7.731C102.694 7.351 103.441 7.161 104.29 7.161C104.569 7.161 104.797 7.24333 104.974 7.408C105.164 7.57267 105.259 7.78167 105.259 8.035C105.259 8.27567 105.164 8.48467 104.974 8.662C104.797 8.82667 104.569 8.909 104.29 8.909C103.821 8.909 103.41 9.01667 103.055 9.232C102.7 9.44733 102.422 9.745 102.219 10.125C102.029 10.505 101.934 10.9547 101.934 11.474V21.031C101.934 21.3223 101.845 21.5567 101.668 21.734C101.491 21.9113 101.244 22 100.927 22ZM99.1789 13.621C98.9129 13.621 98.6976 13.545 98.5329 13.393C98.3682 13.241 98.2859 13.051 98.2859 12.823C98.2859 12.5697 98.3682 12.367 98.5329 12.215C98.6976 12.063 98.9129 11.987 99.1789 11.987H103.872C104.138 11.987 104.353 12.063 104.518 12.215C104.683 12.367 104.765 12.5697 104.765 12.823C104.765 13.051 104.683 13.241 104.518 13.393C104.353 13.545 104.138 13.621 103.872 13.621H99.1789ZM110.677 22.095C109.803 22.095 109.018 21.9113 108.321 21.544C107.637 21.164 107.093 20.613 106.687 19.891C106.295 19.169 106.098 18.2823 106.098 17.231V12.557C106.098 12.2783 106.187 12.0503 106.364 11.873C106.554 11.683 106.789 11.588 107.067 11.588C107.346 11.588 107.574 11.683 107.751 11.873C107.941 12.0503 108.036 12.2783 108.036 12.557V17.231C108.036 17.9403 108.169 18.5293 108.435 18.998C108.701 19.454 109.062 19.796 109.518 20.024C109.974 20.2393 110.487 20.347 111.057 20.347C111.602 20.347 112.083 20.2393 112.501 20.024C112.932 19.8087 113.274 19.5173 113.527 19.15C113.781 18.7827 113.907 18.371 113.907 17.915H115.104C115.104 18.7003 114.908 19.4097 114.515 20.043C114.135 20.6763 113.61 21.1767 112.938 21.544C112.28 21.9113 111.526 22.095 110.677 22.095ZM114.876 22C114.598 22 114.363 21.9113 114.173 21.734C113.996 21.544 113.907 21.3097 113.907 21.031V12.557C113.907 12.2657 113.996 12.0313 114.173 11.854C114.363 11.6767 114.598 11.588 114.876 11.588C115.168 11.588 115.402 11.6767 115.579 11.854C115.757 12.0313 115.845 12.2657 115.845 12.557V21.031C115.845 21.3097 115.757 21.544 115.579 21.734C115.402 21.9113 115.168 22 114.876 22ZM122.565 22.076C121.678 22.076 120.855 21.943 120.095 21.677C119.347 21.3983 118.765 21.05 118.347 20.632C118.157 20.4293 118.074 20.2013 118.1 19.948C118.138 19.682 118.264 19.4667 118.48 19.302C118.733 19.0993 118.98 19.017 119.221 19.055C119.474 19.0803 119.689 19.188 119.867 19.378C120.082 19.6187 120.424 19.8467 120.893 20.062C121.374 20.2647 121.906 20.366 122.489 20.366C123.223 20.366 123.781 20.2457 124.161 20.005C124.553 19.7643 124.756 19.454 124.769 19.074C124.781 18.694 124.598 18.3647 124.218 18.086C123.85 17.8073 123.173 17.5793 122.185 17.402C120.905 17.1487 119.974 16.7687 119.392 16.262C118.822 15.7553 118.537 15.1347 118.537 14.4C118.537 13.754 118.727 13.222 119.107 12.804C119.487 12.3733 119.974 12.0567 120.57 11.854C121.165 11.6387 121.786 11.531 122.432 11.531C123.268 11.531 124.009 11.664 124.655 11.93C125.301 12.196 125.814 12.5633 126.194 13.032C126.371 13.2347 126.453 13.45 126.441 13.678C126.428 13.8933 126.32 14.077 126.118 14.229C125.915 14.3683 125.674 14.4127 125.396 14.362C125.117 14.3113 124.883 14.1973 124.693 14.02C124.376 13.716 124.034 13.507 123.667 13.393C123.299 13.279 122.875 13.222 122.394 13.222C121.836 13.222 121.361 13.317 120.969 13.507C120.589 13.697 120.399 13.9757 120.399 14.343C120.399 14.571 120.456 14.78 120.57 14.97C120.696 15.1473 120.937 15.312 121.292 15.464C121.646 15.6033 122.166 15.7427 122.85 15.882C123.8 16.072 124.547 16.3127 125.092 16.604C125.649 16.8953 126.048 17.2373 126.289 17.63C126.529 18.01 126.65 18.4533 126.65 18.96C126.65 19.5427 126.491 20.0683 126.175 20.537C125.871 21.0057 125.415 21.3793 124.807 21.658C124.211 21.9367 123.464 22.076 122.565 22.076ZM129.784 22C129.505 22 129.271 21.9113 129.081 21.734C128.904 21.544 128.815 21.3097 128.815 21.031V12.576C128.815 12.2847 128.904 12.0503 129.081 11.873C129.271 11.6957 129.505 11.607 129.784 11.607C130.075 11.607 130.31 11.6957 130.487 11.873C130.664 12.0503 130.753 12.2847 130.753 12.576V21.031C130.753 21.3097 130.664 21.544 130.487 21.734C130.31 21.9113 130.075 22 129.784 22ZM129.784 9.916C129.442 9.916 129.144 9.79567 128.891 9.555C128.65 9.30167 128.53 9.004 128.53 8.662C128.53 8.32 128.65 8.02867 128.891 7.788C129.144 7.53467 129.442 7.408 129.784 7.408C130.126 7.408 130.417 7.53467 130.658 7.788C130.911 8.02867 131.038 8.32 131.038 8.662C131.038 9.004 130.911 9.30167 130.658 9.555C130.417 9.79567 130.126 9.916 129.784 9.916ZM138.595 22.076C137.569 22.076 136.664 21.8543 135.878 21.411C135.093 20.955 134.472 20.3343 134.016 19.549C133.573 18.751 133.351 17.839 133.351 16.813C133.351 15.7743 133.573 14.8623 134.016 14.077C134.472 13.279 135.093 12.6583 135.878 12.215C136.664 11.759 137.569 11.531 138.595 11.531C139.609 11.531 140.508 11.759 141.293 12.215C142.079 12.6583 142.693 13.279 143.136 14.077C143.592 14.8623 143.82 15.7743 143.82 16.813C143.82 17.839 143.599 18.751 143.155 19.549C142.712 20.3343 142.098 20.955 141.312 21.411C140.527 21.8543 139.621 22.076 138.595 22.076ZM138.595 20.366C139.254 20.366 139.837 20.214 140.343 19.91C140.85 19.606 141.243 19.188 141.521 18.656C141.813 18.124 141.958 17.5097 141.958 16.813C141.958 16.1163 141.813 15.502 141.521 14.97C141.243 14.4253 140.85 14.001 140.343 13.697C139.837 13.393 139.254 13.241 138.595 13.241C137.937 13.241 137.354 13.393 136.847 13.697C136.341 14.001 135.942 14.4253 135.65 14.97C135.359 15.502 135.213 16.1163 135.213 16.813C135.213 17.5097 135.359 18.124 135.65 18.656C135.942 19.188 136.341 19.606 136.847 19.91C137.354 20.214 137.937 20.366 138.595 20.366ZM155.008 22.019C154.729 22.019 154.495 21.9303 154.305 21.753C154.127 21.563 154.039 21.3287 154.039 21.05V16.376C154.039 15.654 153.906 15.065 153.64 14.609C153.374 14.153 153.013 13.8173 152.557 13.602C152.113 13.374 151.6 13.26 151.018 13.26C150.486 13.26 150.004 13.3677 149.574 13.583C149.143 13.7983 148.801 14.0897 148.548 14.457C148.294 14.8117 148.168 15.2233 148.168 15.692H146.971C146.971 14.894 147.161 14.1847 147.541 13.564C147.933 12.9307 148.465 12.4303 149.137 12.063C149.808 11.6957 150.562 11.512 151.398 11.512C152.272 11.512 153.051 11.702 153.735 12.082C154.431 12.4493 154.976 12.994 155.369 13.716C155.774 14.438 155.977 15.3247 155.977 16.376V21.05C155.977 21.3287 155.882 21.563 155.692 21.753C155.514 21.9303 155.286 22.019 155.008 22.019ZM147.199 22.019C146.92 22.019 146.686 21.9303 146.496 21.753C146.318 21.563 146.23 21.3287 146.23 21.05V12.576C146.23 12.2847 146.318 12.0503 146.496 11.873C146.686 11.6957 146.92 11.607 147.199 11.607C147.49 11.607 147.724 11.6957 147.902 11.873C148.079 12.0503 148.168 12.2847 148.168 12.576V21.05C148.168 21.3287 148.079 21.563 147.902 21.753C147.724 21.9303 147.49 22.019 147.199 22.019Z" fill="black"/>
<path d="M54.2721 21.392L54.1696 21.5638L54.1729 21.5656L54.2721 21.392ZM52.3911 19.492L52.2174 19.5912L52.2186 19.5933L52.3911 19.492ZM52.3341 14.115L52.1581 14.02L52.1576 14.021L52.3341 14.115ZM54.0821 12.234L54.1876 12.4039L54.1897 12.4026L54.0821 12.234ZM58.6421 12.006L58.5526 12.1849L58.5556 12.1863L58.6421 12.006ZM60.2381 13.26L60.0827 13.3858L60.4381 13.8249V13.26H60.2381ZM60.5041 7.427L60.3676 7.2807L60.3627 7.28558L60.5041 7.427ZM61.4731 19.492L61.3006 19.3907L61.2995 19.3928L61.4731 19.492ZM59.6111 21.392L59.7115 21.565L59.7136 21.5637L59.6111 21.392ZM58.6801 19.91L58.783 20.0815L58.7861 20.0796L58.6801 19.91ZM59.8771 18.618L59.7007 18.5237L59.7007 18.5237L59.8771 18.618ZM59.8771 14.97L59.7017 15.0661L59.7017 15.0661L59.8771 14.97ZM58.6801 13.716L58.5741 13.8856L58.5772 13.8875L58.6801 13.716ZM55.2221 13.716L55.325 13.8875L55.3262 13.8868L55.2221 13.716ZM54.0061 14.97L53.8324 14.8708L53.8307 14.8739L54.0061 14.97ZM54.0061 18.618L53.8297 18.7123L53.8315 18.7155L54.0061 18.618ZM55.2221 19.91L55.1161 20.0797L55.1211 20.0826L55.2221 19.91ZM56.9511 21.876C55.9952 21.876 55.1369 21.6558 54.3713 21.2184L54.1729 21.5656C55.0034 22.0402 55.931 22.276 56.9511 22.276V21.876ZM54.3746 21.2203C53.6185 20.769 53.0154 20.1601 52.5636 19.3907L52.2186 19.5933C52.7041 20.4199 53.355 21.0776 54.1696 21.5637L54.3746 21.2203ZM52.5648 19.3928C52.1275 18.6276 51.9071 17.763 51.9071 16.794H51.5071C51.5071 17.8263 51.7427 18.7604 52.2175 19.5912L52.5648 19.3928ZM51.9071 16.794C51.9071 15.822 52.1099 14.9619 52.5107 14.209L52.1576 14.021C51.7223 14.8387 51.5071 15.7647 51.5071 16.794H51.9071ZM52.5101 14.21C52.925 13.4411 53.484 12.8406 54.1876 12.4039L53.9766 12.0641C53.2109 12.5394 52.6045 13.1929 52.1581 14.02L52.5101 14.21ZM54.1897 12.4026C54.8902 11.9557 55.6821 11.731 56.5711 11.731V11.331C55.6108 11.331 54.7433 11.575 53.9745 12.0654L54.1897 12.4026ZM56.5711 11.731C57.2892 11.731 57.9486 11.8829 58.5527 12.1849L58.7315 11.8271C58.0689 11.4958 57.3477 11.331 56.5711 11.331V11.731ZM58.5556 12.1863C59.1629 12.4778 59.6711 12.8775 60.0827 13.3858L60.3936 13.1342C59.9437 12.5785 59.388 12.1422 58.7286 11.8257L58.5556 12.1863ZM60.4381 13.26V8.13H60.0381V13.26H60.4381ZM60.4381 8.13C60.4381 7.88244 60.5118 7.70216 60.6455 7.56842L60.3627 7.28558C60.1418 7.5065 60.0381 7.79489 60.0381 8.13H60.4381ZM60.6406 7.57321C60.7907 7.43308 60.9751 7.361 61.2071 7.361V6.961C60.8818 6.961 60.5975 7.06625 60.3676 7.28079L60.6406 7.57321ZM61.2071 7.361C61.4547 7.361 61.6349 7.43468 61.7687 7.56842L62.0515 7.28558C61.8306 7.06465 61.5422 6.961 61.2071 6.961V7.361ZM61.7687 7.56842C61.9024 7.70216 61.9761 7.88244 61.9761 8.13H62.3761C62.3761 7.79489 62.2724 7.5065 62.0515 7.28558L61.7687 7.56842ZM61.9761 8.13V16.794H62.3761V8.13H61.9761ZM61.9761 16.794C61.9761 17.762 61.7498 18.6259 61.3006 19.3907L61.6456 19.5933C62.1337 18.7621 62.3761 17.8273 62.3761 16.794H61.9761ZM61.2995 19.3928C60.8604 20.161 60.2642 20.7693 59.5086 21.2203L59.7136 21.5637C60.5286 21.0773 61.1738 20.419 61.6468 19.5912L61.2995 19.3928ZM59.5107 21.219C58.7585 21.6558 57.907 21.876 56.9511 21.876V22.276C57.9712 22.276 58.893 22.0402 59.7115 21.565L59.5107 21.219ZM56.9511 20.566C57.6299 20.566 58.2424 20.4059 58.783 20.0815L58.5772 19.7385C58.1045 20.0221 57.5643 20.166 56.9511 20.166V20.566ZM58.7861 20.0796C59.3234 19.7438 59.7462 19.2867 60.0535 18.7123L59.7007 18.5237C59.4253 19.0386 59.0501 19.4429 58.5741 19.7404L58.7861 20.0796ZM60.0535 18.7123C60.3616 18.1362 60.5141 17.4953 60.5141 16.794H60.1141C60.1141 17.4354 59.9752 18.0105 59.7007 18.5237L60.0535 18.7123ZM60.5141 16.794C60.5141 16.0808 60.362 15.439 60.0525 14.8739L59.7017 15.0661C59.9749 15.565 60.1141 16.1392 60.1141 16.794H60.5141ZM60.0525 14.8739C59.7446 14.3117 59.3209 13.8673 58.783 13.5445L58.5772 13.8875C59.0526 14.1727 59.4269 14.5643 59.7017 15.0661L60.0525 14.8739ZM58.7861 13.5464C58.2451 13.2083 57.6314 13.041 56.9511 13.041V13.441C57.5628 13.441 58.1018 13.5904 58.5741 13.8856L58.7861 13.5464ZM56.9511 13.041C56.2826 13.041 55.67 13.2086 55.118 13.5452L55.3262 13.8868C55.8129 13.59 56.3529 13.441 56.9511 13.441V13.041ZM55.1192 13.5445C54.582 13.8668 54.1528 14.3102 53.8325 14.8708L54.1798 15.0692C54.4674 14.5658 54.8488 14.1732 55.325 13.8875L55.1192 13.5445ZM53.8307 14.8739C53.5213 15.439 53.3691 16.0808 53.3691 16.794H53.7691C53.7691 16.1392 53.9083 15.565 54.1815 15.0661L53.8307 14.8739ZM53.3691 16.794C53.3691 17.4953 53.5216 18.1362 53.8297 18.7123L54.1825 18.5237C53.908 18.0105 53.7691 17.4354 53.7691 16.794H53.3691ZM53.8315 18.7155C54.1511 19.2882 54.5796 19.7443 55.1161 20.0796L55.3281 19.7404C54.8513 19.4424 54.4691 19.0371 54.1807 18.5205L53.8315 18.7155ZM55.1211 20.0826C55.6727 20.4055 56.2842 20.566 56.9511 20.566V20.166C56.3513 20.166 55.8102 20.0225 55.3231 19.7374L55.1211 20.0826ZM66.9665 21.392L66.8589 21.5606L66.861 21.5619L66.9665 21.392ZM65.2185 19.511L65.0413 19.6038L65.0431 19.6072L65.2185 19.511ZM65.2755 14.115L65.103 14.0137L65.1018 14.0158L65.2755 14.115ZM67.1565 12.234L67.2569 12.407L67.2578 12.4065L67.1565 12.234ZM72.4955 12.234L72.393 12.4058L72.3951 12.407L72.4955 12.234ZM74.3575 14.115L74.1838 14.2142L74.185 14.2163L74.3575 14.115ZM75.0605 16.813V17.013H75.2605V16.813H75.0605ZM74.3195 16.813V16.613H74.1195V16.813H74.3195ZM73.6735 19.511L73.4975 19.416L73.4969 19.417L73.6735 19.511ZM71.9445 21.392L72.05 21.5619L72.052 21.5606L71.9445 21.392ZM71.5645 19.91L71.6674 20.0815L71.6705 20.0796L71.5645 19.91ZM72.7615 18.637L72.9369 18.7331L72.9378 18.7313L72.7615 18.637ZM72.7615 14.989L72.5851 15.0833L72.5861 15.0851L72.7615 14.989ZM71.5645 13.716L71.4585 13.8856L71.4616 13.8875L71.5645 13.716ZM68.1065 13.716L68.2094 13.8875L68.2106 13.8868L68.1065 13.716ZM66.8905 14.989L66.7158 14.8915L66.7151 14.8929L66.8905 14.989ZM66.8905 18.637L66.7141 18.7314L66.7168 18.7362L66.8905 18.637ZM68.1065 19.91L68.0004 20.0797L68.0054 20.0826L68.1065 19.91ZM73.3885 21.753L73.2419 21.8898L73.252 21.8992L73.3885 21.753ZM73.1225 18.143L72.9256 18.1077L72.9225 18.1252V18.143H73.1225ZM73.4835 16.129L73.5631 15.9455L73.3312 15.845L73.2866 16.0937L73.4835 16.129ZM75.0605 16.813H75.2605V16.6817L75.1401 16.6295L75.0605 16.813ZM74.7755 21.753L74.9169 21.8944L74.9169 21.8944L74.7755 21.753ZM69.4555 21.876C68.5654 21.876 67.7727 21.657 67.0719 21.2221L66.861 21.5619C67.6296 22.039 68.4962 22.276 69.4555 22.276V21.876ZM67.074 21.2234C66.3685 20.7733 65.8088 20.1716 65.3938 19.4148L65.0431 19.6072C65.4895 20.4211 66.0951 21.0734 66.8589 21.5606L67.074 21.2234ZM65.3956 19.4182C64.9942 18.6519 64.7915 17.785 64.7915 16.813H64.3915C64.3915 17.8424 64.6067 18.7741 65.0413 19.6038L65.3956 19.4182ZM64.7915 16.813C64.7915 15.844 65.0119 14.9794 65.4491 14.2142L65.1018 14.0158C64.627 14.8466 64.3915 15.7807 64.3915 16.813H64.7915ZM65.4479 14.2163C65.8995 13.4474 66.5019 12.8453 67.2569 12.407L67.0561 12.061C66.2403 12.5347 65.5888 13.1866 65.103 14.0137L65.4479 14.2163ZM67.2578 12.4065C68.023 11.957 68.8806 11.731 69.8355 11.731V11.331C68.8144 11.331 67.886 11.5736 67.0552 12.0615L67.2578 12.4065ZM69.8355 11.731C70.7904 11.731 71.6411 11.957 72.393 12.4057L72.598 12.0623C71.7792 11.5736 70.8566 11.331 69.8355 11.331V11.731ZM72.3951 12.407C73.1495 12.845 73.7451 13.4464 74.1838 14.2142L74.5311 14.0158C74.0579 13.1876 73.4121 12.535 72.5959 12.061L72.3951 12.407ZM74.185 14.2163C74.6342 14.9811 74.8605 15.845 74.8605 16.813H75.2605C75.2605 15.7797 75.0181 14.8449 74.5299 14.0137L74.185 14.2163ZM75.0605 16.613H74.3195V17.013H75.0605V16.613ZM74.1195 16.813C74.1195 17.784 73.9108 18.6501 73.4975 19.416L73.8495 19.606C74.2975 18.7759 74.5195 17.8433 74.5195 16.813H74.1195ZM73.4969 19.417C73.0948 20.1726 72.5419 20.7736 71.8369 21.2234L72.052 21.5606C72.8164 21.073 73.4162 20.42 73.85 19.605L73.4969 19.417ZM71.839 21.2221C71.1382 21.657 70.3456 21.876 69.4555 21.876V22.276C70.4147 22.276 71.2814 22.039 72.05 21.5619L71.839 21.2221ZM69.8355 20.566C70.5142 20.566 71.1268 20.4059 71.6674 20.0815L71.4616 19.7385C70.9889 20.0221 70.4487 20.166 69.8355 20.166V20.566ZM71.6705 20.0796C72.2067 19.7445 72.6294 19.2946 72.9369 18.7331L72.5861 18.5409C72.3109 19.0434 71.9356 19.4422 71.4585 19.7404L71.6705 20.0796ZM72.9378 18.7313C73.246 18.1552 73.3985 17.5143 73.3985 16.813H72.9985C72.9985 17.4544 72.8596 18.0295 72.5851 18.5427L72.9378 18.7313ZM73.3985 16.813C73.3985 16.0998 73.2463 15.458 72.9369 14.8929L72.5861 15.0851C72.8593 15.584 72.9985 16.1582 72.9985 16.813H73.3985ZM72.9378 14.8947C72.6303 14.3196 72.2065 13.868 71.6674 13.5445L71.4616 13.8875C71.9358 14.172 72.31 14.569 72.5851 15.0833L72.9378 14.8947ZM71.6705 13.5464C71.1294 13.2083 70.5158 13.041 69.8355 13.041V13.441C70.4472 13.441 70.9862 13.5904 71.4585 13.8856L71.6705 13.5464ZM69.8355 13.041C69.167 13.041 68.5544 13.2086 68.0024 13.5452L68.2106 13.8868C68.6972 13.59 69.2373 13.441 69.8355 13.441V13.041ZM68.0036 13.5445C67.4653 13.8675 67.0359 14.3181 66.7158 14.8915L67.0651 15.0865C67.3531 14.5706 67.7344 14.1725 68.2094 13.8875L68.0036 13.5445ZM66.7151 14.8929C66.4056 15.458 66.2535 16.0998 66.2535 16.813H66.6535C66.6535 16.1582 66.7927 15.584 67.0659 15.0851L66.7151 14.8929ZM66.2535 16.813C66.2535 17.5143 66.4059 18.1552 66.7141 18.7313L67.0668 18.5427C66.7923 18.0295 66.6535 17.4544 66.6535 16.813H66.2535ZM66.7168 18.7362C67.0368 19.2962 67.4651 19.745 68.0005 20.0796L68.2125 19.7404C67.7346 19.4417 67.3522 19.0418 67.0641 18.5378L66.7168 18.7362ZM68.0054 20.0826C68.5571 20.4055 69.1686 20.566 69.8355 20.566V20.166C69.2357 20.166 68.6946 20.0225 68.2075 19.7374L68.0054 20.0826ZM74.0915 21.819C73.8595 21.819 73.6751 21.7469 73.5249 21.6068L73.252 21.8992C73.4819 22.1137 73.7662 22.219 74.0915 22.219V21.819ZM73.5347 21.6165C73.3946 21.4664 73.3225 21.282 73.3225 21.05H72.9225C72.9225 21.3753 73.0277 21.6596 73.2423 21.8895L73.5347 21.6165ZM73.3225 21.05V18.143H72.9225V21.05H73.3225ZM73.3193 18.1783L73.6803 16.1643L73.2866 16.0937L72.9256 18.1077L73.3193 18.1783ZM73.4039 16.3125L74.9809 16.9965L75.1401 16.6295L73.5631 15.9455L73.4039 16.3125ZM74.8605 16.813V21.05H75.2605V16.813H74.8605ZM74.8605 21.05C74.8605 21.2778 74.785 21.4606 74.6341 21.6116L74.9169 21.8944C75.1459 21.6654 75.2605 21.3795 75.2605 21.05H74.8605ZM74.6341 21.6116C74.4986 21.7471 74.3236 21.819 74.0915 21.819V22.219C74.4167 22.219 74.6977 22.1136 74.9169 21.8944L74.6341 21.6116ZM78.7808 21.677L78.7109 21.8644L78.7147 21.8658L78.7808 21.677ZM77.0328 20.632L76.8868 20.7689L76.8913 20.7734L77.0328 20.632ZM76.7858 19.948L76.5876 19.9197L76.5868 19.9281L76.7858 19.948ZM77.1658 19.302L77.2873 19.4609L77.2907 19.4582L77.1658 19.302ZM77.9068 19.055L77.8755 19.2529L77.8869 19.254L77.9068 19.055ZM78.5528 19.378L78.7018 19.2446L78.699 19.2415L78.5528 19.378ZM79.5788 20.062L79.4952 20.2438L79.5012 20.2463L79.5788 20.062ZM82.8468 20.005L82.7422 19.8345L82.7398 19.836L82.8468 20.005ZM83.4548 19.074L83.6547 19.0807L83.6547 19.0807L83.4548 19.074ZM82.9038 18.086L82.7829 18.2454L82.7855 18.2473L82.9038 18.086ZM80.8708 17.402L80.8319 17.5982L80.8354 17.5989L80.8708 17.402ZM78.0778 16.262L77.9449 16.4115L77.9465 16.4129L78.0778 16.262ZM77.7928 12.804L77.9408 12.9385L77.9427 12.9363L77.7928 12.804ZM79.2558 11.854L79.3202 12.0434L79.3238 12.0421L79.2558 11.854ZM83.3408 11.93L83.4169 11.7451L83.4169 11.7451L83.3408 11.93ZM84.8798 13.032L84.7243 13.158L84.7293 13.1637L84.8798 13.032ZM85.1268 13.678L85.3264 13.6897L85.3265 13.6891L85.1268 13.678ZM84.8038 14.229L84.9172 14.3939L84.9238 14.389L84.8038 14.229ZM84.0818 14.362L84.046 14.5588L84.046 14.5588L84.0818 14.362ZM83.3788 14.02L83.2402 14.1643L83.2423 14.1662L83.3788 14.02ZM82.3528 13.393L82.2935 13.584L82.2935 13.584L82.3528 13.393ZM79.6548 13.507L79.5676 13.327L79.5653 13.3281L79.6548 13.507ZM79.2558 14.97L79.0843 15.0729L79.0884 15.0797L79.093 15.0862L79.2558 14.97ZM79.9778 15.464L79.8989 15.6479L79.9046 15.6502L79.9778 15.464ZM81.5358 15.882L81.4958 16.078L81.4965 16.0781L81.5358 15.882ZM83.7778 16.604L83.6834 16.7804L83.6851 16.7812L83.7778 16.604ZM84.9748 17.63L84.8042 17.7345L84.8058 17.737L84.9748 17.63ZM84.8608 20.537L84.695 20.425L84.693 20.4282L84.8608 20.537ZM83.4928 21.658L83.4094 21.4762L83.408 21.4769L83.4928 21.658ZM81.2508 21.876C80.3843 21.876 79.5836 21.7461 78.8468 21.4882L78.7147 21.8658C79.498 22.1399 80.3439 22.276 81.2508 22.276V21.876ZM78.8506 21.4896C78.1213 21.2176 77.5661 20.8825 77.1742 20.4906L76.8913 20.7734C77.3354 21.2175 77.9456 21.579 78.7109 21.8644L78.8506 21.4896ZM77.1787 20.4952C77.0241 20.3303 76.9657 20.1581 76.9848 19.9679L76.5868 19.9281C76.5551 20.2445 76.6614 20.5283 76.8869 20.7688L77.1787 20.4952ZM76.9838 19.9763C77.0143 19.7627 77.1131 19.594 77.2873 19.4609L77.0443 19.1431C76.7877 19.3393 76.6333 19.6013 76.5878 19.9197L76.9838 19.9763ZM77.2907 19.4582C77.5154 19.2784 77.7072 19.226 77.8756 19.2526L77.938 18.8574C77.625 18.808 77.3228 18.9202 77.0408 19.1458L77.2907 19.4582ZM77.8869 19.254C78.0908 19.2744 78.2616 19.3591 78.4066 19.5145L78.699 19.2415C78.4893 19.0169 78.2294 18.8863 77.9267 18.856L77.8869 19.254ZM78.4037 19.5114C78.645 19.7811 79.0148 20.023 79.4953 20.2437L79.6623 19.8803C79.2054 19.6703 78.8912 19.4563 78.7018 19.2446L78.4037 19.5114ZM79.5012 20.2463C80.0097 20.4605 80.5685 20.566 81.1748 20.566V20.166C80.6157 20.166 80.1105 20.0689 79.6564 19.8777L79.5012 20.2463ZM81.1748 20.566C81.9257 20.566 82.5274 20.444 82.9538 20.174L82.7398 19.836C82.4061 20.0473 81.8932 20.166 81.1748 20.166V20.566ZM82.9513 20.1755C83.3874 19.9082 83.6393 19.5426 83.6547 19.0807L83.2549 19.0673C83.2449 19.3654 83.0915 19.6204 82.7423 19.8345L82.9513 20.1755ZM83.6547 19.0807C83.6701 18.6186 83.4409 18.2319 83.022 17.9247L82.7855 18.2473C83.1267 18.4975 83.2648 18.7694 83.2549 19.0673L83.6547 19.0807ZM83.0246 17.9267C82.6164 17.6169 81.8968 17.383 80.9061 17.2051L80.8354 17.5989C81.8207 17.7757 82.4565 17.9977 82.7829 18.2453L83.0246 17.9267ZM80.9096 17.2058C79.6437 16.9551 78.753 16.5841 78.209 16.1111L77.9465 16.4129C78.5679 16.9532 79.5391 17.3422 80.8319 17.5982L80.9096 17.2058ZM78.2106 16.1125C77.6815 15.6422 77.4228 15.0751 77.4228 14.4H77.0228C77.0228 15.1942 77.334 15.8685 77.9449 16.4115L78.2106 16.1125ZM77.4228 14.4C77.4228 13.7961 77.599 13.3144 77.9408 12.9385L77.6448 12.6695C77.2265 13.1296 77.0228 13.7119 77.0228 14.4H77.4228ZM77.9427 12.9363C78.2975 12.5342 78.7547 12.2359 79.3202 12.0433L79.1913 11.6647C78.5662 11.8775 78.048 12.2124 77.6428 12.6717L77.9427 12.9363ZM79.3238 12.0421C79.8969 11.8348 80.4945 11.731 81.1178 11.731V11.331C80.4491 11.331 79.8053 11.4425 79.1877 11.6659L79.3238 12.0421ZM81.1178 11.731C81.9327 11.731 82.647 11.8606 83.2646 12.1149L83.4169 11.7451C82.7425 11.4674 81.9749 11.331 81.1178 11.331V11.731ZM83.2646 12.1149C83.8846 12.3702 84.3686 12.7191 84.7244 13.158L85.0351 12.906C84.6309 12.4076 84.0889 12.0218 83.4169 11.7451L83.2646 12.1149ZM84.7293 13.1637C84.8788 13.3346 84.9363 13.5003 84.9271 13.6669L85.3265 13.6891C85.3425 13.3997 85.2354 13.1347 85.0303 12.9003L84.7293 13.1637ZM84.9271 13.6663C84.9185 13.8124 84.8485 13.9455 84.6838 14.069L84.9238 14.389C85.1644 14.2085 85.3097 13.9743 85.3264 13.6897L84.9271 13.6663ZM84.6905 14.0642C84.538 14.169 84.3528 14.208 84.1175 14.1652L84.046 14.5588C84.3681 14.6173 84.6642 14.5676 84.9171 14.3938L84.6905 14.0642ZM84.1175 14.1652C83.8731 14.1208 83.6747 14.0226 83.5152 13.8738L83.2423 14.1662C83.4628 14.372 83.7331 14.5019 84.046 14.5588L84.1175 14.1652ZM83.5173 13.8757C83.1814 13.5533 82.813 13.3264 82.412 13.202L82.2935 13.584C82.6272 13.6876 82.9428 13.8787 83.2403 14.1643L83.5173 13.8757ZM82.412 13.202C82.0214 13.0808 81.5764 13.022 81.0798 13.022V13.422C81.5458 13.422 81.9495 13.4772 82.2935 13.584L82.412 13.202ZM81.0798 13.022C80.5004 13.022 79.9939 13.1207 79.5677 13.327L79.7419 13.687C80.1009 13.5133 80.5445 13.422 81.0798 13.422V13.022ZM79.5653 13.3281C79.3526 13.4345 79.1806 13.5719 79.062 13.7458C78.9424 13.9213 78.8848 14.1229 78.8848 14.343H79.2848C79.2848 14.1958 79.3222 14.0743 79.3925 13.9712C79.4639 13.8664 79.5769 13.7695 79.7442 13.6859L79.5653 13.3281ZM78.8848 14.343C78.8848 14.6061 78.9511 14.8509 79.0843 15.0729L79.4273 14.8671C79.3325 14.7091 79.2848 14.5359 79.2848 14.343H78.8848ZM79.093 15.0862C79.2517 15.3084 79.5332 15.491 79.899 15.6478L80.0565 15.2802C79.713 15.133 79.5131 14.9862 79.4185 14.8538L79.093 15.0862ZM79.9046 15.6502C80.2755 15.7958 80.8082 15.9379 81.4958 16.078L81.5757 15.686C80.8953 15.5474 80.3894 15.4108 80.0509 15.2778L79.9046 15.6502ZM81.4965 16.0781C82.4369 16.2662 83.163 16.502 83.6834 16.7804L83.8721 16.4276C83.3032 16.1234 82.5346 15.8778 81.575 15.6859L81.4965 16.0781ZM83.6851 16.7812C84.2217 17.0617 84.5882 17.382 84.8042 17.7345L85.1453 17.5255C84.88 17.0927 84.4485 16.729 83.8704 16.4268L83.6851 16.7812ZM84.8058 17.737C85.0237 18.0811 85.1358 18.4863 85.1358 18.96H85.5358C85.5358 18.4204 85.4072 17.9389 85.1437 17.523L84.8058 17.737ZM85.1358 18.96C85.1358 19.504 84.9887 19.9905 84.695 20.425L85.0265 20.649C85.3662 20.1462 85.5358 19.5813 85.5358 18.96H85.1358ZM84.693 20.4282C84.4134 20.8592 83.9898 21.2102 83.4094 21.4762L83.5761 21.8398C84.2117 21.5485 84.7001 21.1522 85.0286 20.6458L84.693 20.4282ZM83.408 21.4769C82.8471 21.7394 82.131 21.876 81.2508 21.876V22.276C82.1692 22.276 82.9478 22.1339 83.5776 21.8391L83.408 21.4769ZM87.5772 17.953L87.4306 18.0898L87.4407 18.0992L87.5772 17.953ZM87.5772 7.427L87.4406 7.2807L87.4358 7.28558L87.5772 7.427ZM88.9832 17.953L89.1247 18.0945L89.1294 18.0895L88.9832 17.953ZM95.3862 21.753L95.2396 21.8898L95.2497 21.8992L95.3862 21.753ZM94.7212 14.609L94.5484 14.7098L94.5484 14.7098L94.7212 14.609ZM93.6382 13.602L93.5467 13.78L93.5528 13.7828L93.6382 13.602ZM90.6552 13.583L90.5657 13.4041L90.5657 13.4041L90.6552 13.583ZM89.6292 14.457L89.7919 14.5733L89.7938 14.5705L89.6292 14.457ZM89.2492 15.692V15.892H89.4492V15.692H89.2492ZM88.0522 15.692H87.8522V15.892H88.0522V15.692ZM88.6222 13.564L88.4522 13.4586L88.4516 13.4596L88.6222 13.564ZM90.2182 12.063L90.3142 12.2385L90.3142 12.2385L90.2182 12.063ZM94.8162 12.082L94.719 12.2569L94.7229 12.2589L94.8162 12.082ZM96.4502 13.716L96.2745 13.8116L96.2758 13.8139L96.4502 13.716ZM96.7732 21.753L96.6318 21.6116L96.6318 21.6116L96.7732 21.753ZM87.5772 21.753L87.4306 21.8898L87.4407 21.8992L87.5772 21.753ZM87.5772 11.873L87.4406 11.7267L87.4358 11.7316L87.5772 11.873ZM88.9832 21.753L89.1247 21.8945L89.1294 21.8895L88.9832 21.753ZM88.2802 18.019C88.0482 18.019 87.8638 17.9469 87.7136 17.8068L87.4407 18.0992C87.6706 18.3137 87.9549 18.419 88.2802 18.419V18.019ZM87.7234 17.8165C87.5833 17.6664 87.5112 17.482 87.5112 17.25H87.1112C87.1112 17.5753 87.2164 17.8596 87.431 18.0895L87.7234 17.8165ZM87.5112 17.25V8.13H87.1112V17.25H87.5112ZM87.5112 8.13C87.5112 7.88244 87.5849 7.70216 87.7186 7.56842L87.4358 7.28558C87.2148 7.5065 87.1112 7.79489 87.1112 8.13H87.5112ZM87.7136 7.57321C87.8638 7.43308 88.0482 7.361 88.2802 7.361V6.961C87.9549 6.961 87.6706 7.06625 87.4407 7.28079L87.7136 7.57321ZM88.2802 7.361C88.5277 7.361 88.708 7.43468 88.8418 7.56842L89.1246 7.28558C88.9037 7.06465 88.6153 6.961 88.2802 6.961V7.361ZM88.8418 7.56842C88.9755 7.70216 89.0492 7.88244 89.0492 8.13H89.4492C89.4492 7.79489 89.3455 7.5065 89.1246 7.28558L88.8418 7.56842ZM89.0492 8.13V17.25H89.4492V8.13H89.0492ZM89.0492 17.25C89.0492 17.482 88.9771 17.6664 88.837 17.8165L89.1294 18.0895C89.3439 17.8596 89.4492 17.5753 89.4492 17.25H89.0492ZM88.8418 17.8116C88.708 17.9453 88.5277 18.019 88.2802 18.019V18.419C88.6153 18.419 88.9037 18.3153 89.1246 18.0944L88.8418 17.8116ZM96.0892 21.819C95.8572 21.819 95.6728 21.7469 95.5226 21.6068L95.2497 21.8992C95.4796 22.1137 95.7639 22.219 96.0892 22.219V21.819ZM95.5324 21.6165C95.3923 21.4664 95.3202 21.282 95.3202 21.05H94.9202C94.9202 21.3753 95.0254 21.6596 95.24 21.8895L95.5324 21.6165ZM95.3202 21.05V16.376H94.9202V21.05H95.3202ZM95.3202 16.376C95.3202 15.6311 95.1832 15.004 94.8939 14.5082L94.5484 14.7098C94.7912 15.126 94.9202 15.6769 94.9202 16.376H95.3202ZM94.8939 14.5082C94.6086 14.0191 94.2179 13.6546 93.7236 13.4211L93.5528 13.7828C93.9705 13.9801 94.3018 14.2869 94.5484 14.7098L94.8939 14.5082ZM93.7296 13.4241C93.2536 13.1793 92.7083 13.06 92.0992 13.06V13.46C92.6554 13.46 93.1361 13.5687 93.5467 13.7799L93.7296 13.4241ZM92.0992 13.06C91.5394 13.06 91.027 13.1735 90.5657 13.4041L90.7446 13.7619C91.1447 13.5618 91.5949 13.46 92.0992 13.46V13.06ZM90.5657 13.4041C90.1073 13.6333 89.7385 13.9462 89.4645 14.3435L89.7938 14.5705C90.0265 14.2332 90.3417 13.9634 90.7446 13.7619L90.5657 13.4041ZM89.4664 14.3408C89.187 14.7319 89.0492 15.185 89.0492 15.692H89.4492C89.4492 15.2617 89.5647 14.8914 89.7919 14.5732L89.4664 14.3408ZM89.2492 15.492H88.0522V15.892H89.2492V15.492ZM88.2522 15.692C88.2522 14.9272 88.4338 14.2547 88.7927 13.6684L88.4516 13.4596C88.0505 14.1147 87.8522 14.8608 87.8522 15.692H88.2522ZM88.7922 13.6694C89.1661 13.0662 89.6723 12.5897 90.3142 12.2385L90.1222 11.8875C89.4214 12.271 88.8636 12.7951 88.4522 13.4586L88.7922 13.6694ZM90.3142 12.2385C90.9534 11.8887 91.6735 11.712 92.4792 11.712V11.312C91.6128 11.312 90.8256 11.5026 90.1222 11.8875L90.3142 12.2385ZM92.4792 11.712C93.3232 11.712 94.0681 11.8952 94.719 12.2568L94.9133 11.9072C94.1962 11.5088 93.3831 11.312 92.4792 11.312V11.712ZM94.7229 12.2589C95.3831 12.607 95.8998 13.1226 96.2745 13.8116L96.6259 13.6204C96.2152 12.8654 95.6426 12.2916 94.9095 11.9051L94.7229 12.2589ZM96.2758 13.8139C96.6604 14.499 96.8582 15.3499 96.8582 16.376H97.2582C97.2582 15.2994 97.0506 14.377 96.6246 13.6181L96.2758 13.8139ZM96.8582 16.376V21.05H97.2582V16.376H96.8582ZM96.8582 21.05C96.8582 21.2778 96.7827 21.4606 96.6318 21.6116L96.9146 21.8944C97.1436 21.6654 97.2582 21.3795 97.2582 21.05H96.8582ZM96.6318 21.6116C96.4963 21.7471 96.3213 21.819 96.0892 21.819V22.219C96.4144 22.219 96.6954 22.1136 96.9146 21.8944L96.6318 21.6116ZM88.2802 21.819C88.0482 21.819 87.8638 21.7469 87.7136 21.6068L87.4407 21.8992C87.6706 22.1137 87.9549 22.219 88.2802 22.219V21.819ZM87.7234 21.6165C87.5833 21.4664 87.5112 21.282 87.5112 21.05H87.1112C87.1112 21.3753 87.2164 21.6596 87.431 21.8895L87.7234 21.6165ZM87.5112 21.05V12.576H87.1112V21.05H87.5112ZM87.5112 12.576C87.5112 12.3284 87.5849 12.1482 87.7186 12.0144L87.4358 11.7316C87.2148 11.9525 87.1112 12.2409 87.1112 12.576H87.5112ZM87.7136 12.0192C87.8638 11.8791 88.0482 11.807 88.2802 11.807V11.407C87.9549 11.407 87.6706 11.5123 87.4407 11.7268L87.7136 12.0192ZM88.2802 11.807C88.5277 11.807 88.708 11.8807 88.8418 12.0144L89.1246 11.7316C88.9037 11.5107 88.6153 11.407 88.2802 11.407V11.807ZM88.8418 12.0144C88.9755 12.1482 89.0492 12.3284 89.0492 12.576H89.4492C89.4492 12.2409 89.3455 11.9525 89.1246 11.7316L88.8418 12.0144ZM89.0492 12.576V21.05H89.4492V12.576H89.0492ZM89.0492 21.05C89.0492 21.282 88.9771 21.4664 88.837 21.6165L89.1294 21.8895C89.3439 21.6596 89.4492 21.3753 89.4492 21.05H89.0492ZM88.8418 21.6116C88.708 21.7453 88.5277 21.819 88.2802 21.819V22.219C88.6153 22.219 88.9037 22.1153 89.1246 21.8944L88.8418 21.6116ZM100.281 21.734L100.144 21.8802L100.144 21.8802L100.281 21.734ZM100.528 9.289L100.352 9.19299L100.351 9.19558L100.528 9.289ZM102.048 7.731L102.147 7.90488L102.149 7.90339L102.048 7.731ZM104.974 7.408L104.838 7.55464L104.843 7.55914L104.974 7.408ZM104.974 8.662L105.11 8.80856L105.11 8.80821L104.974 8.662ZM103.055 9.232L102.951 9.06104L102.951 9.06104L103.055 9.232ZM102.219 10.125L102.042 10.0308L102.04 10.0356L102.219 10.125ZM98.5329 13.393L98.3972 13.54L98.3972 13.54L98.5329 13.393ZM98.5329 12.215L98.3972 12.068L98.3972 12.068L98.5329 12.215ZM104.518 12.215L104.654 12.068L104.654 12.068L104.518 12.215ZM104.518 13.393L104.654 13.54L104.654 13.54L104.518 13.393ZM100.927 21.8C100.741 21.8 100.574 21.7336 100.417 21.5878L100.144 21.8802C100.368 22.0891 100.631 22.2 100.927 22.2V21.8ZM100.417 21.5878C100.273 21.4531 100.196 21.2743 100.196 21.031H99.7959C99.7959 21.3704 99.9088 21.6603 100.144 21.8802L100.417 21.5878ZM100.196 21.031V11.664H99.7959V21.031H100.196ZM100.196 11.664C100.196 10.7781 100.368 10.0197 100.705 9.38242L100.351 9.19558C99.9784 9.90095 99.7959 10.7259 99.7959 11.664H100.196ZM100.703 9.385C101.053 8.7452 101.534 8.25328 102.147 7.90486L101.949 7.55714C101.27 7.94338 100.737 8.49013 100.352 9.193L100.703 9.385ZM102.149 7.90339C102.761 7.54376 103.472 7.361 104.29 7.361V6.961C103.41 6.961 102.627 7.15824 101.946 7.55861L102.149 7.90339ZM104.29 7.361C104.526 7.361 104.703 7.42944 104.838 7.55456L105.11 7.26144C104.89 7.05722 104.611 6.961 104.29 6.961V7.361ZM104.843 7.55914C104.989 7.68548 105.059 7.83916 105.059 8.035H105.459C105.459 7.72417 105.339 7.45985 105.105 7.25686L104.843 7.55914ZM105.059 8.035C105.059 8.21547 104.991 8.37291 104.837 8.51579L105.11 8.80821C105.337 8.59643 105.459 8.33586 105.459 8.035H105.059ZM104.838 8.51544C104.703 8.64056 104.526 8.709 104.29 8.709V9.109C104.611 9.109 104.89 9.01278 105.11 8.80856L104.838 8.51544ZM104.29 8.709C103.789 8.709 103.341 8.82434 102.951 9.06104L103.159 9.40296C103.478 9.20899 103.853 9.109 104.29 9.109V8.709ZM102.951 9.06104C102.565 9.29573 102.261 9.62047 102.042 10.0309L102.395 10.2191C102.582 9.86953 102.836 9.59894 103.159 9.40296L102.951 9.06104ZM102.04 10.0356C101.833 10.4488 101.734 10.9304 101.734 11.474H102.134C102.134 10.9789 102.224 10.5612 102.398 10.2144L102.04 10.0356ZM101.734 11.474V21.031H102.134V11.474H101.734ZM101.734 21.031C101.734 21.2786 101.66 21.4588 101.526 21.5926L101.809 21.8754C102.03 21.6545 102.134 21.3661 102.134 21.031H101.734ZM101.526 21.5926C101.396 21.7232 101.205 21.8 100.927 21.8V22.2C101.282 22.2 101.585 22.0995 101.809 21.8754L101.526 21.5926ZM99.1789 13.421C98.9532 13.421 98.7895 13.3577 98.6686 13.246L98.3972 13.54C98.6056 13.7323 98.8726 13.821 99.1789 13.821V13.421ZM98.6686 13.246C98.5457 13.1326 98.4859 12.9963 98.4859 12.823H98.0859C98.0859 13.1057 98.1908 13.3494 98.3972 13.54L98.6686 13.246ZM98.4859 12.823C98.4859 12.6174 98.5505 12.471 98.6686 12.362L98.3972 12.068C98.186 12.263 98.0859 12.5219 98.0859 12.823H98.4859ZM98.6686 12.362C98.7895 12.2503 98.9532 12.187 99.1789 12.187V11.787C98.8726 11.787 98.6056 11.8757 98.3972 12.068L98.6686 12.362ZM99.1789 12.187H103.872V11.787H99.1789V12.187ZM103.872 12.187C104.098 12.187 104.261 12.2503 104.382 12.362L104.654 12.068C104.445 11.8757 104.178 11.787 103.872 11.787V12.187ZM104.382 12.362C104.5 12.471 104.565 12.6174 104.565 12.823H104.965C104.965 12.5219 104.865 12.263 104.654 12.068L104.382 12.362ZM104.565 12.823C104.565 12.9963 104.505 13.1326 104.382 13.246L104.654 13.54C104.86 13.3494 104.965 13.1057 104.965 12.823H104.565ZM104.382 13.246C104.261 13.3577 104.098 13.421 103.872 13.421V13.821C104.178 13.821 104.445 13.7323 104.654 13.54L104.382 13.246ZM103.872 13.421H99.1789V13.821H103.872V13.421ZM108.321 21.544L108.224 21.7189L108.228 21.7209L108.321 21.544ZM106.687 19.891L106.512 19.9866L106.513 19.9889L106.687 19.891ZM106.364 11.873L106.223 11.7316L106.223 11.7316L106.364 11.873ZM107.751 11.873L107.605 12.0098L107.615 12.0192L107.751 11.873ZM108.435 18.998L108.262 19.0967L108.263 19.0988L108.435 18.998ZM109.518 20.024L109.429 20.2029L109.433 20.2048L109.518 20.024ZM112.501 20.024L112.412 19.8451L112.41 19.8462L112.501 20.024ZM113.527 19.15L113.692 19.2635L113.692 19.2635L113.527 19.15ZM113.907 17.915V17.715H113.707V17.915H113.907ZM115.104 17.915H115.304V17.715H115.104V17.915ZM114.515 20.043L114.345 19.9376L114.344 19.9401L114.515 20.043ZM112.938 21.544L112.842 21.3685L112.841 21.3693L112.938 21.544ZM114.173 21.734L114.027 21.8708L114.037 21.8802L114.173 21.734ZM114.173 11.854L114.037 11.7077L114.032 11.7126L114.173 11.854ZM115.579 21.734L115.721 21.8755L115.726 21.8705L115.579 21.734ZM110.677 21.895C109.832 21.895 109.08 21.7177 108.415 21.3671L108.228 21.7209C108.957 22.105 109.775 22.295 110.677 22.295V21.895ZM108.419 21.3692C107.769 21.0082 107.25 20.4848 106.862 19.7931L106.513 19.9889C106.935 20.7412 107.506 21.3198 108.224 21.7188L108.419 21.3692ZM106.863 19.7954C106.49 19.1098 106.298 18.258 106.298 17.231H105.898C105.898 18.3066 106.099 19.2282 106.512 19.9866L106.863 19.7954ZM106.298 17.231V12.557H105.898V17.231H106.298ZM106.298 12.557C106.298 12.3249 106.37 12.1499 106.506 12.0144L106.223 11.7316C106.004 11.9508 105.898 12.2317 105.898 12.557H106.298ZM106.506 12.0144C106.657 11.8635 106.84 11.788 107.067 11.788V11.388C106.738 11.388 106.452 11.5025 106.223 11.7316L106.506 12.0144ZM107.067 11.788C107.295 11.788 107.469 11.8632 107.605 12.0095L107.898 11.7365C107.68 11.5028 107.397 11.388 107.067 11.388V11.788ZM107.615 12.0192C107.761 12.1558 107.836 12.3293 107.836 12.557H108.236C108.236 12.2274 108.122 11.9449 107.888 11.7268L107.615 12.0192ZM107.836 12.557V17.231H108.236V12.557H107.836ZM107.836 17.231C107.836 17.9643 107.974 18.5899 108.262 19.0967L108.609 18.8993C108.365 18.4688 108.236 17.9163 108.236 17.231H107.836ZM108.263 19.0988C108.548 19.5871 108.937 19.9569 109.429 20.2029L109.608 19.8451C109.188 19.6351 108.855 19.3209 108.608 18.8972L108.263 19.0988ZM109.433 20.2048C109.919 20.4343 110.462 20.547 111.057 20.547V20.147C110.513 20.147 110.03 20.0443 109.604 19.8432L109.433 20.2048ZM111.057 20.547C111.629 20.547 112.143 20.4339 112.593 20.2018L112.41 19.8462C112.024 20.0448 111.575 20.147 111.057 20.147V20.547ZM112.591 20.2029C113.049 19.9737 113.418 19.6608 113.692 19.2635L113.363 19.0365C113.13 19.3738 112.815 19.6436 112.412 19.8451L112.591 20.2029ZM113.692 19.2635C113.969 18.8621 114.107 18.4106 114.107 17.915H113.707C113.707 18.3314 113.593 18.7033 113.363 19.0365L113.692 19.2635ZM113.907 18.115H115.104V17.715H113.907V18.115ZM114.904 17.915C114.904 18.6652 114.717 19.3377 114.345 19.9376L114.685 20.1484C115.099 19.4817 115.304 18.7355 115.304 17.915H114.904ZM114.344 19.9401C113.983 20.5418 113.484 21.0176 112.842 21.3685L113.034 21.7195C113.736 21.3357 114.288 20.8108 114.687 20.1459L114.344 19.9401ZM112.841 21.3693C112.216 21.7181 111.496 21.895 110.677 21.895V22.295C111.556 22.295 112.344 22.1046 113.036 21.7187L112.841 21.3693ZM114.876 21.8C114.644 21.8 114.46 21.7279 114.31 21.5878L114.037 21.8802C114.267 22.0947 114.551 22.2 114.876 22.2V21.8ZM114.32 21.5975C114.18 21.4474 114.107 21.263 114.107 21.031H113.707C113.707 21.3563 113.813 21.6406 114.027 21.8705L114.32 21.5975ZM114.107 21.031V12.557H113.707V21.031H114.107ZM114.107 12.557C114.107 12.3094 114.181 12.1292 114.315 11.9954L114.032 11.7126C113.811 11.9335 113.707 12.2219 113.707 12.557H114.107ZM114.31 12.0002C114.46 11.8601 114.644 11.788 114.876 11.788V11.388C114.551 11.388 114.267 11.4933 114.037 11.7078L114.31 12.0002ZM114.876 11.788C115.124 11.788 115.304 11.8617 115.438 11.9954L115.721 11.7126C115.5 11.4917 115.212 11.388 114.876 11.388V11.788ZM115.438 11.9954C115.572 12.1292 115.645 12.3094 115.645 12.557H116.045C116.045 12.2219 115.942 11.9335 115.721 11.7126L115.438 11.9954ZM115.645 12.557V21.031H116.045V12.557H115.645ZM115.645 21.031C115.645 21.263 115.573 21.4474 115.433 21.5975L115.726 21.8705C115.94 21.6406 116.045 21.3563 116.045 21.031H115.645ZM115.438 21.5926C115.304 21.7263 115.124 21.8 114.876 21.8V22.2C115.212 22.2 115.5 22.0963 115.721 21.8754L115.438 21.5926ZM120.095 21.677L120.025 21.8644L120.029 21.8658L120.095 21.677ZM118.347 20.632L118.201 20.7689L118.205 20.7734L118.347 20.632ZM118.1 19.948L117.901 19.9197L117.901 19.9281L118.1 19.948ZM118.48 19.302L118.601 19.4609L118.605 19.4582L118.48 19.302ZM119.221 19.055L119.189 19.2529L119.201 19.254L119.221 19.055ZM119.867 19.378L120.016 19.2446L120.013 19.2415L119.867 19.378ZM120.893 20.062L120.809 20.2438L120.815 20.2463L120.893 20.062ZM124.161 20.005L124.056 19.8345L124.054 19.836L124.161 20.005ZM124.769 19.074L124.969 19.0807L124.969 19.0807L124.769 19.074ZM124.218 18.086L124.097 18.2454L124.099 18.2473L124.218 18.086ZM122.185 17.402L122.146 17.5982L122.149 17.5989L122.185 17.402ZM119.392 16.262L119.259 16.4115L119.26 16.4129L119.392 16.262ZM119.107 12.804L119.255 12.9385L119.257 12.9363L119.107 12.804ZM120.57 11.854L120.634 12.0434L120.638 12.0421L120.57 11.854ZM124.655 11.93L124.731 11.7451L124.731 11.7451L124.655 11.93ZM126.194 13.032L126.038 13.158L126.043 13.1637L126.194 13.032ZM126.441 13.678L126.64 13.6897L126.64 13.6891L126.441 13.678ZM126.118 14.229L126.231 14.3939L126.238 14.389L126.118 14.229ZM125.396 14.362L125.36 14.5588L125.36 14.5588L125.396 14.362ZM124.693 14.02L124.554 14.1643L124.556 14.1662L124.693 14.02ZM123.667 13.393L123.607 13.584L123.607 13.584L123.667 13.393ZM120.969 13.507L120.882 13.327L120.879 13.3281L120.969 13.507ZM120.57 14.97L120.398 15.0729L120.402 15.0797L120.407 15.0862L120.57 14.97ZM121.292 15.464L121.213 15.6479L121.219 15.6502L121.292 15.464ZM122.85 15.882L122.81 16.078L122.81 16.0781L122.85 15.882ZM125.092 16.604L124.997 16.7804L124.999 16.7812L125.092 16.604ZM126.289 17.63L126.118 17.7345L126.12 17.737L126.289 17.63ZM126.175 20.537L126.009 20.425L126.007 20.4282L126.175 20.537ZM124.807 21.658L124.723 21.4762L124.722 21.4769L124.807 21.658ZM122.565 21.876C121.698 21.876 120.897 21.7461 120.161 21.4882L120.029 21.8658C120.812 22.1399 121.658 22.276 122.565 22.276V21.876ZM120.165 21.4896C119.435 21.2176 118.88 20.8825 118.488 20.4906L118.205 20.7734C118.649 21.2175 119.259 21.579 120.025 21.8644L120.165 21.4896ZM118.493 20.4952C118.338 20.3303 118.28 20.1581 118.299 19.9679L117.901 19.9281C117.869 20.2445 117.975 20.5283 118.201 20.7688L118.493 20.4952ZM118.298 19.9763C118.328 19.7627 118.427 19.594 118.601 19.4609L118.358 19.1431C118.102 19.3393 117.947 19.6013 117.902 19.9197L118.298 19.9763ZM118.605 19.4582C118.829 19.2784 119.021 19.226 119.189 19.2526L119.252 18.8574C118.939 18.808 118.637 18.9202 118.355 19.1458L118.605 19.4582ZM119.201 19.254C119.405 19.2744 119.575 19.3591 119.72 19.5145L120.013 19.2415C119.803 19.0169 119.543 18.8863 119.241 18.856L119.201 19.254ZM119.718 19.5114C119.959 19.7811 120.329 20.023 120.809 20.2437L120.976 19.8803C120.519 19.6703 120.205 19.4563 120.016 19.2446L119.718 19.5114ZM120.815 20.2463C121.324 20.4605 121.882 20.566 122.489 20.566V20.166C121.93 20.166 121.424 20.0689 120.97 19.8777L120.815 20.2463ZM122.489 20.566C123.24 20.566 123.841 20.444 124.268 20.174L124.054 19.836C123.72 20.0473 123.207 20.166 122.489 20.166V20.566ZM124.265 20.1755C124.701 19.9082 124.953 19.5426 124.969 19.0807L124.569 19.0673C124.559 19.3654 124.405 19.6204 124.056 19.8345L124.265 20.1755ZM124.969 19.0807C124.984 18.6186 124.755 18.2319 124.336 17.9247L124.099 18.2473C124.441 18.4975 124.579 18.7694 124.569 19.0673L124.969 19.0807ZM124.339 17.9267C123.93 17.6169 123.211 17.383 122.22 17.2051L122.149 17.5989C123.135 17.7757 123.77 17.9977 124.097 18.2453L124.339 17.9267ZM122.223 17.2058C120.958 16.9551 120.067 16.5841 119.523 16.1111L119.26 16.4129C119.882 16.9532 120.853 17.3422 122.146 17.5982L122.223 17.2058ZM119.525 16.1125C118.995 15.6422 118.737 15.0751 118.737 14.4H118.337C118.337 15.1942 118.648 15.8685 119.259 16.4115L119.525 16.1125ZM118.737 14.4C118.737 13.7961 118.913 13.3144 119.255 12.9385L118.959 12.6695C118.54 13.1296 118.337 13.7119 118.337 14.4H118.737ZM119.257 12.9363C119.611 12.5342 120.069 12.2359 120.634 12.0433L120.505 11.6647C119.88 11.8775 119.362 12.2124 118.957 12.6717L119.257 12.9363ZM120.638 12.0421C121.211 11.8348 121.808 11.731 122.432 11.731V11.331C121.763 11.331 121.119 11.4425 120.502 11.6659L120.638 12.0421ZM122.432 11.731C123.247 11.731 123.961 11.8606 124.578 12.1149L124.731 11.7451C124.056 11.4674 123.289 11.331 122.432 11.331V11.731ZM124.578 12.1149C125.198 12.3702 125.682 12.7191 126.038 13.158L126.349 12.906C125.945 12.4076 125.403 12.0218 124.731 11.7451L124.578 12.1149ZM126.043 13.1637C126.193 13.3346 126.25 13.5003 126.241 13.6669L126.64 13.6891C126.656 13.3997 126.549 13.1347 126.344 12.9003L126.043 13.1637ZM126.241 13.6663C126.232 13.8124 126.162 13.9455 125.998 14.069L126.238 14.389C126.478 14.2085 126.624 13.9743 126.64 13.6897L126.241 13.6663ZM126.004 14.0642C125.852 14.169 125.667 14.208 125.431 14.1652L125.36 14.5588C125.682 14.6173 125.978 14.5676 126.231 14.3938L126.004 14.0642ZM125.431 14.1652C125.187 14.1208 124.989 14.0226 124.829 13.8738L124.556 14.1662C124.777 14.372 125.047 14.5019 125.36 14.5588L125.431 14.1652ZM124.831 13.8757C124.495 13.5533 124.127 13.3264 123.726 13.202L123.607 13.584C123.941 13.6876 124.257 13.8787 124.554 14.1643L124.831 13.8757ZM123.726 13.202C123.335 13.0808 122.89 13.022 122.394 13.022V13.422C122.86 13.422 123.263 13.4772 123.607 13.584L123.726 13.202ZM122.394 13.022C121.814 13.022 121.308 13.1207 120.882 13.327L121.056 13.687C121.415 13.5133 121.858 13.422 122.394 13.422V13.022ZM120.879 13.3281C120.666 13.4345 120.494 13.5719 120.376 13.7458C120.256 13.9213 120.199 14.1229 120.199 14.343H120.599C120.599 14.1958 120.636 14.0743 120.706 13.9712C120.778 13.8664 120.891 13.7695 121.058 13.6859L120.879 13.3281ZM120.199 14.343C120.199 14.6061 120.265 14.8509 120.398 15.0729L120.741 14.8671C120.646 14.7091 120.599 14.5359 120.599 14.343H120.199ZM120.407 15.0862C120.566 15.3084 120.847 15.491 121.213 15.6478L121.37 15.2802C121.027 15.133 120.827 14.9862 120.732 14.8538L120.407 15.0862ZM121.219 15.6502C121.589 15.7958 122.122 15.9379 122.81 16.078L122.89 15.686C122.209 15.5474 121.703 15.4108 121.365 15.2778L121.219 15.6502ZM122.81 16.0781C123.751 16.2662 124.477 16.502 124.997 16.7804L125.186 16.4276C124.617 16.1234 123.848 15.8778 122.889 15.6859L122.81 16.0781ZM124.999 16.7812C125.536 17.0617 125.902 17.382 126.118 17.7345L126.459 17.5255C126.194 17.0927 125.762 16.729 125.184 16.4268L124.999 16.7812ZM126.12 17.737C126.338 18.0811 126.45 18.4863 126.45 18.96H126.85C126.85 18.4204 126.721 17.9389 126.458 17.523L126.12 17.737ZM126.45 18.96C126.45 19.504 126.303 19.9905 126.009 20.425L126.34 20.649C126.68 20.1462 126.85 19.5813 126.85 18.96H126.45ZM126.007 20.4282C125.727 20.8592 125.304 21.2102 124.723 21.4762L124.89 21.8398C125.526 21.5485 126.014 21.1522 126.342 20.6458L126.007 20.4282ZM124.722 21.4769C124.161 21.7394 123.445 21.876 122.565 21.876V22.276C123.483 22.276 124.262 22.1339 124.891 21.8391L124.722 21.4769ZM129.081 21.734L128.934 21.8708L128.945 21.8802L129.081 21.734ZM129.081 11.873L128.944 11.7267L128.94 11.7316L129.081 11.873ZM130.487 21.734L130.629 21.8755L130.633 21.8705L130.487 21.734ZM128.891 9.555L128.746 9.69293L128.753 9.7L128.891 9.555ZM128.891 7.788L128.75 7.64658L128.75 7.64658L128.891 7.788ZM130.658 7.788L130.513 7.92593L130.52 7.933L130.658 7.788ZM130.658 9.555L130.799 9.69642L130.658 9.555ZM129.784 21.8C129.552 21.8 129.368 21.7279 129.218 21.5878L128.945 21.8802C129.174 22.0947 129.459 22.2 129.784 22.2V21.8ZM129.227 21.5975C129.087 21.4474 129.015 21.263 129.015 21.031H128.615C128.615 21.3563 128.72 21.6406 128.935 21.8705L129.227 21.5975ZM129.015 21.031V12.576H128.615V21.031H129.015ZM129.015 12.576C129.015 12.3284 129.089 12.1482 129.222 12.0144L128.94 11.7316C128.719 11.9525 128.615 12.2409 128.615 12.576H129.015ZM129.218 12.0192C129.368 11.8791 129.552 11.807 129.784 11.807V11.407C129.459 11.407 129.174 11.5123 128.945 11.7268L129.218 12.0192ZM129.784 11.807C130.032 11.807 130.212 11.8807 130.346 12.0144L130.628 11.7316C130.408 11.5107 130.119 11.407 129.784 11.407V11.807ZM130.346 12.0144C130.479 12.1482 130.553 12.3284 130.553 12.576H130.953C130.953 12.2409 130.849 11.9525 130.628 11.7316L130.346 12.0144ZM130.553 12.576V21.031H130.953V12.576H130.553ZM130.553 21.031C130.553 21.263 130.481 21.4474 130.341 21.5975L130.633 21.8705C130.848 21.6406 130.953 21.3563 130.953 21.031H130.553ZM130.346 21.5926C130.212 21.7263 130.032 21.8 129.784 21.8V22.2C130.119 22.2 130.408 22.0963 130.628 21.8754L130.346 21.5926ZM129.784 9.716C129.495 9.716 129.246 9.61621 129.029 9.41L128.753 9.7C129.043 9.97512 129.39 10.116 129.784 10.116V9.716ZM129.036 9.41725C128.83 9.20019 128.73 8.95151 128.73 8.662H128.33C128.33 9.05649 128.471 9.40314 128.746 9.69275L129.036 9.41725ZM128.73 8.662C128.73 8.37275 128.83 8.13238 129.032 7.92942L128.75 7.64658C128.471 7.92496 128.33 8.26724 128.33 8.662H128.73ZM129.032 7.92942C129.25 7.71161 129.498 7.608 129.784 7.608V7.208C129.386 7.208 129.038 7.35772 128.75 7.64658L129.032 7.92942ZM129.784 7.608C130.07 7.608 130.309 7.71119 130.513 7.92575L130.803 7.65025C130.526 7.35815 130.182 7.208 129.784 7.208V7.608ZM130.52 7.933C130.735 8.13683 130.838 8.37615 130.838 8.662H131.238C131.238 8.26385 131.088 7.9205 130.796 7.643L130.52 7.933ZM130.838 8.662C130.838 8.94821 130.734 9.19577 130.517 9.41358L130.799 9.69642C131.088 9.40757 131.238 9.05979 131.238 8.662H130.838ZM130.517 9.41358C130.314 9.61653 130.073 9.716 129.784 9.716V10.116C130.179 10.116 130.521 9.9748 130.799 9.69642L130.517 9.41358ZM135.878 21.411L135.778 21.584L135.78 21.5852L135.878 21.411ZM134.016 19.549L133.842 19.6461L133.843 19.6494L134.016 19.549ZM134.016 14.077L133.843 13.9778L133.842 13.9787L134.016 14.077ZM135.878 12.215L135.977 12.3892L135.979 12.388L135.878 12.215ZM141.293 12.215L141.193 12.388L141.195 12.3892L141.293 12.215ZM143.136 14.077L142.962 14.1741L142.963 14.1774L143.136 14.077ZM143.155 19.549L143.33 19.6473L143.33 19.6461L143.155 19.549ZM141.312 21.411L141.411 21.5852L141.413 21.584L141.312 21.411ZM140.343 19.91L140.241 19.7385L140.241 19.7385L140.343 19.91ZM141.521 18.656L141.346 18.5599L141.344 18.5632L141.521 18.656ZM141.521 14.97L141.343 15.0611L141.346 15.0661L141.521 14.97ZM140.343 13.697L140.241 13.8685L140.241 13.8685L140.343 13.697ZM136.847 13.697L136.95 13.8685L136.95 13.8685L136.847 13.697ZM135.65 14.97L135.826 15.0661L135.827 15.0643L135.65 14.97ZM135.65 18.656L135.826 18.5599L135.826 18.5599L135.65 18.656ZM136.847 19.91L136.745 20.0815L136.745 20.0815L136.847 19.91ZM138.595 21.876C137.599 21.876 136.728 21.661 135.977 21.2368L135.78 21.5852C136.599 22.0477 137.54 22.276 138.595 22.276V21.876ZM135.979 21.238C135.224 20.7995 134.628 20.2038 134.189 19.4486L133.843 19.6494C134.317 20.4648 134.963 21.1105 135.778 21.584L135.979 21.238ZM134.191 19.4519C133.766 18.6871 133.551 17.8093 133.551 16.813H133.151C133.151 17.8687 133.38 18.8149 133.842 19.6461L134.191 19.4519ZM133.551 16.813C133.551 15.8035 133.767 14.9264 134.191 14.1753L133.842 13.9787C133.38 14.7983 133.151 15.7452 133.151 16.813H133.551ZM134.19 14.1762C134.629 13.4089 135.223 12.8144 135.977 12.3892L135.78 12.0408C134.963 12.5023 134.316 13.1491 133.843 13.9778L134.19 14.1762ZM135.979 12.388C136.73 11.9519 137.6 11.731 138.595 11.731V11.331C137.539 11.331 136.598 11.5661 135.778 12.042L135.979 12.388ZM138.595 11.731C139.578 11.731 140.442 11.9517 141.193 12.388L141.394 12.042C140.575 11.5663 139.64 11.331 138.595 11.331V11.731ZM141.195 12.3892C141.948 12.8141 142.536 13.408 142.962 14.1741L143.311 13.9799C142.85 13.15 142.21 12.5025 141.392 12.0408L141.195 12.3892ZM142.963 14.1774C143.399 14.9281 143.62 15.8045 143.62 16.813H144.02C144.02 15.7442 143.786 14.7966 143.309 13.9766L142.963 14.1774ZM143.62 16.813C143.62 17.8093 143.405 18.6871 142.981 19.4519L143.33 19.6461C143.792 18.8149 144.02 17.8687 144.02 16.813H143.62ZM142.981 19.4507C142.556 20.2048 141.967 20.7998 141.212 21.238L141.413 21.584C142.229 21.1102 142.869 20.4639 143.33 19.6473L142.981 19.4507ZM141.214 21.2368C140.463 21.661 139.592 21.876 138.595 21.876V22.276C139.651 22.276 140.591 22.0477 141.411 21.5852L141.214 21.2368ZM138.595 20.566C139.286 20.566 139.905 20.4062 140.446 20.0815L140.241 19.7385C139.768 20.0218 139.222 20.166 138.595 20.166V20.566ZM140.446 20.0815C140.985 19.7583 141.403 19.3128 141.699 18.7488L141.344 18.5632C141.082 19.0632 140.715 19.4537 140.241 19.7385L140.446 20.0815ZM141.697 18.7521C142.007 18.1865 142.158 17.5382 142.158 16.813H141.758C141.758 17.4811 141.619 18.0615 141.346 18.5599L141.697 18.7521ZM142.158 16.813C142.158 16.0878 142.007 15.4395 141.697 14.8739L141.346 15.0661C141.619 15.5645 141.758 16.1449 141.758 16.813H142.158ZM141.699 14.8789C141.404 14.3022 140.986 13.8495 140.446 13.5255L140.241 13.8685C140.714 14.1525 141.081 14.5485 141.343 15.0611L141.699 14.8789ZM140.446 13.5255C139.905 13.2008 139.286 13.041 138.595 13.041V13.441C139.222 13.441 139.768 13.5852 140.241 13.8685L140.446 13.5255ZM138.595 13.041C137.905 13.041 137.286 13.2008 136.745 13.5255L136.95 13.8685C137.422 13.5852 137.969 13.441 138.595 13.441V13.041ZM136.745 13.5255C136.205 13.849 135.782 14.3006 135.474 14.8757L135.827 15.0643C136.102 14.55 136.476 14.153 136.95 13.8685L136.745 13.5255ZM135.475 14.8739C135.165 15.4395 135.013 16.0878 135.013 16.813H135.413C135.413 16.1449 135.553 15.5645 135.826 15.0661L135.475 14.8739ZM135.013 16.813C135.013 17.5382 135.165 18.1865 135.475 18.7521L135.826 18.5599C135.553 18.0615 135.413 17.4811 135.413 16.813H135.013ZM135.475 18.7521C135.783 19.3143 136.207 19.7587 136.745 20.0815L136.95 19.7385C136.475 19.4533 136.101 19.0617 135.826 18.5599L135.475 18.7521ZM136.745 20.0815C137.286 20.4062 137.905 20.566 138.595 20.566V20.166C137.969 20.166 137.422 20.0218 136.95 19.7385L136.745 20.0815ZM154.305 21.753L154.158 21.8898L154.168 21.8992L154.305 21.753ZM153.64 14.609L153.467 14.7098L153.467 14.7098L153.64 14.609ZM152.557 13.602L152.465 13.78L152.471 13.7828L152.557 13.602ZM149.574 13.583L149.484 13.4041L149.484 13.4041L149.574 13.583ZM148.548 14.457L148.71 14.5733L148.712 14.5705L148.548 14.457ZM148.168 15.692V15.892H148.368V15.692H148.168ZM146.971 15.692H146.771V15.892H146.971V15.692ZM147.541 13.564L147.371 13.4586L147.37 13.4596L147.541 13.564ZM149.137 12.063L149.233 12.2385L149.233 12.2385L149.137 12.063ZM153.735 12.082L153.638 12.2569L153.641 12.2589L153.735 12.082ZM155.369 13.716L155.193 13.8116L155.194 13.8139L155.369 13.716ZM155.692 21.753L155.55 21.6116L155.55 21.6116L155.692 21.753ZM146.496 21.753L146.349 21.8898L146.359 21.8992L146.496 21.753ZM146.496 11.873L146.359 11.7267L146.354 11.7316L146.496 11.873ZM147.902 21.753L148.043 21.8945L148.048 21.8895L147.902 21.753ZM155.008 21.819C154.776 21.819 154.591 21.7469 154.441 21.6068L154.168 21.8992C154.398 22.1137 154.682 22.219 155.008 22.219V21.819ZM154.451 21.6165C154.311 21.4664 154.239 21.282 154.239 21.05H153.839C153.839 21.3753 153.944 21.6596 154.159 21.8895L154.451 21.6165ZM154.239 21.05V16.376H153.839V21.05H154.239ZM154.239 16.376C154.239 15.6311 154.102 15.004 153.812 14.5082L153.467 14.7098C153.71 15.126 153.839 15.6769 153.839 16.376H154.239ZM153.812 14.5082C153.527 14.0191 153.136 13.6546 152.642 13.4211L152.471 13.7828C152.889 13.9801 153.22 14.2869 153.467 14.7098L153.812 14.5082ZM152.648 13.4241C152.172 13.1793 151.627 13.06 151.018 13.06V13.46C151.574 13.46 152.055 13.5687 152.465 13.7799L152.648 13.4241ZM151.018 13.06C150.458 13.06 149.946 13.1735 149.484 13.4041L149.663 13.7619C150.063 13.5618 150.513 13.46 151.018 13.46V13.06ZM149.484 13.4041C149.026 13.6333 148.657 13.9462 148.383 14.3435L148.712 14.5705C148.945 14.2332 149.26 13.9634 149.663 13.7619L149.484 13.4041ZM148.385 14.3408C148.106 14.7319 147.968 15.185 147.968 15.692H148.368C148.368 15.2617 148.483 14.8914 148.71 14.5732L148.385 14.3408ZM148.168 15.492H146.971V15.892H148.168V15.492ZM147.171 15.692C147.171 14.9272 147.352 14.2547 147.711 13.6684L147.37 13.4596C146.969 14.1147 146.771 14.8608 146.771 15.692H147.171ZM147.711 13.6694C148.085 13.0662 148.591 12.5897 149.233 12.2385L149.041 11.8875C148.34 12.271 147.782 12.7951 147.371 13.4586L147.711 13.6694ZM149.233 12.2385C149.872 11.8887 150.592 11.712 151.398 11.712V11.312C150.531 11.312 149.744 11.5026 149.041 11.8875L149.233 12.2385ZM151.398 11.712C152.242 11.712 152.987 11.8952 153.638 12.2568L153.832 11.9072C153.115 11.5088 152.302 11.312 151.398 11.312V11.712ZM153.641 12.2589C154.302 12.607 154.818 13.1226 155.193 13.8116L155.544 13.6204C155.134 12.8654 154.561 12.2916 153.828 11.9051L153.641 12.2589ZM155.194 13.8139C155.579 14.499 155.777 15.3499 155.777 16.376H156.177C156.177 15.2994 155.969 14.377 155.543 13.6181L155.194 13.8139ZM155.777 16.376V21.05H156.177V16.376H155.777ZM155.777 21.05C155.777 21.2778 155.701 21.4606 155.55 21.6116L155.833 21.8944C156.062 21.6654 156.177 21.3795 156.177 21.05H155.777ZM155.55 21.6116C155.415 21.7471 155.24 21.819 155.008 21.819V22.219C155.333 22.219 155.614 22.1136 155.833 21.8944L155.55 21.6116ZM147.199 21.819C146.967 21.819 146.782 21.7469 146.632 21.6068L146.359 21.8992C146.589 22.1137 146.873 22.219 147.199 22.219V21.819ZM146.642 21.6165C146.502 21.4664 146.43 21.282 146.43 21.05H146.03C146.03 21.3753 146.135 21.6596 146.35 21.8895L146.642 21.6165ZM146.43 21.05V12.576H146.03V21.05H146.43ZM146.43 12.576C146.43 12.3284 146.503 12.1482 146.637 12.0144L146.354 11.7316C146.133 11.9525 146.03 12.2409 146.03 12.576H146.43ZM146.632 12.0192C146.782 11.8791 146.967 11.807 147.199 11.807V11.407C146.873 11.407 146.589 11.5123 146.359 11.7268L146.632 12.0192ZM147.199 11.807C147.446 11.807 147.627 11.8807 147.76 12.0144L148.043 11.7316C147.822 11.5107 147.534 11.407 147.199 11.407V11.807ZM147.76 12.0144C147.894 12.1482 147.968 12.3284 147.968 12.576H148.368C148.368 12.2409 148.264 11.9525 148.043 11.7316L147.76 12.0144ZM147.968 12.576V21.05H148.368V12.576H147.968ZM147.968 21.05C147.968 21.282 147.896 21.4664 147.756 21.6165L148.048 21.8895C148.262 21.6596 148.368 21.3753 148.368 21.05H147.968ZM147.76 21.6116C147.627 21.7453 147.446 21.819 147.199 21.819V22.219C147.534 22.219 147.822 22.1153 148.043 21.8944L147.76 21.6116Z" fill="black" mask="url(#path-4-outside-1_1_14)"/>
</svg>
