<svg width="106" height="17" viewBox="0 0 106 17" fill="none" xmlns="http://www.w3.org/2000/svg">
<mask id="path-1-outside-1_3_21" maskUnits="userSpaceOnUse" x="0.5" y="0.0225067" width="105" height="17" fill="black">
<rect fill="white" x="0.5" y="0.0225067" width="105" height="17"/>
<path d="M5.9511 16.0985C4.9631 16.0985 4.0701 15.8705 3.2721 15.4145C2.48677 14.9458 1.85977 14.3125 1.3911 13.5145C0.935102 12.7165 0.707102 11.8172 0.707102 10.8165C0.707102 9.81584 0.916102 8.92284 1.3341 8.13751C1.76477 7.33951 2.34744 6.71251 3.0821 6.25651C3.81677 5.78784 4.64644 5.55351 5.5711 5.55351C6.31844 5.55351 7.00877 5.71184 7.6421 6.02851C8.27544 6.33251 8.80744 6.75051 9.2381 7.28251V2.15251C9.2381 1.86117 9.32677 1.62684 9.5041 1.44951C9.6941 1.27217 9.92844 1.18351 10.2071 1.18351C10.4984 1.18351 10.7328 1.27217 10.9101 1.44951C11.0874 1.62684 11.1761 1.86117 11.1761 2.15251V10.8165C11.1761 11.8172 10.9418 12.7165 10.4731 13.5145C10.0171 14.3125 9.39644 14.9458 8.6111 15.4145C7.82577 15.8705 6.9391 16.0985 5.9511 16.0985ZM5.9511 14.3885C6.5971 14.3885 7.17344 14.2365 7.6801 13.9325C8.18677 13.6158 8.58577 13.1852 8.8771 12.6405C9.16844 12.0958 9.3141 11.4878 9.3141 10.8165C9.3141 10.1325 9.16844 9.52451 8.8771 8.99251C8.58577 8.46051 8.18677 8.04251 7.6801 7.73851C7.17344 7.42184 6.5971 7.26351 5.9511 7.26351C5.31777 7.26351 4.74144 7.42184 4.2221 7.73851C3.71544 8.04251 3.3101 8.46051 3.0061 8.99251C2.71477 9.52451 2.5691 10.1325 2.5691 10.8165C2.5691 11.4878 2.71477 12.0958 3.0061 12.6405C3.3101 13.1852 3.71544 13.6158 4.2221 13.9325C4.74144 14.2365 5.31777 14.3885 5.9511 14.3885ZM18.4555 16.0985C17.5308 16.0985 16.7011 15.8705 15.9665 15.4145C15.2318 14.9458 14.6491 14.3188 14.2185 13.5335C13.8005 12.7355 13.5915 11.8362 13.5915 10.8355C13.5915 9.83484 13.8195 8.93551 14.2755 8.13751C14.7441 7.33951 15.3711 6.71251 16.1565 6.25651C16.9545 5.78784 17.8475 5.55351 18.8355 5.55351C19.8235 5.55351 20.7101 5.78784 21.4955 6.25651C22.2808 6.71251 22.9015 7.33951 23.3575 8.13751C23.8261 8.93551 24.0605 9.83484 24.0605 10.8355H23.3195C23.3195 11.8362 23.1041 12.7355 22.6735 13.5335C22.2555 14.3188 21.6791 14.9458 20.9445 15.4145C20.2098 15.8705 19.3801 16.0985 18.4555 16.0985ZM18.8355 14.3885C19.4815 14.3885 20.0578 14.2365 20.5645 13.9325C21.0711 13.6158 21.4701 13.1915 21.7615 12.6595C22.0528 12.1148 22.1985 11.5068 22.1985 10.8355C22.1985 10.1515 22.0528 9.54351 21.7615 9.01151C21.4701 8.46684 21.0711 8.04251 20.5645 7.73851C20.0578 7.42184 19.4815 7.26351 18.8355 7.26351C18.2021 7.26351 17.6258 7.42184 17.1065 7.73851C16.5998 8.04251 16.1945 8.46684 15.8905 9.01151C15.5991 9.54351 15.4535 10.1515 15.4535 10.8355C15.4535 11.5068 15.5991 12.1148 15.8905 12.6595C16.1945 13.1915 16.5998 13.6158 17.1065 13.9325C17.6258 14.2365 18.2021 14.3885 18.8355 14.3885ZM23.0915 16.0415C22.8128 16.0415 22.5785 15.9528 22.3885 15.7755C22.2111 15.5855 22.1225 15.3512 22.1225 15.0725V12.1655L22.4835 10.1515L24.0605 10.8355V15.0725C24.0605 15.3512 23.9655 15.5855 23.7755 15.7755C23.5981 15.9528 23.3701 16.0415 23.0915 16.0415ZM30.2508 16.0985C29.3641 16.0985 28.5408 15.9655 27.7808 15.6995C27.0334 15.4208 26.4508 15.0725 26.0328 14.6545C25.8428 14.4518 25.7604 14.2238 25.7858 13.9705C25.8238 13.7045 25.9504 13.4892 26.1658 13.3245C26.4191 13.1218 26.6661 13.0395 26.9068 13.0775C27.1601 13.1028 27.3754 13.2105 27.5528 13.4005C27.7681 13.6412 28.1101 13.8692 28.5788 14.0845C29.0601 14.2872 29.5921 14.3885 30.1748 14.3885C30.9094 14.3885 31.4668 14.2682 31.8468 14.0275C32.2394 13.7868 32.4421 13.4765 32.4548 13.0965C32.4674 12.7165 32.2838 12.3872 31.9038 12.1085C31.5364 11.8298 30.8588 11.6018 29.8708 11.4245C28.5914 11.1712 27.6604 10.7912 27.0778 10.2845C26.5078 9.77784 26.2228 9.15717 26.2228 8.42251C26.2228 7.77651 26.4128 7.24451 26.7928 6.82651C27.1728 6.39584 27.6604 6.07917 28.2558 5.87651C28.8511 5.66117 29.4718 5.55351 30.1178 5.55351C30.9538 5.55351 31.6948 5.68651 32.3408 5.95251C32.9868 6.21851 33.4998 6.58584 33.8798 7.05451C34.0571 7.25717 34.1394 7.47251 34.1268 7.70051C34.1141 7.91584 34.0064 8.09951 33.8038 8.25151C33.6011 8.39084 33.3604 8.43517 33.0818 8.38451C32.8031 8.33384 32.5688 8.21984 32.3788 8.04251C32.0621 7.73851 31.7201 7.52951 31.3528 7.41551C30.9854 7.30151 30.5611 7.24451 30.0798 7.24451C29.5224 7.24451 29.0474 7.33951 28.6548 7.52951C28.2748 7.71951 28.0848 7.99817 28.0848 8.36551C28.0848 8.59351 28.1418 8.80251 28.2558 8.99251C28.3824 9.16984 28.6231 9.33451 28.9778 9.48651C29.3324 9.62584 29.8518 9.76517 30.5358 9.90451C31.4858 10.0945 32.2331 10.3352 32.7778 10.6265C33.3351 10.9178 33.7341 11.2598 33.9748 11.6525C34.2154 12.0325 34.3358 12.4758 34.3358 12.9825C34.3358 13.5652 34.1774 14.0908 33.8608 14.5595C33.5568 15.0282 33.1008 15.4018 32.4928 15.6805C31.8974 15.9592 31.1501 16.0985 30.2508 16.0985ZM37.2802 12.2415C37.0015 12.2415 36.7672 12.1528 36.5772 11.9755C36.3998 11.7855 36.3112 11.5512 36.3112 11.2725V2.15251C36.3112 1.86117 36.3998 1.62684 36.5772 1.44951C36.7672 1.27217 37.0015 1.18351 37.2802 1.18351C37.5715 1.18351 37.8058 1.27217 37.9832 1.44951C38.1605 1.62684 38.2492 1.86117 38.2492 2.15251V11.2725C38.2492 11.5512 38.1605 11.7855 37.9832 11.9755C37.8058 12.1528 37.5715 12.2415 37.2802 12.2415ZM45.0892 16.0415C44.8105 16.0415 44.5762 15.9528 44.3862 15.7755C44.2088 15.5855 44.1202 15.3512 44.1202 15.0725V10.3985C44.1202 9.67651 43.9872 9.08751 43.7212 8.63151C43.4552 8.17551 43.0942 7.83984 42.6382 7.62451C42.1948 7.39651 41.6818 7.28251 41.0992 7.28251C40.5672 7.28251 40.0858 7.39017 39.6552 7.60551C39.2245 7.82084 38.8825 8.11217 38.6292 8.47951C38.3758 8.83417 38.2492 9.24584 38.2492 9.71451H37.0522C37.0522 8.91651 37.2422 8.20717 37.6222 7.58651C38.0148 6.95317 38.5468 6.45284 39.2182 6.08551C39.8895 5.71817 40.6432 5.53451 41.4792 5.53451C42.3532 5.53451 43.1322 5.72451 43.8162 6.10451C44.5128 6.47184 45.0575 7.01651 45.4502 7.73851C45.8555 8.46051 46.0582 9.34717 46.0582 10.3985V15.0725C46.0582 15.3512 45.9632 15.5855 45.7732 15.7755C45.5958 15.9528 45.3678 16.0415 45.0892 16.0415ZM37.2802 16.0415C37.0015 16.0415 36.7672 15.9528 36.5772 15.7755C36.3998 15.5855 36.3112 15.3512 36.3112 15.0725V6.59851C36.3112 6.30717 36.3998 6.07284 36.5772 5.89551C36.7672 5.71817 37.0015 5.62951 37.2802 5.62951C37.5715 5.62951 37.8058 5.71817 37.9832 5.89551C38.1605 6.07284 38.2492 6.30717 38.2492 6.59851V15.0725C38.2492 15.3512 38.1605 15.5855 37.9832 15.7755C37.8058 15.9528 37.5715 16.0415 37.2802 16.0415ZM49.9269 16.0225C49.6862 16.0225 49.4709 15.9338 49.2809 15.7565C49.0909 15.5792 48.9959 15.3448 48.9959 15.0535V5.68651C48.9959 4.77451 49.1732 3.98284 49.5279 3.31151C49.8952 2.64017 50.4019 2.12084 51.0479 1.75351C51.6939 1.37351 52.4412 1.18351 53.2899 1.18351C53.5686 1.18351 53.7966 1.26584 53.9739 1.43051C54.1639 1.59517 54.2589 1.80417 54.2589 2.05751C54.2589 2.29817 54.1639 2.50717 53.9739 2.68451C53.7966 2.84917 53.5686 2.93151 53.2899 2.93151C52.8212 2.93151 52.4096 3.03917 52.0549 3.25451C51.7002 3.46984 51.4216 3.76751 51.2189 4.14751C51.0289 4.52751 50.9339 4.97717 50.9339 5.49651V15.0535C50.9339 15.3448 50.8452 15.5792 50.6679 15.7565C50.4906 15.9338 50.2436 16.0225 49.9269 16.0225ZM48.1789 7.64351C47.9129 7.64351 47.6976 7.56751 47.5329 7.41551C47.3682 7.26351 47.2859 7.07351 47.2859 6.84551C47.2859 6.59217 47.3682 6.38951 47.5329 6.23751C47.6976 6.08551 47.9129 6.00951 48.1789 6.00951H52.8719C53.1379 6.00951 53.3532 6.08551 53.5179 6.23751C53.6826 6.38951 53.7649 6.59217 53.7649 6.84551C53.7649 7.07351 53.6826 7.26351 53.5179 7.41551C53.3532 7.56751 53.1379 7.64351 52.8719 7.64351H48.1789ZM59.6775 16.1175C58.8035 16.1175 58.0181 15.9338 57.3215 15.5665C56.6375 15.1865 56.0928 14.6355 55.6875 13.9135C55.2948 13.1915 55.0985 12.3048 55.0985 11.2535V6.57951C55.0985 6.30084 55.1871 6.07284 55.3645 5.89551C55.5545 5.70551 55.7888 5.61051 56.0675 5.61051C56.3461 5.61051 56.5741 5.70551 56.7515 5.89551C56.9415 6.07284 57.0365 6.30084 57.0365 6.57951V11.2535C57.0365 11.9628 57.1695 12.5518 57.4355 13.0205C57.7015 13.4765 58.0625 13.8185 58.5185 14.0465C58.9745 14.2618 59.4875 14.3695 60.0575 14.3695C60.6021 14.3695 61.0835 14.2618 61.5015 14.0465C61.9321 13.8312 62.2741 13.5398 62.5275 13.1725C62.7808 12.8052 62.9075 12.3935 62.9075 11.9375H64.1045C64.1045 12.7228 63.9081 13.4322 63.5155 14.0655C63.1355 14.6988 62.6098 15.1992 61.9385 15.5665C61.2798 15.9338 60.5261 16.1175 59.6775 16.1175ZM63.8765 16.0225C63.5978 16.0225 63.3635 15.9338 63.1735 15.7565C62.9961 15.5665 62.9075 15.3322 62.9075 15.0535V6.57951C62.9075 6.28817 62.9961 6.05384 63.1735 5.87651C63.3635 5.69917 63.5978 5.61051 63.8765 5.61051C64.1678 5.61051 64.4021 5.69917 64.5795 5.87651C64.7568 6.05384 64.8455 6.28817 64.8455 6.57951V15.0535C64.8455 15.3322 64.7568 15.5665 64.5795 15.7565C64.4021 15.9338 64.1678 16.0225 63.8765 16.0225ZM71.5646 16.0985C70.678 16.0985 69.8546 15.9655 69.0946 15.6995C68.3473 15.4208 67.7646 15.0725 67.3466 14.6545C67.1566 14.4518 67.0743 14.2238 67.0996 13.9705C67.1376 13.7045 67.2643 13.4892 67.4796 13.3245C67.733 13.1218 67.98 13.0395 68.2206 13.0775C68.474 13.1028 68.6893 13.2105 68.8666 13.4005C69.082 13.6412 69.424 13.8692 69.8926 14.0845C70.374 14.2872 70.906 14.3885 71.4886 14.3885C72.2233 14.3885 72.7806 14.2682 73.1606 14.0275C73.5533 13.7868 73.756 13.4765 73.7686 13.0965C73.7813 12.7165 73.5976 12.3872 73.2176 12.1085C72.8503 11.8298 72.1726 11.6018 71.1846 11.4245C69.9053 11.1712 68.9743 10.7912 68.3916 10.2845C67.8216 9.77784 67.5366 9.15717 67.5366 8.42251C67.5366 7.77651 67.7266 7.24451 68.1066 6.82651C68.4866 6.39584 68.9743 6.07917 69.5696 5.87651C70.165 5.66117 70.7856 5.55351 71.4316 5.55351C72.2676 5.55351 73.0086 5.68651 73.6546 5.95251C74.3006 6.21851 74.8136 6.58584 75.1936 7.05451C75.371 7.25717 75.4533 7.47251 75.4406 7.70051C75.428 7.91584 75.3203 8.09951 75.1176 8.25151C74.915 8.39084 74.6743 8.43517 74.3956 8.38451C74.117 8.33384 73.8826 8.21984 73.6926 8.04251C73.376 7.73851 73.034 7.52951 72.6666 7.41551C72.2993 7.30151 71.875 7.24451 71.3936 7.24451C70.8363 7.24451 70.3613 7.33951 69.9686 7.52951C69.5886 7.71951 69.3986 7.99817 69.3986 8.36551C69.3986 8.59351 69.4556 8.80251 69.5696 8.99251C69.6963 9.16984 69.937 9.33451 70.2916 9.48651C70.6463 9.62584 71.1656 9.76517 71.8496 9.90451C72.7996 10.0945 73.547 10.3352 74.0916 10.6265C74.649 10.9178 75.048 11.2598 75.2886 11.6525C75.5293 12.0325 75.6496 12.4758 75.6496 12.9825C75.6496 13.5652 75.4913 14.0908 75.1746 14.5595C74.8706 15.0282 74.4146 15.4018 73.8066 15.6805C73.2113 15.9592 72.464 16.0985 71.5646 16.0985ZM78.784 16.0225C78.5054 16.0225 78.271 15.9338 78.081 15.7565C77.9037 15.5665 77.815 15.3322 77.815 15.0535V6.59851C77.815 6.30717 77.9037 6.07284 78.081 5.89551C78.271 5.71817 78.5054 5.62951 78.784 5.62951C79.0754 5.62951 79.3097 5.71817 79.487 5.89551C79.6644 6.07284 79.753 6.30717 79.753 6.59851V15.0535C79.753 15.3322 79.6644 15.5665 79.487 15.7565C79.3097 15.9338 79.0754 16.0225 78.784 16.0225ZM78.784 3.93851C78.442 3.93851 78.1444 3.81817 77.891 3.57751C77.6504 3.32417 77.53 3.02651 77.53 2.68451C77.53 2.34251 77.6504 2.05117 77.891 1.81051C78.1444 1.55717 78.442 1.43051 78.784 1.43051C79.126 1.43051 79.4174 1.55717 79.658 1.81051C79.9114 2.05117 80.038 2.34251 80.038 2.68451C80.038 3.02651 79.9114 3.32417 79.658 3.57751C79.4174 3.81817 79.126 3.93851 78.784 3.93851ZM87.5954 16.0985C86.5694 16.0985 85.6638 15.8768 84.8784 15.4335C84.0931 14.9775 83.4724 14.3568 83.0164 13.5715C82.5731 12.7735 82.3514 11.8615 82.3514 10.8355C82.3514 9.79684 82.5731 8.88484 83.0164 8.09951C83.4724 7.30151 84.0931 6.68084 84.8784 6.23751C85.6638 5.78151 86.5694 5.55351 87.5954 5.55351C88.6088 5.55351 89.5081 5.78151 90.2934 6.23751C91.0788 6.68084 91.6931 7.30151 92.1364 8.09951C92.5924 8.88484 92.8204 9.79684 92.8204 10.8355C92.8204 11.8615 92.5988 12.7735 92.1554 13.5715C91.7121 14.3568 91.0978 14.9775 90.3124 15.4335C89.5271 15.8768 88.6214 16.0985 87.5954 16.0985ZM87.5954 14.3885C88.2541 14.3885 88.8368 14.2365 89.3434 13.9325C89.8501 13.6285 90.2428 13.2105 90.5214 12.6785C90.8128 12.1465 90.9584 11.5322 90.9584 10.8355C90.9584 10.1388 90.8128 9.52451 90.5214 8.99251C90.2428 8.44784 89.8501 8.02351 89.3434 7.71951C88.8368 7.41551 88.2541 7.26351 87.5954 7.26351C86.9368 7.26351 86.3541 7.41551 85.8474 7.71951C85.3408 8.02351 84.9418 8.44784 84.6504 8.99251C84.3591 9.52451 84.2134 10.1388 84.2134 10.8355C84.2134 11.5322 84.3591 12.1465 84.6504 12.6785C84.9418 13.2105 85.3408 13.6285 85.8474 13.9325C86.3541 14.2365 86.9368 14.3885 87.5954 14.3885ZM104.008 16.0415C103.729 16.0415 103.495 15.9528 103.305 15.7755C103.127 15.5855 103.039 15.3512 103.039 15.0725V10.3985C103.039 9.67651 102.906 9.08751 102.64 8.63151C102.374 8.17551 102.013 7.83984 101.557 7.62451C101.113 7.39651 100.6 7.28251 100.018 7.28251C99.4857 7.28251 99.0044 7.39017 98.5737 7.60551C98.1431 7.82084 97.8011 8.11217 97.5477 8.47951C97.2944 8.83417 97.1677 9.24584 97.1677 9.71451H95.9707C95.9707 8.91651 96.1607 8.20717 96.5407 7.58651C96.9334 6.95317 97.4654 6.45284 98.1367 6.08551C98.8081 5.71817 99.5617 5.53451 100.398 5.53451C101.272 5.53451 102.051 5.72451 102.735 6.10451C103.431 6.47184 103.976 7.01651 104.369 7.73851C104.774 8.46051 104.977 9.34717 104.977 10.3985V15.0725C104.977 15.3512 104.882 15.5855 104.692 15.7755C104.514 15.9528 104.286 16.0415 104.008 16.0415ZM96.1987 16.0415C95.9201 16.0415 95.6857 15.9528 95.4957 15.7755C95.3184 15.5855 95.2297 15.3512 95.2297 15.0725V6.59851C95.2297 6.30717 95.3184 6.07284 95.4957 5.89551C95.6857 5.71817 95.9201 5.62951 96.1987 5.62951C96.4901 5.62951 96.7244 5.71817 96.9017 5.89551C97.0791 6.07284 97.1677 6.30717 97.1677 6.59851V15.0725C97.1677 15.3512 97.0791 15.5855 96.9017 15.7755C96.7244 15.9528 96.4901 16.0415 96.1987 16.0415Z"/>
</mask>
<path d="M5.9511 16.0985C4.9631 16.0985 4.0701 15.8705 3.2721 15.4145C2.48677 14.9458 1.85977 14.3125 1.3911 13.5145C0.935102 12.7165 0.707102 11.8172 0.707102 10.8165C0.707102 9.81584 0.916102 8.92284 1.3341 8.13751C1.76477 7.33951 2.34744 6.71251 3.0821 6.25651C3.81677 5.78784 4.64644 5.55351 5.5711 5.55351C6.31844 5.55351 7.00877 5.71184 7.6421 6.02851C8.27544 6.33251 8.80744 6.75051 9.2381 7.28251V2.15251C9.2381 1.86117 9.32677 1.62684 9.5041 1.44951C9.6941 1.27217 9.92844 1.18351 10.2071 1.18351C10.4984 1.18351 10.7328 1.27217 10.9101 1.44951C11.0874 1.62684 11.1761 1.86117 11.1761 2.15251V10.8165C11.1761 11.8172 10.9418 12.7165 10.4731 13.5145C10.0171 14.3125 9.39644 14.9458 8.6111 15.4145C7.82577 15.8705 6.9391 16.0985 5.9511 16.0985ZM5.9511 14.3885C6.5971 14.3885 7.17344 14.2365 7.6801 13.9325C8.18677 13.6158 8.58577 13.1852 8.8771 12.6405C9.16844 12.0958 9.3141 11.4878 9.3141 10.8165C9.3141 10.1325 9.16844 9.52451 8.8771 8.99251C8.58577 8.46051 8.18677 8.04251 7.6801 7.73851C7.17344 7.42184 6.5971 7.26351 5.9511 7.26351C5.31777 7.26351 4.74144 7.42184 4.2221 7.73851C3.71544 8.04251 3.3101 8.46051 3.0061 8.99251C2.71477 9.52451 2.5691 10.1325 2.5691 10.8165C2.5691 11.4878 2.71477 12.0958 3.0061 12.6405C3.3101 13.1852 3.71544 13.6158 4.2221 13.9325C4.74144 14.2365 5.31777 14.3885 5.9511 14.3885ZM18.4555 16.0985C17.5308 16.0985 16.7011 15.8705 15.9665 15.4145C15.2318 14.9458 14.6491 14.3188 14.2185 13.5335C13.8005 12.7355 13.5915 11.8362 13.5915 10.8355C13.5915 9.83484 13.8195 8.93551 14.2755 8.13751C14.7441 7.33951 15.3711 6.71251 16.1565 6.25651C16.9545 5.78784 17.8475 5.55351 18.8355 5.55351C19.8235 5.55351 20.7101 5.78784 21.4955 6.25651C22.2808 6.71251 22.9015 7.33951 23.3575 8.13751C23.8261 8.93551 24.0605 9.83484 24.0605 10.8355H23.3195C23.3195 11.8362 23.1041 12.7355 22.6735 13.5335C22.2555 14.3188 21.6791 14.9458 20.9445 15.4145C20.2098 15.8705 19.3801 16.0985 18.4555 16.0985ZM18.8355 14.3885C19.4815 14.3885 20.0578 14.2365 20.5645 13.9325C21.0711 13.6158 21.4701 13.1915 21.7615 12.6595C22.0528 12.1148 22.1985 11.5068 22.1985 10.8355C22.1985 10.1515 22.0528 9.54351 21.7615 9.01151C21.4701 8.46684 21.0711 8.04251 20.5645 7.73851C20.0578 7.42184 19.4815 7.26351 18.8355 7.26351C18.2021 7.26351 17.6258 7.42184 17.1065 7.73851C16.5998 8.04251 16.1945 8.46684 15.8905 9.01151C15.5991 9.54351 15.4535 10.1515 15.4535 10.8355C15.4535 11.5068 15.5991 12.1148 15.8905 12.6595C16.1945 13.1915 16.5998 13.6158 17.1065 13.9325C17.6258 14.2365 18.2021 14.3885 18.8355 14.3885ZM23.0915 16.0415C22.8128 16.0415 22.5785 15.9528 22.3885 15.7755C22.2111 15.5855 22.1225 15.3512 22.1225 15.0725V12.1655L22.4835 10.1515L24.0605 10.8355V15.0725C24.0605 15.3512 23.9655 15.5855 23.7755 15.7755C23.5981 15.9528 23.3701 16.0415 23.0915 16.0415ZM30.2508 16.0985C29.3641 16.0985 28.5408 15.9655 27.7808 15.6995C27.0334 15.4208 26.4508 15.0725 26.0328 14.6545C25.8428 14.4518 25.7604 14.2238 25.7858 13.9705C25.8238 13.7045 25.9504 13.4892 26.1658 13.3245C26.4191 13.1218 26.6661 13.0395 26.9068 13.0775C27.1601 13.1028 27.3754 13.2105 27.5528 13.4005C27.7681 13.6412 28.1101 13.8692 28.5788 14.0845C29.0601 14.2872 29.5921 14.3885 30.1748 14.3885C30.9094 14.3885 31.4668 14.2682 31.8468 14.0275C32.2394 13.7868 32.4421 13.4765 32.4548 13.0965C32.4674 12.7165 32.2838 12.3872 31.9038 12.1085C31.5364 11.8298 30.8588 11.6018 29.8708 11.4245C28.5914 11.1712 27.6604 10.7912 27.0778 10.2845C26.5078 9.77784 26.2228 9.15717 26.2228 8.42251C26.2228 7.77651 26.4128 7.24451 26.7928 6.82651C27.1728 6.39584 27.6604 6.07917 28.2558 5.87651C28.8511 5.66117 29.4718 5.55351 30.1178 5.55351C30.9538 5.55351 31.6948 5.68651 32.3408 5.95251C32.9868 6.21851 33.4998 6.58584 33.8798 7.05451C34.0571 7.25717 34.1394 7.47251 34.1268 7.70051C34.1141 7.91584 34.0064 8.09951 33.8038 8.25151C33.6011 8.39084 33.3604 8.43517 33.0818 8.38451C32.8031 8.33384 32.5688 8.21984 32.3788 8.04251C32.0621 7.73851 31.7201 7.52951 31.3528 7.41551C30.9854 7.30151 30.5611 7.24451 30.0798 7.24451C29.5224 7.24451 29.0474 7.33951 28.6548 7.52951C28.2748 7.71951 28.0848 7.99817 28.0848 8.36551C28.0848 8.59351 28.1418 8.80251 28.2558 8.99251C28.3824 9.16984 28.6231 9.33451 28.9778 9.48651C29.3324 9.62584 29.8518 9.76517 30.5358 9.90451C31.4858 10.0945 32.2331 10.3352 32.7778 10.6265C33.3351 10.9178 33.7341 11.2598 33.9748 11.6525C34.2154 12.0325 34.3358 12.4758 34.3358 12.9825C34.3358 13.5652 34.1774 14.0908 33.8608 14.5595C33.5568 15.0282 33.1008 15.4018 32.4928 15.6805C31.8974 15.9592 31.1501 16.0985 30.2508 16.0985ZM37.2802 12.2415C37.0015 12.2415 36.7672 12.1528 36.5772 11.9755C36.3998 11.7855 36.3112 11.5512 36.3112 11.2725V2.15251C36.3112 1.86117 36.3998 1.62684 36.5772 1.44951C36.7672 1.27217 37.0015 1.18351 37.2802 1.18351C37.5715 1.18351 37.8058 1.27217 37.9832 1.44951C38.1605 1.62684 38.2492 1.86117 38.2492 2.15251V11.2725C38.2492 11.5512 38.1605 11.7855 37.9832 11.9755C37.8058 12.1528 37.5715 12.2415 37.2802 12.2415ZM45.0892 16.0415C44.8105 16.0415 44.5762 15.9528 44.3862 15.7755C44.2088 15.5855 44.1202 15.3512 44.1202 15.0725V10.3985C44.1202 9.67651 43.9872 9.08751 43.7212 8.63151C43.4552 8.17551 43.0942 7.83984 42.6382 7.62451C42.1948 7.39651 41.6818 7.28251 41.0992 7.28251C40.5672 7.28251 40.0858 7.39017 39.6552 7.60551C39.2245 7.82084 38.8825 8.11217 38.6292 8.47951C38.3758 8.83417 38.2492 9.24584 38.2492 9.71451H37.0522C37.0522 8.91651 37.2422 8.20717 37.6222 7.58651C38.0148 6.95317 38.5468 6.45284 39.2182 6.08551C39.8895 5.71817 40.6432 5.53451 41.4792 5.53451C42.3532 5.53451 43.1322 5.72451 43.8162 6.10451C44.5128 6.47184 45.0575 7.01651 45.4502 7.73851C45.8555 8.46051 46.0582 9.34717 46.0582 10.3985V15.0725C46.0582 15.3512 45.9632 15.5855 45.7732 15.7755C45.5958 15.9528 45.3678 16.0415 45.0892 16.0415ZM37.2802 16.0415C37.0015 16.0415 36.7672 15.9528 36.5772 15.7755C36.3998 15.5855 36.3112 15.3512 36.3112 15.0725V6.59851C36.3112 6.30717 36.3998 6.07284 36.5772 5.89551C36.7672 5.71817 37.0015 5.62951 37.2802 5.62951C37.5715 5.62951 37.8058 5.71817 37.9832 5.89551C38.1605 6.07284 38.2492 6.30717 38.2492 6.59851V15.0725C38.2492 15.3512 38.1605 15.5855 37.9832 15.7755C37.8058 15.9528 37.5715 16.0415 37.2802 16.0415ZM49.9269 16.0225C49.6862 16.0225 49.4709 15.9338 49.2809 15.7565C49.0909 15.5792 48.9959 15.3448 48.9959 15.0535V5.68651C48.9959 4.77451 49.1732 3.98284 49.5279 3.31151C49.8952 2.64017 50.4019 2.12084 51.0479 1.75351C51.6939 1.37351 52.4412 1.18351 53.2899 1.18351C53.5686 1.18351 53.7966 1.26584 53.9739 1.43051C54.1639 1.59517 54.2589 1.80417 54.2589 2.05751C54.2589 2.29817 54.1639 2.50717 53.9739 2.68451C53.7966 2.84917 53.5686 2.93151 53.2899 2.93151C52.8212 2.93151 52.4096 3.03917 52.0549 3.25451C51.7002 3.46984 51.4216 3.76751 51.2189 4.14751C51.0289 4.52751 50.9339 4.97717 50.9339 5.49651V15.0535C50.9339 15.3448 50.8452 15.5792 50.6679 15.7565C50.4906 15.9338 50.2436 16.0225 49.9269 16.0225ZM48.1789 7.64351C47.9129 7.64351 47.6976 7.56751 47.5329 7.41551C47.3682 7.26351 47.2859 7.07351 47.2859 6.84551C47.2859 6.59217 47.3682 6.38951 47.5329 6.23751C47.6976 6.08551 47.9129 6.00951 48.1789 6.00951H52.8719C53.1379 6.00951 53.3532 6.08551 53.5179 6.23751C53.6826 6.38951 53.7649 6.59217 53.7649 6.84551C53.7649 7.07351 53.6826 7.26351 53.5179 7.41551C53.3532 7.56751 53.1379 7.64351 52.8719 7.64351H48.1789ZM59.6775 16.1175C58.8035 16.1175 58.0181 15.9338 57.3215 15.5665C56.6375 15.1865 56.0928 14.6355 55.6875 13.9135C55.2948 13.1915 55.0985 12.3048 55.0985 11.2535V6.57951C55.0985 6.30084 55.1871 6.07284 55.3645 5.89551C55.5545 5.70551 55.7888 5.61051 56.0675 5.61051C56.3461 5.61051 56.5741 5.70551 56.7515 5.89551C56.9415 6.07284 57.0365 6.30084 57.0365 6.57951V11.2535C57.0365 11.9628 57.1695 12.5518 57.4355 13.0205C57.7015 13.4765 58.0625 13.8185 58.5185 14.0465C58.9745 14.2618 59.4875 14.3695 60.0575 14.3695C60.6021 14.3695 61.0835 14.2618 61.5015 14.0465C61.9321 13.8312 62.2741 13.5398 62.5275 13.1725C62.7808 12.8052 62.9075 12.3935 62.9075 11.9375H64.1045C64.1045 12.7228 63.9081 13.4322 63.5155 14.0655C63.1355 14.6988 62.6098 15.1992 61.9385 15.5665C61.2798 15.9338 60.5261 16.1175 59.6775 16.1175ZM63.8765 16.0225C63.5978 16.0225 63.3635 15.9338 63.1735 15.7565C62.9961 15.5665 62.9075 15.3322 62.9075 15.0535V6.57951C62.9075 6.28817 62.9961 6.05384 63.1735 5.87651C63.3635 5.69917 63.5978 5.61051 63.8765 5.61051C64.1678 5.61051 64.4021 5.69917 64.5795 5.87651C64.7568 6.05384 64.8455 6.28817 64.8455 6.57951V15.0535C64.8455 15.3322 64.7568 15.5665 64.5795 15.7565C64.4021 15.9338 64.1678 16.0225 63.8765 16.0225ZM71.5646 16.0985C70.678 16.0985 69.8546 15.9655 69.0946 15.6995C68.3473 15.4208 67.7646 15.0725 67.3466 14.6545C67.1566 14.4518 67.0743 14.2238 67.0996 13.9705C67.1376 13.7045 67.2643 13.4892 67.4796 13.3245C67.733 13.1218 67.98 13.0395 68.2206 13.0775C68.474 13.1028 68.6893 13.2105 68.8666 13.4005C69.082 13.6412 69.424 13.8692 69.8926 14.0845C70.374 14.2872 70.906 14.3885 71.4886 14.3885C72.2233 14.3885 72.7806 14.2682 73.1606 14.0275C73.5533 13.7868 73.756 13.4765 73.7686 13.0965C73.7813 12.7165 73.5976 12.3872 73.2176 12.1085C72.8503 11.8298 72.1726 11.6018 71.1846 11.4245C69.9053 11.1712 68.9743 10.7912 68.3916 10.2845C67.8216 9.77784 67.5366 9.15717 67.5366 8.42251C67.5366 7.77651 67.7266 7.24451 68.1066 6.82651C68.4866 6.39584 68.9743 6.07917 69.5696 5.87651C70.165 5.66117 70.7856 5.55351 71.4316 5.55351C72.2676 5.55351 73.0086 5.68651 73.6546 5.95251C74.3006 6.21851 74.8136 6.58584 75.1936 7.05451C75.371 7.25717 75.4533 7.47251 75.4406 7.70051C75.428 7.91584 75.3203 8.09951 75.1176 8.25151C74.915 8.39084 74.6743 8.43517 74.3956 8.38451C74.117 8.33384 73.8826 8.21984 73.6926 8.04251C73.376 7.73851 73.034 7.52951 72.6666 7.41551C72.2993 7.30151 71.875 7.24451 71.3936 7.24451C70.8363 7.24451 70.3613 7.33951 69.9686 7.52951C69.5886 7.71951 69.3986 7.99817 69.3986 8.36551C69.3986 8.59351 69.4556 8.80251 69.5696 8.99251C69.6963 9.16984 69.937 9.33451 70.2916 9.48651C70.6463 9.62584 71.1656 9.76517 71.8496 9.90451C72.7996 10.0945 73.547 10.3352 74.0916 10.6265C74.649 10.9178 75.048 11.2598 75.2886 11.6525C75.5293 12.0325 75.6496 12.4758 75.6496 12.9825C75.6496 13.5652 75.4913 14.0908 75.1746 14.5595C74.8706 15.0282 74.4146 15.4018 73.8066 15.6805C73.2113 15.9592 72.464 16.0985 71.5646 16.0985ZM78.784 16.0225C78.5054 16.0225 78.271 15.9338 78.081 15.7565C77.9037 15.5665 77.815 15.3322 77.815 15.0535V6.59851C77.815 6.30717 77.9037 6.07284 78.081 5.89551C78.271 5.71817 78.5054 5.62951 78.784 5.62951C79.0754 5.62951 79.3097 5.71817 79.487 5.89551C79.6644 6.07284 79.753 6.30717 79.753 6.59851V15.0535C79.753 15.3322 79.6644 15.5665 79.487 15.7565C79.3097 15.9338 79.0754 16.0225 78.784 16.0225ZM78.784 3.93851C78.442 3.93851 78.1444 3.81817 77.891 3.57751C77.6504 3.32417 77.53 3.02651 77.53 2.68451C77.53 2.34251 77.6504 2.05117 77.891 1.81051C78.1444 1.55717 78.442 1.43051 78.784 1.43051C79.126 1.43051 79.4174 1.55717 79.658 1.81051C79.9114 2.05117 80.038 2.34251 80.038 2.68451C80.038 3.02651 79.9114 3.32417 79.658 3.57751C79.4174 3.81817 79.126 3.93851 78.784 3.93851ZM87.5954 16.0985C86.5694 16.0985 85.6638 15.8768 84.8784 15.4335C84.0931 14.9775 83.4724 14.3568 83.0164 13.5715C82.5731 12.7735 82.3514 11.8615 82.3514 10.8355C82.3514 9.79684 82.5731 8.88484 83.0164 8.09951C83.4724 7.30151 84.0931 6.68084 84.8784 6.23751C85.6638 5.78151 86.5694 5.55351 87.5954 5.55351C88.6088 5.55351 89.5081 5.78151 90.2934 6.23751C91.0788 6.68084 91.6931 7.30151 92.1364 8.09951C92.5924 8.88484 92.8204 9.79684 92.8204 10.8355C92.8204 11.8615 92.5988 12.7735 92.1554 13.5715C91.7121 14.3568 91.0978 14.9775 90.3124 15.4335C89.5271 15.8768 88.6214 16.0985 87.5954 16.0985ZM87.5954 14.3885C88.2541 14.3885 88.8368 14.2365 89.3434 13.9325C89.8501 13.6285 90.2428 13.2105 90.5214 12.6785C90.8128 12.1465 90.9584 11.5322 90.9584 10.8355C90.9584 10.1388 90.8128 9.52451 90.5214 8.99251C90.2428 8.44784 89.8501 8.02351 89.3434 7.71951C88.8368 7.41551 88.2541 7.26351 87.5954 7.26351C86.9368 7.26351 86.3541 7.41551 85.8474 7.71951C85.3408 8.02351 84.9418 8.44784 84.6504 8.99251C84.3591 9.52451 84.2134 10.1388 84.2134 10.8355C84.2134 11.5322 84.3591 12.1465 84.6504 12.6785C84.9418 13.2105 85.3408 13.6285 85.8474 13.9325C86.3541 14.2365 86.9368 14.3885 87.5954 14.3885ZM104.008 16.0415C103.729 16.0415 103.495 15.9528 103.305 15.7755C103.127 15.5855 103.039 15.3512 103.039 15.0725V10.3985C103.039 9.67651 102.906 9.08751 102.64 8.63151C102.374 8.17551 102.013 7.83984 101.557 7.62451C101.113 7.39651 100.6 7.28251 100.018 7.28251C99.4857 7.28251 99.0044 7.39017 98.5737 7.60551C98.1431 7.82084 97.8011 8.11217 97.5477 8.47951C97.2944 8.83417 97.1677 9.24584 97.1677 9.71451H95.9707C95.9707 8.91651 96.1607 8.20717 96.5407 7.58651C96.9334 6.95317 97.4654 6.45284 98.1367 6.08551C98.8081 5.71817 99.5617 5.53451 100.398 5.53451C101.272 5.53451 102.051 5.72451 102.735 6.10451C103.431 6.47184 103.976 7.01651 104.369 7.73851C104.774 8.46051 104.977 9.34717 104.977 10.3985V15.0725C104.977 15.3512 104.882 15.5855 104.692 15.7755C104.514 15.9528 104.286 16.0415 104.008 16.0415ZM96.1987 16.0415C95.9201 16.0415 95.6857 15.9528 95.4957 15.7755C95.3184 15.5855 95.2297 15.3512 95.2297 15.0725V6.59851C95.2297 6.30717 95.3184 6.07284 95.4957 5.89551C95.6857 5.71817 95.9201 5.62951 96.1987 5.62951C96.4901 5.62951 96.7244 5.71817 96.9017 5.89551C97.0791 6.07284 97.1677 6.30717 97.1677 6.59851V15.0725C97.1677 15.3512 97.0791 15.5855 96.9017 15.7755C96.7244 15.9528 96.4901 16.0415 96.1987 16.0415Z" fill="black"/>
<path d="M3.2721 15.4145L3.16959 15.5863L3.17287 15.5882L3.2721 15.4145ZM1.3911 13.5145L1.21744 13.6137L1.21865 13.6158L1.3911 13.5145ZM1.3341 8.13751L1.1581 8.04252L1.15755 8.04354L1.3341 8.13751ZM3.0821 6.25651L3.18758 6.42645L3.18967 6.42512L3.0821 6.25651ZM7.6421 6.02851L7.55265 6.20742L7.55556 6.20881L7.6421 6.02851ZM9.2381 7.28251L9.08265 7.40835L9.4381 7.84743V7.28251H9.2381ZM9.5041 1.44951L9.36756 1.30321L9.36268 1.30808L9.5041 1.44951ZM10.4731 13.5145L10.3006 13.4132L10.2995 13.4153L10.4731 13.5145ZM8.6111 15.4145L8.71154 15.5875L8.71359 15.5862L8.6111 15.4145ZM7.6801 13.9325L7.78302 14.104L7.7861 14.1021L7.6801 13.9325ZM8.8771 12.6405L8.70075 12.5462L8.70075 12.5462L8.8771 12.6405ZM8.8771 8.99251L8.70168 9.08857L8.70168 9.08857L8.8771 8.99251ZM7.6801 7.73851L7.57409 7.90813L7.5772 7.91L7.6801 7.73851ZM4.2221 7.73851L4.325 7.91001L4.32622 7.90927L4.2221 7.73851ZM3.0061 8.99251L2.83243 8.89326L2.83068 8.89644L3.0061 8.99251ZM3.0061 12.6405L2.82972 12.7349L2.83146 12.738L3.0061 12.6405ZM4.2221 13.9325L4.11606 14.1022L4.12107 14.1051L4.2221 13.9325ZM5.9511 15.8985C4.99521 15.8985 4.13685 15.6783 3.37133 15.2409L3.17287 15.5882C4.00335 16.0627 4.93099 16.2985 5.9511 16.2985V15.8985ZM3.37459 15.2428C2.61849 14.7915 2.01541 14.1826 1.56356 13.4132L1.21865 13.6158C1.70413 14.4424 2.35505 15.1001 3.16961 15.5862L3.37459 15.2428ZM1.56475 13.4153C1.12753 12.6501 0.907102 11.7855 0.907102 10.8165H0.507102C0.507102 11.8488 0.742674 12.7829 1.21745 13.6137L1.56475 13.4153ZM0.907102 10.8165C0.907102 9.84447 1.10989 8.98443 1.51065 8.23148L1.15755 8.04354C0.722318 8.86125 0.507102 9.78721 0.507102 10.8165H0.907102ZM1.51011 8.23249C1.92504 7.46364 2.48402 6.86312 3.18757 6.42643L2.97663 6.08658C2.21085 6.56189 1.6045 7.21537 1.1581 8.04252L1.51011 8.23249ZM3.18967 6.42512C3.89021 5.97822 4.68211 5.75351 5.5711 5.75351V5.35351C4.61076 5.35351 3.74333 5.59746 2.97454 6.08789L3.18967 6.42512ZM5.5711 5.75351C6.28915 5.75351 6.94864 5.90538 7.55266 6.20739L7.73155 5.84962C7.0689 5.5183 6.34772 5.35351 5.5711 5.35351V5.75351ZM7.55556 6.20881C8.1629 6.50033 8.67114 6.9 9.08265 7.40835L9.39355 7.15667C8.94374 6.60101 8.38798 6.16468 7.72865 5.8482L7.55556 6.20881ZM9.4381 7.28251V2.15251H9.0381V7.28251H9.4381ZM9.4381 2.15251C9.4381 1.90494 9.51178 1.72467 9.64552 1.59093L9.36268 1.30808C9.14176 1.52901 9.0381 1.8174 9.0381 2.15251H9.4381ZM9.64057 1.59572C9.7907 1.45559 9.97509 1.38351 10.2071 1.38351V0.983506C9.88178 0.983506 9.5975 1.08876 9.36764 1.3033L9.64057 1.59572ZM10.2071 1.38351C10.4547 1.38351 10.6349 1.45719 10.7687 1.59093L11.0515 1.30808C10.8306 1.08716 10.5422 0.983506 10.2071 0.983506V1.38351ZM10.7687 1.59093C10.9024 1.72467 10.9761 1.90494 10.9761 2.15251H11.3761C11.3761 1.8174 11.2724 1.52901 11.0515 1.30808L10.7687 1.59093ZM10.9761 2.15251V10.8165H11.3761V2.15251H10.9761ZM10.9761 10.8165C10.9761 11.7846 10.7498 12.6484 10.3006 13.4132L10.6456 13.6158C11.1337 12.7846 11.3761 11.8498 11.3761 10.8165H10.9761ZM10.2995 13.4153C9.86045 14.1835 9.26423 14.7918 8.50861 15.2428L8.71359 15.5862C9.52865 15.0998 10.1738 14.4415 10.6468 13.6137L10.2995 13.4153ZM8.51068 15.2415C7.7585 15.6783 6.90703 15.8985 5.9511 15.8985V16.2985C6.97118 16.2985 7.89304 16.0627 8.71153 15.5875L8.51068 15.2415ZM5.9511 14.5885C6.62986 14.5885 7.24239 14.4284 7.783 14.104L7.5772 13.761C7.10448 14.0446 6.56435 14.1885 5.9511 14.1885V14.5885ZM7.7861 14.1021C8.32342 13.7663 8.74623 13.3092 9.05346 12.7348L8.70075 12.5462C8.42531 13.0611 8.05012 13.4654 7.5741 13.7629L7.7861 14.1021ZM9.05346 12.7348C9.36164 12.1587 9.5141 11.5178 9.5141 10.8165H9.1141C9.1141 11.4579 8.97523 12.033 8.70075 12.5462L9.05346 12.7348ZM9.5141 10.8165C9.5141 10.1033 9.36195 9.46149 9.05252 8.89644L8.70168 9.08857C8.97492 9.58752 9.1141 10.1617 9.1141 10.8165H9.5141ZM9.05252 8.89644C8.74461 8.33417 8.32094 7.88977 7.783 7.56701L7.5772 7.91C8.0526 8.19524 8.42693 8.58684 8.70168 9.08857L9.05252 8.89644ZM7.7861 7.56891C7.24507 7.23076 6.63142 7.06351 5.9511 7.06351V7.46351C6.56278 7.46351 7.1018 7.61292 7.5741 7.90811L7.7861 7.56891ZM5.9511 7.06351C5.28262 7.06351 4.67001 7.23115 4.11798 7.56775L4.32622 7.90927C4.81287 7.61253 5.35292 7.46351 5.9511 7.46351V7.06351ZM4.1192 7.56701C3.58204 7.88931 3.1528 8.33267 2.83245 8.89328L3.17975 9.09173C3.4674 8.58834 3.84883 8.19571 4.325 7.91L4.1192 7.56701ZM2.83068 8.89644C2.52125 9.46149 2.3691 10.1033 2.3691 10.8165H2.7691C2.7691 10.1617 2.90829 9.58752 3.18152 9.08857L2.83068 8.89644ZM2.3691 10.8165C2.3691 11.5178 2.52157 12.1587 2.82975 12.7348L3.18246 12.5462C2.90797 12.033 2.7691 11.4579 2.7691 10.8165H2.3691ZM2.83146 12.738C3.15115 13.3107 3.57956 13.7668 4.1161 14.1021L4.3281 13.7629C3.85131 13.4649 3.46906 13.0596 3.18074 12.543L2.83146 12.738ZM4.12107 14.1051C4.67268 14.428 5.28419 14.5885 5.9511 14.5885V14.1885C5.35134 14.1885 4.81019 14.045 4.32314 13.7599L4.12107 14.1051ZM15.9665 15.4145L15.8589 15.5831L15.861 15.5844L15.9665 15.4145ZM14.2185 13.5335L14.0413 13.6263L14.0431 13.6297L14.2185 13.5335ZM14.2755 8.13751L14.103 8.03621L14.1018 8.03828L14.2755 8.13751ZM16.1565 6.25651L16.2569 6.42947L16.2578 6.42896L16.1565 6.25651ZM21.4955 6.25651L21.393 6.42826L21.3951 6.42946L21.4955 6.25651ZM23.3575 8.13751L23.1838 8.23674L23.185 8.23879L23.3575 8.13751ZM24.0605 10.8355V11.0355H24.2605V10.8355H24.0605ZM23.3195 10.8355V10.6355H23.1195V10.8355H23.3195ZM22.6735 13.5335L22.4975 13.4385L22.4969 13.4395L22.6735 13.5335ZM20.9445 15.4145L21.05 15.5844L21.052 15.5831L20.9445 15.4145ZM20.5645 13.9325L20.6674 14.104L20.6705 14.1021L20.5645 13.9325ZM21.7615 12.6595L21.9369 12.7556L21.9378 12.7538L21.7615 12.6595ZM21.7615 9.01151L21.5851 9.10584L21.5861 9.10757L21.7615 9.01151ZM20.5645 7.73851L20.4585 7.90813L20.4616 7.91L20.5645 7.73851ZM17.1065 7.73851L17.2094 7.91001L17.2106 7.90927L17.1065 7.73851ZM15.8905 9.01151L15.7158 8.91403L15.7151 8.91544L15.8905 9.01151ZM15.8905 12.6595L15.7141 12.7539L15.7168 12.7587L15.8905 12.6595ZM17.1065 13.9325L17.0004 14.1022L17.0054 14.1051L17.1065 13.9325ZM22.3885 15.7755L22.2419 15.9123L22.252 15.9217L22.3885 15.7755ZM22.1225 12.1655L21.9256 12.1302L21.9225 12.1477V12.1655H22.1225ZM22.4835 10.1515L22.5631 9.96802L22.3312 9.86746L22.2866 10.1162L22.4835 10.1515ZM24.0605 10.8355H24.2605V10.7043L24.1401 10.652L24.0605 10.8355ZM23.7755 15.7755L23.9169 15.9169L23.9169 15.9169L23.7755 15.7755ZM18.4555 15.8985C17.5654 15.8985 16.7727 15.6795 16.0719 15.2446L15.861 15.5844C16.6296 16.0615 17.4962 16.2985 18.4555 16.2985V15.8985ZM16.074 15.2459C15.3685 14.7958 14.8088 14.1941 14.3938 13.4373L14.0431 13.6297C14.4895 14.4436 15.0951 15.0959 15.8589 15.5831L16.074 15.2459ZM14.3956 13.4407C13.9942 12.6744 13.7915 11.8075 13.7915 10.8355H13.3915C13.3915 11.8649 13.6067 12.7966 14.0413 13.6263L14.3956 13.4407ZM13.7915 10.8355C13.7915 9.86647 14.0119 9.00187 14.4491 8.23673L14.1018 8.03828C13.627 8.86914 13.3915 9.80321 13.3915 10.8355H13.7915ZM14.4479 8.23879C14.8995 7.46989 15.5019 6.86783 16.2569 6.42946L16.0561 6.08355C15.2403 6.55718 14.5888 7.20912 14.103 8.03622L14.4479 8.23879ZM16.2578 6.42896C17.023 5.97956 17.8806 5.75351 18.8355 5.75351V5.35351C17.8144 5.35351 16.886 5.59612 16.0552 6.08405L16.2578 6.42896ZM18.8355 5.75351C19.7904 5.75351 20.6411 5.97956 21.393 6.42825L21.598 6.08476C20.7792 5.59612 19.8566 5.35351 18.8355 5.35351V5.75351ZM21.3951 6.42946C22.1495 6.86754 22.7451 7.46894 23.1838 8.23673L23.5311 8.03828C23.0579 7.21007 22.4121 6.55747 21.5959 6.08355L21.3951 6.42946ZM23.185 8.23879C23.6342 9.0036 23.8605 9.86746 23.8605 10.8355H24.2605C24.2605 9.80222 24.0181 8.86741 23.5299 8.03622L23.185 8.23879ZM24.0605 10.6355H23.3195V11.0355H24.0605V10.6355ZM23.1195 10.8355C23.1195 11.8065 22.9108 12.6726 22.4975 13.4385L22.8495 13.6285C23.2975 12.7984 23.5195 11.8658 23.5195 10.8355H23.1195ZM22.4969 13.4395C22.0948 14.1951 21.5419 14.7962 20.8369 15.2459L21.052 15.5831C21.8164 15.0955 22.4162 14.4426 22.85 13.6275L22.4969 13.4395ZM20.839 15.2446C20.1382 15.6795 19.3456 15.8985 18.4555 15.8985V16.2985C19.4147 16.2985 20.2814 16.0615 21.05 15.5844L20.839 15.2446ZM18.8355 14.5885C19.5142 14.5885 20.1268 14.4284 20.6674 14.104L20.4616 13.761C19.9889 14.0446 19.4487 14.1885 18.8355 14.1885V14.5885ZM20.6705 14.1021C21.2067 13.767 21.6294 13.3171 21.9369 12.7556L21.5861 12.5634C21.3109 13.0659 20.9356 13.4647 20.4585 13.7629L20.6705 14.1021ZM21.9378 12.7538C22.246 12.1777 22.3985 11.5368 22.3985 10.8355H21.9985C21.9985 11.4769 21.8596 12.052 21.5851 12.5652L21.9378 12.7538ZM22.3985 10.8355C22.3985 10.1223 22.2463 9.48049 21.9369 8.91544L21.5861 9.10757C21.8593 9.60652 21.9985 10.1807 21.9985 10.8355H22.3985ZM21.9378 8.91718C21.6303 8.34213 21.2065 7.89048 20.6674 7.56701L20.4616 7.91C20.9358 8.19453 21.31 8.59155 21.5851 9.10584L21.9378 8.91718ZM20.6705 7.56891C20.1294 7.23076 19.5158 7.06351 18.8355 7.06351V7.46351C19.4472 7.46351 19.9862 7.61292 20.4585 7.90811L20.6705 7.56891ZM18.8355 7.06351C18.167 7.06351 17.5544 7.23115 17.0024 7.56775L17.2106 7.90927C17.6972 7.61253 18.2373 7.46351 18.8355 7.46351V7.06351ZM17.0036 7.56701C16.4653 7.89 16.0359 8.34061 15.7158 8.91403L16.0651 9.10898C16.3531 8.59307 16.7344 8.19501 17.2094 7.91L17.0036 7.56701ZM15.7151 8.91544C15.4056 9.48049 15.2535 10.1223 15.2535 10.8355H15.6535C15.6535 10.1807 15.7927 9.60652 16.0659 9.10757L15.7151 8.91544ZM15.2535 10.8355C15.2535 11.5368 15.4059 12.1777 15.7141 12.7538L16.0668 12.5652C15.7923 12.052 15.6535 11.4769 15.6535 10.8355H15.2535ZM15.7168 12.7587C16.0368 13.3187 16.4651 13.7675 17.0005 14.1021L17.2125 13.7629C16.7346 13.4642 16.3522 13.0644 16.0641 12.5603L15.7168 12.7587ZM17.0054 14.1051C17.5571 14.428 18.1686 14.5885 18.8355 14.5885V14.1885C18.2357 14.1885 17.6946 14.045 17.2075 13.7599L17.0054 14.1051ZM23.0915 15.8415C22.8595 15.8415 22.6751 15.7694 22.5249 15.6293L22.252 15.9217C22.4819 16.1363 22.7662 16.2415 23.0915 16.2415V15.8415ZM22.5347 15.639C22.3946 15.4889 22.3225 15.3045 22.3225 15.0725H21.9225C21.9225 15.3978 22.0277 15.6821 22.2423 15.912L22.5347 15.639ZM22.3225 15.0725V12.1655H21.9225V15.0725H22.3225ZM22.3193 12.2008L22.6803 10.1868L22.2866 10.1162L21.9256 12.1302L22.3193 12.2008ZM22.4039 10.335L23.9809 11.019L24.1401 10.652L22.5631 9.96802L22.4039 10.335ZM23.8605 10.8355V15.0725H24.2605V10.8355H23.8605ZM23.8605 15.0725C23.8605 15.3003 23.785 15.4831 23.6341 15.6341L23.9169 15.9169C24.1459 15.6879 24.2605 15.402 24.2605 15.0725H23.8605ZM23.6341 15.6341C23.4986 15.7696 23.3236 15.8415 23.0915 15.8415V16.2415C23.4167 16.2415 23.6977 16.1361 23.9169 15.9169L23.6341 15.6341ZM27.7808 15.6995L27.7109 15.8869L27.7147 15.8883L27.7808 15.6995ZM26.0328 14.6545L25.8868 14.7914L25.8913 14.7959L26.0328 14.6545ZM25.7858 13.9705L25.5876 13.9422L25.5868 13.9506L25.7858 13.9705ZM26.1658 13.3245L26.2873 13.4834L26.2907 13.4807L26.1658 13.3245ZM26.9068 13.0775L26.8755 13.2754L26.8869 13.2765L26.9068 13.0775ZM27.5528 13.4005L27.7018 13.2671L27.699 13.264L27.5528 13.4005ZM28.5788 14.0845L28.4952 14.2663L28.5012 14.2688L28.5788 14.0845ZM31.8468 14.0275L31.7422 13.857L31.7398 13.8585L31.8468 14.0275ZM32.4548 13.0965L32.6547 13.1032L32.6547 13.1032L32.4548 13.0965ZM31.9038 12.1085L31.7829 12.2679L31.7855 12.2698L31.9038 12.1085ZM29.8708 11.4245L29.8319 11.6207L29.8354 11.6214L29.8708 11.4245ZM27.0778 10.2845L26.9449 10.434L26.9465 10.4354L27.0778 10.2845ZM26.7928 6.82651L26.9408 6.96106L26.9427 6.95883L26.7928 6.82651ZM28.2558 5.87651L28.3202 6.06587L28.3238 6.06458L28.2558 5.87651ZM32.3408 5.95251L32.4169 5.76757L32.4169 5.76757L32.3408 5.95251ZM33.8798 7.05451L33.7243 7.18056L33.7293 7.18621L33.8798 7.05451ZM34.1268 7.70051L34.3264 7.71225L34.3265 7.7116L34.1268 7.70051ZM33.8038 8.25151L33.9172 8.41646L33.9238 8.41151L33.8038 8.25151ZM33.0818 8.38451L33.046 8.58128L33.046 8.58128L33.0818 8.38451ZM32.3788 8.04251L32.2402 8.1868L32.2423 8.18872L32.3788 8.04251ZM31.3528 7.41551L31.2935 7.60652L31.2935 7.60652L31.3528 7.41551ZM28.6548 7.52951L28.5676 7.34946L28.5653 7.35062L28.6548 7.52951ZM28.2558 8.99251L28.0843 9.09541L28.0884 9.10225L28.093 9.10875L28.2558 8.99251ZM28.9778 9.48651L28.8989 9.67042L28.9046 9.67266L28.9778 9.48651ZM30.5358 9.90451L30.4958 10.1005L30.4965 10.1006L30.5358 9.90451ZM32.7778 10.6265L32.6834 10.8029L32.6851 10.8038L32.7778 10.6265ZM33.9748 11.6525L33.8042 11.757L33.8058 11.7595L33.9748 11.6525ZM33.8608 14.5595L33.695 14.4475L33.693 14.4507L33.8608 14.5595ZM32.4928 15.6805L32.4094 15.4987L32.408 15.4994L32.4928 15.6805ZM30.2508 15.8985C29.3843 15.8985 28.5836 15.7686 27.8468 15.5107L27.7147 15.8883C28.498 16.1624 29.3439 16.2985 30.2508 16.2985V15.8985ZM27.8506 15.5121C27.1213 15.2402 26.5661 14.905 26.1742 14.5131L25.8913 14.7959C26.3354 15.24 26.9456 15.6015 27.7109 15.8869L27.8506 15.5121ZM26.1787 14.5177C26.0241 14.3528 25.9657 14.1807 25.9848 13.9904L25.5868 13.9506C25.5551 14.267 25.6614 14.5508 25.8869 14.7913L26.1787 14.5177ZM25.9838 13.9988C26.0143 13.7852 26.1131 13.6165 26.2873 13.4834L26.0443 13.1656C25.7877 13.3618 25.6333 13.6238 25.5878 13.9422L25.9838 13.9988ZM26.2907 13.4807C26.5154 13.3009 26.7072 13.2485 26.8756 13.2751L26.938 12.88C26.625 12.8305 26.3228 12.9428 26.0408 13.1683L26.2907 13.4807ZM26.8869 13.2765C27.0908 13.2969 27.2616 13.3816 27.4066 13.537L27.699 13.264C27.4893 13.0394 27.2294 12.9088 26.9267 12.8785L26.8869 13.2765ZM27.4037 13.5339C27.645 13.8036 28.0148 14.0455 28.4953 14.2662L28.6623 13.9028C28.2054 13.6928 27.8912 13.4788 27.7018 13.2671L27.4037 13.5339ZM28.5012 14.2688C29.0097 14.483 29.5685 14.5885 30.1748 14.5885V14.1885C29.6157 14.1885 29.1105 14.0914 28.6564 13.9002L28.5012 14.2688ZM30.1748 14.5885C30.9257 14.5885 31.5274 14.4665 31.9538 14.1965L31.7398 13.8585C31.4061 14.0698 30.8932 14.1885 30.1748 14.1885V14.5885ZM31.9513 14.198C32.3874 13.9308 32.6393 13.5652 32.6547 13.1032L32.2549 13.0898C32.2449 13.3879 32.0915 13.6429 31.7423 13.857L31.9513 14.198ZM32.6547 13.1032C32.6701 12.6411 32.4409 12.2544 32.022 11.9472L31.7855 12.2698C32.1267 12.52 32.2648 12.7919 32.2549 13.0898L32.6547 13.1032ZM32.0246 11.9492C31.6164 11.6394 30.8968 11.4055 29.9061 11.2277L29.8354 11.6214C30.8207 11.7982 31.4565 12.0202 31.7829 12.2678L32.0246 11.9492ZM29.9096 11.2283C28.6437 10.9776 27.753 10.6066 27.209 10.1336L26.9465 10.4354C27.5679 10.9757 28.5391 11.3647 29.8319 11.6207L29.9096 11.2283ZM27.2106 10.135C26.6815 9.66467 26.4228 9.09762 26.4228 8.42251H26.0228C26.0228 9.21673 26.334 9.89101 26.9449 10.434L27.2106 10.135ZM26.4228 8.42251C26.4228 7.81861 26.599 7.33693 26.9408 6.96104L26.6448 6.69197C26.2265 7.15208 26.0228 7.7344 26.0228 8.42251H26.4228ZM26.9427 6.95883C27.2975 6.55673 27.7547 6.25837 28.3202 6.06584L28.1913 5.68718C27.5662 5.89998 27.048 6.23495 26.6428 6.69418L26.9427 6.95883ZM28.3238 6.06458C28.8969 5.8573 29.4945 5.75351 30.1178 5.75351V5.35351C29.4491 5.35351 28.8053 5.46505 28.1877 5.68843L28.3238 6.06458ZM30.1178 5.75351C30.9327 5.75351 31.647 5.88314 32.2646 6.13744L32.4169 5.76757C31.7425 5.48987 30.9749 5.35351 30.1178 5.35351V5.75351ZM32.2646 6.13744C32.8846 6.39274 33.3686 6.74161 33.7244 7.18047L34.0351 6.92855C33.6309 6.43007 33.0889 6.04428 32.4169 5.76757L32.2646 6.13744ZM33.7293 7.18621C33.8788 7.3571 33.9363 7.52285 33.9271 7.68941L34.3265 7.7116C34.3425 7.42216 34.2354 7.15725 34.0303 6.92281L33.7293 7.18621ZM33.9271 7.68876C33.9185 7.83489 33.8485 7.96798 33.6838 8.09151L33.9238 8.41151C34.1644 8.23103 34.3097 7.99679 34.3264 7.71225L33.9271 7.68876ZM33.6905 8.0867C33.538 8.19153 33.3528 8.2305 33.1175 8.18773L33.046 8.58128C33.3681 8.63984 33.6642 8.59015 33.9171 8.41632L33.6905 8.0867ZM33.1175 8.18773C32.8731 8.14328 32.6747 8.04513 32.5152 7.8963L32.2423 8.18872C32.4628 8.39455 32.7331 8.5244 33.046 8.58128L33.1175 8.18773ZM32.5173 7.89823C32.1814 7.57576 31.813 7.34893 31.412 7.22449L31.2935 7.60652C31.6272 7.71008 31.9428 7.90125 32.2403 8.18678L32.5173 7.89823ZM31.412 7.22449C31.0214 7.10326 30.5764 7.04451 30.0798 7.04451V7.44451C30.5458 7.44451 30.9495 7.49975 31.2935 7.60652L31.412 7.22449ZM30.0798 7.04451C29.5004 7.04451 28.9939 7.14321 28.5677 7.34947L28.7419 7.70954C29.1009 7.53581 29.5445 7.44451 30.0798 7.44451V7.04451ZM28.5653 7.35062C28.3526 7.45698 28.1806 7.59442 28.062 7.76834C27.9424 7.94385 27.8848 8.14539 27.8848 8.36551H28.2848C28.2848 8.21828 28.3222 8.09683 28.3925 7.99367C28.4639 7.88892 28.5769 7.79203 28.7442 7.70839L28.5653 7.35062ZM27.8848 8.36551C27.8848 8.62865 27.9511 8.87339 28.0843 9.09541L28.4273 8.88961C28.3325 8.73162 28.2848 8.55836 28.2848 8.36551H27.8848ZM28.093 9.10875C28.2517 9.33093 28.5332 9.51356 28.899 9.67034L29.0565 9.30268C28.713 9.15546 28.5131 9.00875 28.4185 8.87626L28.093 9.10875ZM28.9046 9.67266C29.2755 9.81835 29.8082 9.9604 30.4958 10.1005L30.5757 9.70853C29.8953 9.56994 29.3894 9.43333 29.0509 9.30036L28.9046 9.67266ZM30.4965 10.1006C31.4369 10.2887 32.163 10.5245 32.6834 10.8029L32.8721 10.4501C32.3032 10.1459 31.5346 9.90032 30.575 9.70839L30.4965 10.1006ZM32.6851 10.8038C33.2217 11.0842 33.5882 11.4045 33.8042 11.757L34.1453 11.548C33.88 11.1152 33.4485 10.7515 32.8704 10.4493L32.6851 10.8038ZM33.8058 11.7595C34.0237 12.1036 34.1358 12.5088 34.1358 12.9825H34.5358C34.5358 12.4429 34.4072 11.9614 34.1437 11.5455L33.8058 11.7595ZM34.1358 12.9825C34.1358 13.5265 33.9887 14.013 33.695 14.4475L34.0265 14.6715C34.3662 14.1687 34.5358 13.6038 34.5358 12.9825H34.1358ZM33.693 14.4507C33.4134 14.8817 32.9898 15.2327 32.4094 15.4987L32.5761 15.8623C33.2117 15.571 33.7001 15.1747 34.0286 14.6683L33.693 14.4507ZM32.408 15.4994C31.8471 15.7619 31.131 15.8985 30.2508 15.8985V16.2985C31.1692 16.2985 31.9478 16.1564 32.5776 15.8616L32.408 15.4994ZM36.5772 11.9755L36.4306 12.1123L36.4407 12.1217L36.5772 11.9755ZM36.5772 1.44951L36.4406 1.30321L36.4358 1.30808L36.5772 1.44951ZM37.9832 11.9755L38.1247 12.117L38.1294 12.112L37.9832 11.9755ZM44.3862 15.7755L44.2396 15.9123L44.2497 15.9217L44.3862 15.7755ZM43.7212 8.63151L43.5484 8.73228L43.5484 8.73228L43.7212 8.63151ZM42.6382 7.62451L42.5467 7.80247L42.5528 7.80536L42.6382 7.62451ZM39.6552 7.60551L39.5657 7.42662L39.5657 7.42662L39.6552 7.60551ZM38.6292 8.47951L38.7919 8.59577L38.7938 8.59305L38.6292 8.47951ZM38.2492 9.71451V9.91451H38.4492V9.71451H38.2492ZM37.0522 9.71451H36.8522V9.91451H37.0522V9.71451ZM37.6222 7.58651L37.4522 7.48112L37.4516 7.48208L37.6222 7.58651ZM39.2182 6.08551L39.3142 6.26096L39.3142 6.26096L39.2182 6.08551ZM43.8162 6.10451L43.719 6.27938L43.7229 6.28142L43.8162 6.10451ZM45.4502 7.73851L45.2745 7.83407L45.2758 7.83641L45.4502 7.73851ZM45.7732 15.7755L45.6318 15.6341L45.6318 15.6341L45.7732 15.7755ZM36.5772 15.7755L36.4306 15.9123L36.4407 15.9217L36.5772 15.7755ZM36.5772 5.89551L36.4406 5.74921L36.4358 5.75408L36.5772 5.89551ZM37.9832 15.7755L38.1247 15.917L38.1294 15.912L37.9832 15.7755ZM37.2802 12.0415C37.0482 12.0415 36.8638 11.9694 36.7136 11.8293L36.4407 12.1217C36.6706 12.3363 36.9549 12.4415 37.2802 12.4415V12.0415ZM36.7234 11.839C36.5833 11.6889 36.5112 11.5045 36.5112 11.2725H36.1112C36.1112 11.5978 36.2164 11.8821 36.431 12.112L36.7234 11.839ZM36.5112 11.2725V2.15251H36.1112V11.2725H36.5112ZM36.5112 2.15251C36.5112 1.90494 36.5849 1.72467 36.7186 1.59093L36.4358 1.30808C36.2148 1.52901 36.1112 1.8174 36.1112 2.15251H36.5112ZM36.7136 1.59572C36.8638 1.45559 37.0482 1.38351 37.2802 1.38351V0.983506C36.9549 0.983506 36.6706 1.08876 36.4407 1.3033L36.7136 1.59572ZM37.2802 1.38351C37.5277 1.38351 37.708 1.45719 37.8418 1.59093L38.1246 1.30808C37.9037 1.08716 37.6153 0.983506 37.2802 0.983506V1.38351ZM37.8418 1.59093C37.9755 1.72467 38.0492 1.90494 38.0492 2.15251H38.4492C38.4492 1.8174 38.3455 1.52901 38.1246 1.30808L37.8418 1.59093ZM38.0492 2.15251V11.2725H38.4492V2.15251H38.0492ZM38.0492 11.2725C38.0492 11.5045 37.9771 11.6889 37.837 11.839L38.1294 12.112C38.3439 11.8821 38.4492 11.5978 38.4492 11.2725H38.0492ZM37.8418 11.8341C37.708 11.9678 37.5277 12.0415 37.2802 12.0415V12.4415C37.6153 12.4415 37.9037 12.3379 38.1246 12.1169L37.8418 11.8341ZM45.0892 15.8415C44.8572 15.8415 44.6728 15.7694 44.5226 15.6293L44.2497 15.9217C44.4796 16.1363 44.7639 16.2415 45.0892 16.2415V15.8415ZM44.5324 15.639C44.3923 15.4889 44.3202 15.3045 44.3202 15.0725H43.9202C43.9202 15.3978 44.0254 15.6821 44.24 15.912L44.5324 15.639ZM44.3202 15.0725V10.3985H43.9202V15.0725H44.3202ZM44.3202 10.3985C44.3202 9.65358 44.1832 9.02655 43.8939 8.53073L43.5484 8.73228C43.7912 9.14846 43.9202 9.69943 43.9202 10.3985H44.3202ZM43.8939 8.53073C43.6086 8.04156 43.2179 7.67708 42.7236 7.44366L42.5528 7.80536C42.9705 8.0026 43.3018 8.30945 43.5484 8.73228L43.8939 8.53073ZM42.7296 7.44665C42.2536 7.20183 41.7083 7.08251 41.0992 7.08251V7.48251C41.6554 7.48251 42.1361 7.59119 42.5467 7.80236L42.7296 7.44665ZM41.0992 7.08251C40.5394 7.08251 40.027 7.196 39.5657 7.42662L39.7446 7.78439C40.1447 7.58435 40.5949 7.48251 41.0992 7.48251V7.08251ZM39.5657 7.42662C39.1073 7.65582 38.7385 7.96868 38.4645 8.36596L38.7938 8.59305C39.0265 8.25567 39.3417 7.98586 39.7446 7.78439L39.5657 7.42662ZM38.4664 8.36326C38.187 8.75445 38.0492 9.20747 38.0492 9.71451H38.4492C38.4492 9.28421 38.5647 8.9139 38.7919 8.59575L38.4664 8.36326ZM38.2492 9.51451H37.0522V9.91451H38.2492V9.51451ZM37.2522 9.71451C37.2522 8.94969 37.4338 8.27718 37.7927 7.69094L37.4516 7.48208C37.0505 8.13717 36.8522 8.88333 36.8522 9.71451H37.2522ZM37.7922 7.69189C38.1661 7.08873 38.6723 6.61218 39.3142 6.26096L39.1222 5.91005C38.4214 6.2935 37.8636 6.81762 37.4522 7.48112L37.7922 7.69189ZM39.3142 6.26096C39.9534 5.91119 40.6735 5.73451 41.4792 5.73451V5.33451C40.6128 5.33451 39.8256 5.52516 39.1222 5.91005L39.3142 6.26096ZM41.4792 5.73451C42.3232 5.73451 43.0681 5.91771 43.719 6.27934L43.9133 5.92968C43.1962 5.53131 42.3831 5.33451 41.4792 5.33451V5.73451ZM43.7229 6.28142C44.3831 6.62953 44.8998 7.14512 45.2745 7.83406L45.6259 7.64295C45.2152 6.88789 44.6426 6.31415 43.9095 5.92759L43.7229 6.28142ZM45.2758 7.83641C45.6604 8.52149 45.8582 9.37239 45.8582 10.3985H46.2582C46.2582 9.32195 46.0506 8.39952 45.6246 7.6406L45.2758 7.83641ZM45.8582 10.3985V15.0725H46.2582V10.3985H45.8582ZM45.8582 15.0725C45.8582 15.3003 45.7827 15.4831 45.6318 15.6341L45.9146 15.9169C46.1436 15.6879 46.2582 15.402 46.2582 15.0725H45.8582ZM45.6318 15.6341C45.4963 15.7696 45.3213 15.8415 45.0892 15.8415V16.2415C45.4144 16.2415 45.6954 16.1361 45.9146 15.9169L45.6318 15.6341ZM37.2802 15.8415C37.0482 15.8415 36.8638 15.7694 36.7136 15.6293L36.4407 15.9217C36.6706 16.1363 36.9549 16.2415 37.2802 16.2415V15.8415ZM36.7234 15.639C36.5833 15.4889 36.5112 15.3045 36.5112 15.0725H36.1112C36.1112 15.3978 36.2164 15.6821 36.431 15.912L36.7234 15.639ZM36.5112 15.0725V6.59851H36.1112V15.0725H36.5112ZM36.5112 6.59851C36.5112 6.35094 36.5849 6.17067 36.7186 6.03693L36.4358 5.75408C36.2148 5.97501 36.1112 6.2634 36.1112 6.59851H36.5112ZM36.7136 6.04172C36.8638 5.90159 37.0482 5.82951 37.2802 5.82951V5.42951C36.9549 5.42951 36.6706 5.53476 36.4407 5.74929L36.7136 6.04172ZM37.2802 5.82951C37.5277 5.82951 37.708 5.90318 37.8418 6.03693L38.1246 5.75408C37.9037 5.53316 37.6153 5.42951 37.2802 5.42951V5.82951ZM37.8418 6.03693C37.9755 6.17067 38.0492 6.35094 38.0492 6.59851H38.4492C38.4492 6.2634 38.3455 5.97501 38.1246 5.75408L37.8418 6.03693ZM38.0492 6.59851V15.0725H38.4492V6.59851H38.0492ZM38.0492 15.0725C38.0492 15.3045 37.9771 15.4889 37.837 15.639L38.1294 15.912C38.3439 15.6821 38.4492 15.3978 38.4492 15.0725H38.0492ZM37.8418 15.6341C37.708 15.7678 37.5277 15.8415 37.2802 15.8415V16.2415C37.6153 16.2415 37.9037 16.1379 38.1246 15.9169L37.8418 15.6341ZM49.2809 15.7565L49.1444 15.9027L49.1444 15.9027L49.2809 15.7565ZM49.5279 3.31151L49.3524 3.21549L49.3511 3.21808L49.5279 3.31151ZM51.0479 1.75351L51.1468 1.92738L51.1493 1.92589L51.0479 1.75351ZM53.9739 1.43051L53.8377 1.57715L53.8429 1.58164L53.9739 1.43051ZM53.9739 2.68451L54.11 2.83107L54.1104 2.83072L53.9739 2.68451ZM52.0549 3.25451L51.9511 3.08355L51.9511 3.08355L52.0549 3.25451ZM51.2189 4.14751L51.0424 4.05336L51.04 4.05806L51.2189 4.14751ZM47.5329 7.41551L47.3972 7.56247L47.3972 7.56247L47.5329 7.41551ZM47.5329 6.23751L47.3972 6.09054L47.3972 6.09055L47.5329 6.23751ZM53.5179 6.23751L53.6536 6.09055L53.6536 6.09054L53.5179 6.23751ZM53.5179 7.41551L53.6536 7.56247L53.6536 7.56247L53.5179 7.41551ZM49.9269 15.8225C49.7411 15.8225 49.5736 15.7561 49.4174 15.6103L49.1444 15.9027C49.3682 16.1116 49.6313 16.2225 49.9269 16.2225V15.8225ZM49.4174 15.6103C49.273 15.4756 49.1959 15.2968 49.1959 15.0535H48.7959C48.7959 15.3929 48.9088 15.6828 49.1444 15.9027L49.4174 15.6103ZM49.1959 15.0535V5.68651H48.7959V15.0535H49.1959ZM49.1959 5.68651C49.1959 4.80056 49.3681 4.04222 49.7047 3.40493L49.3511 3.21808C48.9784 3.92346 48.7959 4.74845 48.7959 5.68651H49.1959ZM49.7034 3.40751C50.0534 2.76771 50.534 2.27579 51.1468 1.92736L50.949 1.57965C50.2698 1.96589 49.737 2.51263 49.3524 3.2155L49.7034 3.40751ZM51.1493 1.92589C51.7607 1.56627 52.4721 1.38351 53.2899 1.38351V0.983506C52.4104 0.983506 51.6271 1.18075 50.9465 1.58112L51.1493 1.92589ZM53.2899 1.38351C53.5263 1.38351 53.7031 1.45195 53.8378 1.57707L54.11 1.28395C53.8901 1.07973 53.6108 0.983506 53.2899 0.983506V1.38351ZM53.8429 1.58164C53.9887 1.70799 54.0589 1.86167 54.0589 2.05751H54.4589C54.4589 1.74668 54.3391 1.48235 54.1049 1.27937L53.8429 1.58164ZM54.0589 2.05751C54.0589 2.23798 53.9905 2.39541 53.8374 2.5383L54.1104 2.83072C54.3373 2.61893 54.4589 2.35837 54.4589 2.05751H54.0589ZM53.8378 2.53795C53.7031 2.66306 53.5263 2.73151 53.2899 2.73151V3.13151C53.6108 3.13151 53.8901 3.03528 54.11 2.83106L53.8378 2.53795ZM53.2899 2.73151C52.7895 2.73151 52.341 2.84685 51.9511 3.08355L52.1587 3.42546C52.4782 3.2315 52.853 3.13151 53.2899 3.13151V2.73151ZM51.9511 3.08355C51.5646 3.31824 51.2613 3.64298 51.0424 4.05339L51.3954 4.24162C51.5818 3.89204 51.8359 3.62144 52.1587 3.42546L51.9511 3.08355ZM51.04 4.05806C50.8334 4.47133 50.7339 4.95292 50.7339 5.49651H51.1339C51.1339 5.00143 51.2244 4.58368 51.3978 4.23695L51.04 4.05806ZM50.7339 5.49651V15.0535H51.1339V5.49651H50.7339ZM50.7339 15.0535C50.7339 15.3011 50.6602 15.4813 50.5265 15.6151L50.8093 15.8979C51.0302 15.677 51.1339 15.3886 51.1339 15.0535H50.7339ZM50.5265 15.6151C50.3959 15.7457 50.2052 15.8225 49.9269 15.8225V16.2225C50.2819 16.2225 50.5852 16.122 50.8093 15.8979L50.5265 15.6151ZM48.1789 7.44351C47.9532 7.44351 47.7895 7.38023 47.6686 7.26855L47.3972 7.56247C47.6056 7.75478 47.8726 7.84351 48.1789 7.84351V7.44351ZM47.6686 7.26855C47.5457 7.15515 47.4859 7.01879 47.4859 6.84551H47.0859C47.0859 7.12822 47.1908 7.37186 47.3972 7.56247L47.6686 7.26855ZM47.4859 6.84551C47.4859 6.63995 47.5505 6.49348 47.6686 6.38447L47.3972 6.09055C47.186 6.28554 47.0859 6.54439 47.0859 6.84551H47.4859ZM47.6686 6.38447C47.7895 6.27278 47.9532 6.20951 48.1789 6.20951V5.80951C47.8726 5.80951 47.6056 5.89823 47.3972 6.09054L47.6686 6.38447ZM48.1789 6.20951H52.8719V5.80951H48.1789V6.20951ZM52.8719 6.20951C53.0976 6.20951 53.2612 6.27278 53.3822 6.38447L53.6536 6.09054C53.4452 5.89823 53.1782 5.80951 52.8719 5.80951V6.20951ZM53.3822 6.38447C53.5003 6.49348 53.5649 6.63995 53.5649 6.84551H53.9649C53.9649 6.54439 53.8648 6.28554 53.6536 6.09055L53.3822 6.38447ZM53.5649 6.84551C53.5649 7.01879 53.5051 7.15515 53.3822 7.26855L53.6536 7.56247C53.86 7.37186 53.9649 7.12822 53.9649 6.84551H53.5649ZM53.3822 7.26855C53.2612 7.38023 53.0976 7.44351 52.8719 7.44351V7.84351C53.1782 7.84351 53.4452 7.75478 53.6536 7.56247L53.3822 7.26855ZM52.8719 7.44351H48.1789V7.84351H52.8719V7.44351ZM57.3215 15.5665L57.2243 15.7414L57.2282 15.7434L57.3215 15.5665ZM55.6875 13.9135L55.5117 14.0091L55.5131 14.0114L55.6875 13.9135ZM55.3645 5.89551L55.223 5.75408L55.223 5.75408L55.3645 5.89551ZM56.7515 5.89551L56.6049 6.03229L56.615 6.04172L56.7515 5.89551ZM57.4355 13.0205L57.2615 13.1192L57.2627 13.1213L57.4355 13.0205ZM58.5185 14.0465L58.429 14.2254L58.4331 14.2274L58.5185 14.0465ZM61.5015 14.0465L61.412 13.8676L61.4099 13.8687L61.5015 14.0465ZM62.5275 13.1725L62.6921 13.2861L62.6921 13.2861L62.5275 13.1725ZM62.9075 11.9375V11.7375H62.7075V11.9375H62.9075ZM64.1045 11.9375H64.3045V11.7375H64.1045V11.9375ZM63.5155 14.0655L63.3455 13.9601L63.344 13.9626L63.5155 14.0655ZM61.9385 15.5665L61.8425 15.391L61.841 15.3918L61.9385 15.5665ZM63.1735 15.7565L63.0269 15.8933L63.037 15.9027L63.1735 15.7565ZM63.1735 5.87651L63.0369 5.73021L63.032 5.73508L63.1735 5.87651ZM64.5795 15.7565L64.721 15.898L64.7257 15.893L64.5795 15.7565ZM59.6775 15.9175C58.8323 15.9175 58.0796 15.7402 57.4147 15.3896L57.2282 15.7434C57.9566 16.1275 58.7746 16.3175 59.6775 16.3175V15.9175ZM57.4186 15.3917C56.7689 15.0307 56.2502 14.5073 55.8619 13.8156L55.5131 14.0114C55.9354 14.7638 56.506 15.3423 57.2243 15.7413L57.4186 15.3917ZM55.8632 13.818C55.4903 13.1323 55.2985 12.2806 55.2985 11.2535H54.8985C54.8985 12.3291 55.0993 13.2507 55.5118 14.0091L55.8632 13.818ZM55.2985 11.2535V6.57951H54.8985V11.2535H55.2985ZM55.2985 6.57951C55.2985 6.34742 55.3704 6.17242 55.5059 6.03693L55.223 5.75408C55.0039 5.97326 54.8985 6.25426 54.8985 6.57951H55.2985ZM55.5059 6.03693C55.6569 5.88596 55.8396 5.81051 56.0675 5.81051V5.41051C55.7379 5.41051 55.4521 5.52505 55.223 5.75408L55.5059 6.03693ZM56.0675 5.81051C56.2952 5.81051 56.4687 5.88566 56.6053 6.03197L56.8977 5.75904C56.6796 5.52535 56.3971 5.41051 56.0675 5.41051V5.81051ZM56.615 6.04172C56.7613 6.17827 56.8365 6.3518 56.8365 6.57951H57.2365C57.2365 6.24988 57.1216 5.9674 56.8879 5.74929L56.615 6.04172ZM56.8365 6.57951V11.2535H57.2365V6.57951H56.8365ZM56.8365 11.2535C56.8365 11.9868 56.9739 12.6124 57.2615 13.1192L57.6094 12.9218C57.3651 12.4913 57.2365 11.9388 57.2365 11.2535H56.8365ZM57.2627 13.1213C57.5476 13.6096 57.937 13.9794 58.429 14.2254L58.6079 13.8676C58.188 13.6576 57.8554 13.3434 57.6082 12.9197L57.2627 13.1213ZM58.4331 14.2274C58.9191 14.4569 59.4618 14.5695 60.0575 14.5695V14.1695C59.5131 14.1695 59.0299 14.0668 58.6039 13.8657L58.4331 14.2274ZM60.0575 14.5695C60.6289 14.5695 61.1425 14.4564 61.5931 14.2243L61.4099 13.8687C61.0244 14.0673 60.5753 14.1695 60.0575 14.1695V14.5695ZM61.5909 14.2254C62.0493 13.9962 62.4181 13.6833 62.6921 13.2861L62.3628 13.059C62.1301 13.3963 61.815 13.6661 61.412 13.8676L61.5909 14.2254ZM62.6921 13.2861C62.969 12.8846 63.1075 12.4331 63.1075 11.9375H62.7075C62.7075 12.3539 62.5926 12.7258 62.3628 13.059L62.6921 13.2861ZM62.9075 12.1375H64.1045V11.7375H62.9075V12.1375ZM63.9045 11.9375C63.9045 12.6877 63.7174 13.3602 63.3455 13.9601L63.6854 14.1709C64.0988 13.5042 64.3045 12.758 64.3045 11.9375H63.9045ZM63.344 13.9626C62.9829 14.5644 62.4838 15.0401 61.8425 15.3911L62.0345 15.742C62.7358 15.3582 63.288 14.8333 63.687 14.1684L63.344 13.9626ZM61.841 15.3918C61.2157 15.7406 60.4964 15.9175 59.6775 15.9175V16.3175C60.5559 16.3175 61.3438 16.1271 62.0359 15.7412L61.841 15.3918ZM63.8765 15.8225C63.6444 15.8225 63.4601 15.7504 63.3099 15.6103L63.037 15.9027C63.2669 16.1173 63.5511 16.2225 63.8765 16.2225V15.8225ZM63.3197 15.62C63.1795 15.4699 63.1075 15.2855 63.1075 15.0535H62.7075C62.7075 15.3788 62.8127 15.6631 63.0273 15.893L63.3197 15.62ZM63.1075 15.0535V6.57951H62.7075V15.0535H63.1075ZM63.1075 6.57951C63.1075 6.33194 63.1811 6.15167 63.3149 6.01793L63.032 5.73508C62.8111 5.95601 62.7075 6.2444 62.7075 6.57951H63.1075ZM63.3099 6.02272C63.4601 5.88259 63.6444 5.81051 63.8765 5.81051V5.41051C63.5511 5.41051 63.2669 5.51576 63.037 5.73029L63.3099 6.02272ZM63.8765 5.81051C64.124 5.81051 64.3043 5.88418 64.438 6.01793L64.7209 5.73508C64.5 5.51416 64.2116 5.41051 63.8765 5.41051V5.81051ZM64.438 6.01793C64.5718 6.15167 64.6455 6.33194 64.6455 6.57951H65.0455C65.0455 6.2444 64.9418 5.95601 64.7209 5.73508L64.438 6.01793ZM64.6455 6.57951V15.0535H65.0455V6.57951H64.6455ZM64.6455 15.0535C64.6455 15.2855 64.5734 15.4699 64.4333 15.62L64.7257 15.893C64.9402 15.6631 65.0455 15.3788 65.0455 15.0535H64.6455ZM64.438 15.6151C64.3043 15.7488 64.124 15.8225 63.8765 15.8225V16.2225C64.2116 16.2225 64.5 16.1189 64.7209 15.8979L64.438 15.6151ZM69.0946 15.6995L69.0247 15.8869L69.0286 15.8883L69.0946 15.6995ZM67.3466 14.6545L67.2007 14.7914L67.2052 14.7959L67.3466 14.6545ZM67.0996 13.9705L66.9015 13.9422L66.9006 13.9506L67.0996 13.9705ZM67.4796 13.3245L67.6012 13.4834L67.6046 13.4807L67.4796 13.3245ZM68.2206 13.0775L68.1894 13.2754L68.2007 13.2765L68.2206 13.0775ZM68.8666 13.4005L69.0157 13.2671L69.0128 13.264L68.8666 13.4005ZM69.8926 14.0845L69.8091 14.2663L69.815 14.2688L69.8926 14.0845ZM73.1606 14.0275L73.0561 13.857L73.0536 13.8585L73.1606 14.0275ZM73.7686 13.0965L73.9685 13.1032L73.9685 13.1032L73.7686 13.0965ZM73.2176 12.1085L73.0967 12.2679L73.0994 12.2698L73.2176 12.1085ZM71.1846 11.4245L71.1458 11.6207L71.1493 11.6214L71.1846 11.4245ZM68.3916 10.2845L68.2588 10.434L68.2604 10.4354L68.3916 10.2845ZM68.1066 6.82651L68.2546 6.96106L68.2566 6.95883L68.1066 6.82651ZM69.5696 5.87651L69.6341 6.06587L69.6377 6.06458L69.5696 5.87651ZM73.6546 5.95251L73.7308 5.76757L73.7308 5.76757L73.6546 5.95251ZM75.1936 7.05451L75.0382 7.18056L75.0431 7.18621L75.1936 7.05451ZM75.4406 7.70051L75.6403 7.71225L75.6403 7.7116L75.4406 7.70051ZM75.1176 8.25151L75.231 8.41646L75.2376 8.41151L75.1176 8.25151ZM74.3956 8.38451L74.3599 8.58128L74.3599 8.58128L74.3956 8.38451ZM73.6926 8.04251L73.5541 8.1868L73.5562 8.18872L73.6926 8.04251ZM72.6666 7.41551L72.6074 7.60652L72.6074 7.60652L72.6666 7.41551ZM69.9686 7.52951L69.8815 7.34946L69.8792 7.35062L69.9686 7.52951ZM69.5696 8.99251L69.3981 9.09541L69.4022 9.10225L69.4069 9.10875L69.5696 8.99251ZM70.2916 9.48651L70.2128 9.67042L70.2185 9.67266L70.2916 9.48651ZM71.8496 9.90451L71.8097 10.1005L71.8104 10.1006L71.8496 9.90451ZM74.0916 10.6265L73.9973 10.8029L73.999 10.8038L74.0916 10.6265ZM75.2886 11.6525L75.1181 11.757L75.1197 11.7595L75.2886 11.6525ZM75.1746 14.5595L75.0089 14.4475L75.0068 14.4507L75.1746 14.5595ZM73.8066 15.6805L73.7233 15.4987L73.7219 15.4994L73.8066 15.6805ZM71.5646 15.8985C70.6982 15.8985 69.8974 15.7686 69.1607 15.5107L69.0286 15.8883C69.8118 16.1624 70.6577 16.2985 71.5646 16.2985V15.8985ZM69.1645 15.5121C68.4352 15.2402 67.88 14.905 67.4881 14.5131L67.2052 14.7959C67.6493 15.24 68.2594 15.6015 69.0248 15.8869L69.1645 15.5121ZM67.4925 14.5177C67.338 14.3528 67.2796 14.1807 67.2986 13.9904L66.9006 13.9506C66.869 14.267 66.9753 14.5508 67.2007 14.7913L67.4925 14.5177ZM67.2976 13.9988C67.3281 13.7852 67.427 13.6165 67.6011 13.4834L67.3581 13.1656C67.1016 13.3618 66.9471 13.6238 66.9016 13.9422L67.2976 13.9988ZM67.6046 13.4807C67.8293 13.3009 68.0211 13.2485 68.1894 13.2751L68.2518 12.88C67.9389 12.8305 67.6367 12.9428 67.3547 13.1683L67.6046 13.4807ZM68.2007 13.2765C68.4047 13.2969 68.5755 13.3816 68.7204 13.537L69.0128 13.264C68.8032 13.0394 68.5433 12.9088 68.2405 12.8785L68.2007 13.2765ZM68.7176 13.5339C68.9589 13.8036 69.3287 14.0455 69.8091 14.2662L69.9761 13.9028C69.5192 13.6928 69.205 13.4788 69.0157 13.2671L68.7176 13.5339ZM69.815 14.2688C70.3236 14.483 70.8824 14.5885 71.4886 14.5885V14.1885C70.9295 14.1885 70.4243 14.0914 69.9703 13.9002L69.815 14.2688ZM71.4886 14.5885C72.2396 14.5885 72.8413 14.4665 73.2676 14.1965L73.0536 13.8585C72.72 14.0698 72.2071 14.1885 71.4886 14.1885V14.5885ZM73.2652 14.198C73.7012 13.9308 73.9531 13.5652 73.9685 13.1032L73.5688 13.0898C73.5588 13.3879 73.4054 13.6429 73.0561 13.857L73.2652 14.198ZM73.9685 13.1032C73.9839 12.6411 73.7548 12.2544 73.3359 11.9472L73.0994 12.2698C73.4405 12.52 73.5787 12.7919 73.5688 13.0898L73.9685 13.1032ZM73.3385 11.9492C72.9302 11.6394 72.2107 11.4055 71.22 11.2277L71.1493 11.6214C72.1346 11.7982 72.7704 12.0202 73.0968 12.2678L73.3385 11.9492ZM71.2235 11.2283C69.9576 10.9776 69.0669 10.6066 68.5229 10.1336L68.2604 10.4354C68.8817 10.9757 69.853 11.3647 71.1458 11.6207L71.2235 11.2283ZM68.5245 10.135C67.9954 9.66467 67.7366 9.09762 67.7366 8.42251H67.3366C67.3366 9.21673 67.6479 9.89101 68.2588 10.434L68.5245 10.135ZM67.7366 8.42251C67.7366 7.81861 67.9129 7.33693 68.2546 6.96104L67.9587 6.69197C67.5404 7.15208 67.3366 7.7344 67.3366 8.42251H67.7366ZM68.2566 6.95883C68.6114 6.55673 69.0685 6.25837 69.6341 6.06584L69.5052 5.68718C68.8801 5.89998 68.3619 6.23495 67.9567 6.69418L68.2566 6.95883ZM69.6377 6.06458C70.2107 5.8573 70.8084 5.75351 71.4316 5.75351V5.35351C70.7629 5.35351 70.1192 5.46505 69.5016 5.68843L69.6377 6.06458ZM71.4316 5.75351C72.2465 5.75351 72.9609 5.88314 73.5785 6.13744L73.7308 5.76757C73.0564 5.48987 72.2887 5.35351 71.4316 5.35351V5.75351ZM73.5785 6.13744C74.1985 6.39274 74.6825 6.74161 75.0383 7.18047L75.349 6.92855C74.9448 6.43007 74.4028 6.04428 73.7308 5.76757L73.5785 6.13744ZM75.0431 7.18621C75.1927 7.3571 75.2502 7.52285 75.2409 7.68941L75.6403 7.7116C75.6564 7.42216 75.5493 7.15725 75.3442 6.92281L75.0431 7.18621ZM75.241 7.68876C75.2324 7.83489 75.1623 7.96798 74.9976 8.09151L75.2376 8.41151C75.4783 8.23103 75.6236 7.99679 75.6403 7.71225L75.241 7.68876ZM75.0043 8.0867C74.8519 8.19153 74.6667 8.2305 74.4314 8.18773L74.3599 8.58128C74.682 8.63984 74.9781 8.59015 75.2309 8.41632L75.0043 8.0867ZM74.4314 8.18773C74.1869 8.14328 73.9886 8.04513 73.8291 7.8963L73.5562 8.18872C73.7767 8.39455 74.047 8.5244 74.3599 8.58128L74.4314 8.18773ZM73.8311 7.89823C73.4952 7.57576 73.1269 7.34893 72.7259 7.22449L72.6074 7.60652C72.9411 7.71008 73.2567 7.90125 73.5541 8.18678L73.8311 7.89823ZM72.7259 7.22449C72.3353 7.10326 71.8903 7.04451 71.3936 7.04451V7.44451C71.8597 7.44451 72.2633 7.49975 72.6074 7.60652L72.7259 7.22449ZM71.3936 7.04451C70.8142 7.04451 70.3078 7.14321 69.8815 7.34947L70.0558 7.70954C70.4148 7.53581 70.8584 7.44451 71.3936 7.44451V7.04451ZM69.8792 7.35062C69.6665 7.45698 69.4945 7.59442 69.3759 7.76834C69.2562 7.94385 69.1986 8.14539 69.1986 8.36551H69.5986C69.5986 8.21828 69.6361 8.09683 69.7064 7.99367C69.7778 7.88892 69.8908 7.79203 70.0581 7.70839L69.8792 7.35062ZM69.1986 8.36551C69.1986 8.62865 69.2649 8.87339 69.3981 9.09541L69.7411 8.88961C69.6463 8.73162 69.5986 8.55836 69.5986 8.36551H69.1986ZM69.4069 9.10875C69.5656 9.33093 69.847 9.51356 70.2129 9.67034L70.3704 9.30268C70.0269 9.15546 69.827 9.00875 69.7324 8.87626L69.4069 9.10875ZM70.2185 9.67266C70.5894 9.81835 71.1221 9.9604 71.8097 10.1005L71.8896 9.70853C71.2092 9.56994 70.7032 9.43333 70.3648 9.30036L70.2185 9.67266ZM71.8104 10.1006C72.7508 10.2887 73.4769 10.5245 73.9973 10.8029L74.186 10.4501C73.6171 10.1459 72.8485 9.90032 71.8889 9.70839L71.8104 10.1006ZM73.999 10.8038C74.5355 11.0842 74.902 11.4045 75.1181 11.757L75.4592 11.548C75.1939 11.1152 74.7624 10.7515 74.1843 10.4493L73.999 10.8038ZM75.1197 11.7595C75.3376 12.1036 75.4496 12.5088 75.4496 12.9825H75.8496C75.8496 12.4429 75.721 11.9614 75.4576 11.5455L75.1197 11.7595ZM75.4496 12.9825C75.4496 13.5265 75.3025 14.013 75.0089 14.4475L75.3404 14.6715C75.6801 14.1687 75.8496 13.6038 75.8496 12.9825H75.4496ZM75.0068 14.4507C74.7273 14.8817 74.3037 15.2327 73.7233 15.4987L73.89 15.8623C74.5256 15.571 75.014 15.1747 75.3424 14.6683L75.0068 14.4507ZM73.7219 15.4994C73.1609 15.7619 72.4448 15.8985 71.5646 15.8985V16.2985C72.4831 16.2985 73.2617 16.1564 73.8914 15.8616L73.7219 15.4994ZM78.081 15.7565L77.9345 15.8933L77.9446 15.9027L78.081 15.7565ZM78.081 5.89551L77.9445 5.74921L77.9396 5.75408L78.081 5.89551ZM79.487 15.7565L79.6285 15.898L79.6333 15.893L79.487 15.7565ZM77.891 3.57751L77.7458 3.71544L77.7533 3.72251L77.891 3.57751ZM77.891 1.81051L77.7496 1.66908L77.7496 1.66908L77.891 1.81051ZM79.658 1.81051L79.5128 1.94844L79.5203 1.95551L79.658 1.81051ZM79.658 3.57751L79.7995 3.71893L79.658 3.57751ZM78.784 15.8225C78.552 15.8225 78.3676 15.7504 78.2175 15.6103L77.9446 15.9027C78.1744 16.1173 78.4587 16.2225 78.784 16.2225V15.8225ZM78.2273 15.62C78.0871 15.4699 78.015 15.2855 78.015 15.0535H77.615C77.615 15.3788 77.7203 15.6631 77.9348 15.893L78.2273 15.62ZM78.015 15.0535V6.59851H77.615V15.0535H78.015ZM78.015 6.59851C78.015 6.35094 78.0887 6.17067 78.2225 6.03693L77.9396 5.75408C77.7187 5.97501 77.615 6.2634 77.615 6.59851H78.015ZM78.2175 6.04172C78.3676 5.90159 78.552 5.82951 78.784 5.82951V5.42951C78.4587 5.42951 78.1744 5.53476 77.9446 5.74929L78.2175 6.04172ZM78.784 5.82951C79.0316 5.82951 79.2119 5.90318 79.3456 6.03693L79.6285 5.75408C79.4075 5.53316 79.1191 5.42951 78.784 5.42951V5.82951ZM79.3456 6.03693C79.4794 6.17067 79.553 6.35094 79.553 6.59851H79.953C79.953 6.2634 79.8494 5.97501 79.6285 5.75408L79.3456 6.03693ZM79.553 6.59851V15.0535H79.953V6.59851H79.553ZM79.553 15.0535C79.553 15.2855 79.481 15.4699 79.3408 15.62L79.6333 15.893C79.8478 15.6631 79.953 15.3788 79.953 15.0535H79.553ZM79.3456 15.6151C79.2119 15.7488 79.0316 15.8225 78.784 15.8225V16.2225C79.1191 16.2225 79.4075 16.1189 79.6285 15.8979L79.3456 15.6151ZM78.784 3.73851C78.4945 3.73851 78.2458 3.63871 78.0288 3.43251L77.7533 3.72251C78.0429 3.99763 78.3895 4.13851 78.784 4.13851V3.73851ZM78.036 3.43976C77.8298 3.2227 77.73 2.97401 77.73 2.68451H77.33C77.33 3.079 77.4709 3.42565 77.746 3.71526L78.036 3.43976ZM77.73 2.68451C77.73 2.39526 77.8295 2.15488 78.0325 1.95193L77.7496 1.66908C77.4712 1.94746 77.33 2.28975 77.33 2.68451H77.73ZM78.0325 1.95193C78.2503 1.73412 78.4978 1.63051 78.784 1.63051V1.23051C78.3863 1.23051 78.0385 1.38023 77.7496 1.66908L78.0325 1.95193ZM78.784 1.63051C79.0699 1.63051 79.3092 1.73369 79.513 1.94826L79.803 1.67276C79.5255 1.38065 79.1822 1.23051 78.784 1.23051V1.63051ZM79.5203 1.95551C79.7349 2.15934 79.838 2.39866 79.838 2.68451H80.238C80.238 2.28635 80.0879 1.94301 79.7958 1.66551L79.5203 1.95551ZM79.838 2.68451C79.838 2.97072 79.7344 3.21827 79.5166 3.43608L79.7995 3.71893C80.0883 3.43007 80.238 3.08229 80.238 2.68451H79.838ZM79.5166 3.43608C79.3137 3.63904 79.0733 3.73851 78.784 3.73851V4.13851C79.1788 4.13851 79.5211 3.99731 79.7995 3.71893L79.5166 3.43608ZM84.8784 15.4335L84.778 15.6065L84.7801 15.6077L84.8784 15.4335ZM83.0164 13.5715L82.8416 13.6687L82.8435 13.6719L83.0164 13.5715ZM83.0164 8.09951L82.8428 8.00028L82.8423 8.00119L83.0164 8.09951ZM84.8784 6.23751L84.9768 6.41168L84.9789 6.41046L84.8784 6.23751ZM90.2934 6.23751L90.193 6.41048L90.1951 6.41167L90.2934 6.23751ZM92.1364 8.09951L91.9616 8.19665L91.9635 8.19993L92.1364 8.09951ZM92.1554 13.5715L92.3296 13.6698L92.3303 13.6686L92.1554 13.5715ZM90.3124 15.4335L90.4108 15.6077L90.4129 15.6065L90.3124 15.4335ZM89.3434 13.9325L89.2405 13.761L89.2405 13.761L89.3434 13.9325ZM90.5214 12.6785L90.346 12.5824L90.3443 12.5857L90.5214 12.6785ZM90.5214 8.99251L90.3433 9.08364L90.346 9.08857L90.5214 8.99251ZM89.3434 7.71951L89.2405 7.89101L89.2405 7.89101L89.3434 7.71951ZM85.8474 7.71951L85.9503 7.89101L85.9503 7.89101L85.8474 7.71951ZM84.6504 8.99251L84.8259 9.08857L84.8268 9.08684L84.6504 8.99251ZM84.6504 12.6785L84.8259 12.5824L84.8259 12.5824L84.6504 12.6785ZM85.8474 13.9325L85.7445 14.104L85.7445 14.104L85.8474 13.9325ZM87.5954 15.8985C86.5991 15.8985 85.7282 15.6835 84.9768 15.2593L84.7801 15.6077C85.5994 16.0702 86.5398 16.2985 87.5954 16.2985V15.8985ZM84.9789 15.2605C84.2236 14.822 83.6279 14.2263 83.1894 13.4711L82.8435 13.6719C83.3169 14.4873 83.9626 15.133 84.778 15.6065L84.9789 15.2605ZM83.1913 13.4744C82.7664 12.7096 82.5514 11.8318 82.5514 10.8355H82.1514C82.1514 11.8912 82.3798 12.8374 82.8416 13.6686L83.1913 13.4744ZM82.5514 10.8355C82.5514 9.826 82.7666 8.94887 83.1906 8.19783L82.8423 8.00119C82.3796 8.82081 82.1514 9.76768 82.1514 10.8355H82.5514ZM83.1901 8.19873C83.6285 7.43142 84.2235 6.83692 84.9768 6.41167L84.7801 6.06334C83.9627 6.52476 83.3163 7.17159 82.8428 8.00028L83.1901 8.19873ZM84.9789 6.41046C85.7299 5.97438 86.6 5.75351 87.5954 5.75351V5.35351C86.5388 5.35351 85.5976 5.58863 84.778 6.06455L84.9789 6.41046ZM87.5954 5.75351C88.5777 5.75351 89.4416 5.97417 90.193 6.41046L90.3939 6.06455C89.5746 5.58885 88.6399 5.35351 87.5954 5.35351V5.75351ZM90.1951 6.41167C90.9479 6.83664 91.5359 7.43046 91.9616 8.19663L92.3113 8.00238C91.8502 7.17255 91.2096 6.52504 90.3918 6.06334L90.1951 6.41167ZM91.9635 8.19993C92.3993 8.95059 92.6204 9.82696 92.6204 10.8355H93.0204C93.0204 9.76672 92.7855 8.81908 92.3094 7.99908L91.9635 8.19993ZM92.6204 10.8355C92.6204 11.8318 92.4055 12.7096 91.9806 13.4744L92.3303 13.6686C92.7921 12.8374 93.0204 11.8912 93.0204 10.8355H92.6204ZM91.9813 13.4732C91.5556 14.2273 90.9668 14.8223 90.212 15.2605L90.4129 15.6065C91.2287 15.1327 91.8686 14.4864 92.3296 13.6698L91.9813 13.4732ZM90.2141 15.2593C89.4627 15.6835 88.5918 15.8985 87.5954 15.8985V16.2985C88.6511 16.2985 89.5915 16.0702 90.4108 15.6077L90.2141 15.2593ZM87.5954 14.5885C88.2861 14.5885 88.9051 14.4287 89.4463 14.104L89.2405 13.761C88.7684 14.0443 88.2221 14.1885 87.5954 14.1885V14.5885ZM89.4463 14.104C89.9851 13.7808 90.4032 13.3353 90.6986 12.7713L90.3443 12.5857C90.0824 13.0857 89.7151 13.4762 89.2405 13.761L89.4463 14.104ZM90.6969 12.7746C91.0066 12.209 91.1584 11.5607 91.1584 10.8355H90.7584C90.7584 11.5036 90.619 12.084 90.346 12.5824L90.6969 12.7746ZM91.1584 10.8355C91.1584 10.1103 91.0066 9.46202 90.6969 8.89644L90.346 9.08857C90.619 9.587 90.7584 10.1674 90.7584 10.8355H91.1584ZM90.6995 8.90141C90.4044 8.32468 89.9862 7.87196 89.4463 7.54801L89.2405 7.89101C89.7139 8.17505 90.0811 8.571 90.3434 9.0836L90.6995 8.90141ZM89.4463 7.54801C88.9051 7.22328 88.2861 7.06351 87.5954 7.06351V7.46351C88.2221 7.46351 88.7684 7.60774 89.2405 7.89101L89.4463 7.54801ZM87.5954 7.06351C86.9048 7.06351 86.2858 7.22328 85.7445 7.54801L85.9503 7.89101C86.4224 7.60774 86.9687 7.46351 87.5954 7.46351V7.06351ZM85.7445 7.54801C85.2054 7.87148 84.7817 8.32313 84.4741 8.89818L84.8268 9.08684C85.1019 8.57255 85.4761 8.17553 85.9503 7.89101L85.7445 7.54801ZM84.475 8.89644C84.1653 9.46202 84.0134 10.1103 84.0134 10.8355H84.4134C84.4134 10.1674 84.5529 9.587 84.8259 9.08857L84.475 8.89644ZM84.0134 10.8355C84.0134 11.5607 84.1653 12.209 84.475 12.7746L84.8259 12.5824C84.5529 12.084 84.4134 11.5036 84.4134 10.8355H84.0134ZM84.475 12.7746C84.7829 13.3368 85.2066 13.7812 85.7445 14.104L85.9503 13.761C85.4749 13.4758 85.1006 13.0842 84.8259 12.5824L84.475 12.7746ZM85.7445 14.104C86.2858 14.4287 86.9048 14.5885 87.5954 14.5885V14.1885C86.9687 14.1885 86.4224 14.0443 85.9503 13.761L85.7445 14.104ZM103.305 15.7755L103.158 15.9123L103.168 15.9217L103.305 15.7755ZM102.64 8.63151L102.467 8.73228L102.467 8.73228L102.64 8.63151ZM101.557 7.62451L101.465 7.80247L101.471 7.80536L101.557 7.62451ZM98.5737 7.60551L98.4843 7.42662L98.4843 7.42662L98.5737 7.60551ZM97.5477 8.47951L97.7105 8.59577L97.7124 8.59305L97.5477 8.47951ZM97.1677 9.71451V9.91451H97.3677V9.71451H97.1677ZM95.9707 9.71451H95.7707V9.91451H95.9707V9.71451ZM96.5407 7.58651L96.3707 7.48112L96.3702 7.48208L96.5407 7.58651ZM98.1367 6.08551L98.2327 6.26096L98.2327 6.26096L98.1367 6.08551ZM102.735 6.10451L102.638 6.27938L102.641 6.28142L102.735 6.10451ZM104.369 7.73851L104.193 7.83407L104.194 7.83641L104.369 7.73851ZM104.692 15.7755L104.55 15.6341L104.55 15.6341L104.692 15.7755ZM95.4957 15.7755L95.3492 15.9123L95.3593 15.9217L95.4957 15.7755ZM95.4957 5.89551L95.3592 5.74921L95.3543 5.75408L95.4957 5.89551ZM96.9017 15.7755L97.0432 15.917L97.0479 15.912L96.9017 15.7755ZM104.008 15.8415C103.776 15.8415 103.591 15.7694 103.441 15.6293L103.168 15.9217C103.398 16.1363 103.682 16.2415 104.008 16.2415V15.8415ZM103.451 15.639C103.311 15.4889 103.239 15.3045 103.239 15.0725H102.839C102.839 15.3978 102.944 15.6821 103.159 15.912L103.451 15.639ZM103.239 15.0725V10.3985H102.839V15.0725H103.239ZM103.239 10.3985C103.239 9.65358 103.102 9.02655 102.812 8.53073L102.467 8.73228C102.71 9.14846 102.839 9.69943 102.839 10.3985H103.239ZM102.812 8.53073C102.527 8.04156 102.136 7.67708 101.642 7.44366L101.471 7.80536C101.889 8.0026 102.22 8.30945 102.467 8.73228L102.812 8.53073ZM101.648 7.44665C101.172 7.20183 100.627 7.08251 100.018 7.08251V7.48251C100.574 7.48251 101.055 7.59119 101.465 7.80236L101.648 7.44665ZM100.018 7.08251C99.458 7.08251 98.9455 7.196 98.4843 7.42662L98.6632 7.78439C99.0633 7.58435 99.5135 7.48251 100.018 7.48251V7.08251ZM98.4843 7.42662C98.0259 7.65582 97.6571 7.96868 97.3831 8.36596L97.7124 8.59305C97.9451 8.25567 98.2602 7.98586 98.6632 7.78439L98.4843 7.42662ZM97.385 8.36326C97.1056 8.75445 96.9677 9.20747 96.9677 9.71451H97.3677C97.3677 9.28421 97.4832 8.9139 97.7105 8.59575L97.385 8.36326ZM97.1677 9.51451H95.9707V9.91451H97.1677V9.51451ZM96.1707 9.71451C96.1707 8.94969 96.3524 8.27718 96.7113 7.69094L96.3702 7.48208C95.9691 8.13717 95.7707 8.88333 95.7707 9.71451H96.1707ZM96.7107 7.69189C97.0847 7.08873 97.5908 6.61218 98.2327 6.26096L98.0407 5.91005C97.34 6.2935 96.7821 6.81762 96.3707 7.48112L96.7107 7.69189ZM98.2327 6.26096C98.872 5.91119 99.5921 5.73451 100.398 5.73451V5.33451C99.5314 5.33451 98.7442 5.52516 98.0407 5.91005L98.2327 6.26096ZM100.398 5.73451C101.242 5.73451 101.987 5.91771 102.638 6.27934L102.832 5.92968C102.115 5.53131 101.302 5.33451 100.398 5.33451V5.73451ZM102.641 6.28142C103.302 6.62953 103.818 7.14512 104.193 7.83406L104.544 7.64295C104.134 6.88789 103.561 6.31415 102.828 5.92759L102.641 6.28142ZM104.194 7.83641C104.579 8.52149 104.777 9.37239 104.777 10.3985H105.177C105.177 9.32195 104.969 8.39952 104.543 7.6406L104.194 7.83641ZM104.777 10.3985V15.0725H105.177V10.3985H104.777ZM104.777 15.0725C104.777 15.3003 104.701 15.4831 104.55 15.6341L104.833 15.9169C105.062 15.6879 105.177 15.402 105.177 15.0725H104.777ZM104.55 15.6341C104.415 15.7696 104.24 15.8415 104.008 15.8415V16.2415C104.333 16.2415 104.614 16.1361 104.833 15.9169L104.55 15.6341ZM96.1987 15.8415C95.9667 15.8415 95.7823 15.7694 95.6322 15.6293L95.3593 15.9217C95.5891 16.1363 95.8734 16.2415 96.1987 16.2415V15.8415ZM95.6419 15.639C95.5018 15.4889 95.4297 15.3045 95.4297 15.0725H95.0297C95.0297 15.3978 95.135 15.6821 95.3495 15.912L95.6419 15.639ZM95.4297 15.0725V6.59851H95.0297V15.0725H95.4297ZM95.4297 6.59851C95.4297 6.35094 95.5034 6.17067 95.6372 6.03693L95.3543 5.75408C95.1334 5.97501 95.0297 6.2634 95.0297 6.59851H95.4297ZM95.6322 6.04172C95.7823 5.90159 95.9667 5.82951 96.1987 5.82951V5.42951C95.8734 5.42951 95.5891 5.53476 95.3593 5.74929L95.6322 6.04172ZM96.1987 5.82951C96.4463 5.82951 96.6266 5.90318 96.7603 6.03693L97.0432 5.75408C96.8222 5.53316 96.5338 5.42951 96.1987 5.42951V5.82951ZM96.7603 6.03693C96.8941 6.17067 96.9677 6.35094 96.9677 6.59851H97.3677C97.3677 6.2634 97.2641 5.97501 97.0432 5.75408L96.7603 6.03693ZM96.9677 6.59851V15.0725H97.3677V6.59851H96.9677ZM96.9677 15.0725C96.9677 15.3045 96.8956 15.4889 96.7555 15.639L97.0479 15.912C97.2625 15.6821 97.3677 15.3978 97.3677 15.0725H96.9677ZM96.7603 15.6341C96.6266 15.7678 96.4463 15.8415 96.1987 15.8415V16.2415C96.5338 16.2415 96.8222 16.1379 97.0432 15.9169L96.7603 15.6341Z" fill="black" mask="url(#path-1-outside-1_3_21)"/>
</svg>
